<svg width="255" height="28" viewBox="0 0 255 28" fill="none" xmlns="http://www.w3.org/2000/svg">
<path d="M6.74741 0.46907H18.5103C17.969 2.41752 16.4536 8.19071 14.9742 14.0361C14.6855 15.1907 14.3969 16.3453 14.1443 17.4639C16.0567 17.4639 18.366 17.4278 20.6031 17.3556C20.1701 19.0154 19.701 20.7474 19.3041 22.4072C18.8711 24.1391 18.4381 25.835 18.0412 27.5309H0C0.577319 25.402 2.09278 19.7732 3.5 14C5.01546 8.04638 6.24226 3.06701 6.74741 0.46907Z" fill="#9EFF78"/>
<path d="M31.3838 27.5309H19.8735C20.956 23.6701 21.9302 19.7371 23.3374 14C24.7807 8.26288 25.791 4.32989 26.6209 0.46907H38.1312C37.0848 4.29381 36.1106 8.22679 34.7034 13.9639C33.2601 19.701 32.2859 23.634 31.3838 27.5309Z" fill="#9EFF78"/>
<path d="M56.0758 0.46907H67.2974C64.1221 7.25257 57.1582 23.8144 55.4984 27.5309C53.55 27.5309 50.4108 27.4587 46.8747 27.4587C42.1479 27.4587 39.4057 27.4948 38.0706 27.5309C38.3954 23.7783 39.5861 7.07216 39.7304 0.46907H51.0964C50.5912 2.85051 49.5448 9.77834 48.9314 15.6237C48.8232 17.1752 48.6428 18.9072 48.4984 20.4227H48.6789C49.2562 18.9072 49.9057 17.1752 50.5551 15.6598C52.8644 9.81442 55.4263 2.70618 56.0758 0.46907Z" fill="#9EFF78"/>
<path d="M68.8698 0.46907H90.9522C90.6997 1.33505 90.3028 2.85051 89.978 4.07731C89.6533 5.37628 89.2564 6.99999 89.076 7.90205C85.3234 7.82989 81.3182 7.82989 78.1791 7.82989L77.5296 10.5C81.21 10.5 85.0708 10.4639 88.1739 10.3557C87.777 11.8711 86.9471 15.0825 86.5502 16.7783C83.5554 16.6701 79.6584 16.5979 76.0141 16.5979L75.3286 19.3763C78.5399 19.3763 82.7976 19.3402 86.2615 19.3041C85.9368 20.3505 85.5038 22.0464 85.1791 23.4897C84.8182 24.8608 84.4213 26.4484 84.2048 27.5309H62.1224C63.1688 23.7422 64.2152 19.7732 65.6224 14C67.0657 8.26288 68.0399 4.18556 68.8698 0.46907Z" fill="#9EFF78"/>
<path d="M113.711 16.5258C113.999 14.0721 114.252 11.5103 114.432 9.2371C114.468 7.75772 114.613 5.98968 114.757 4.61855H114.577C113.999 5.98968 113.314 7.72164 112.592 9.27318C111.618 11.5464 110.608 14.0721 109.706 16.5258H113.711ZM106.386 0.46907H124.968C124.752 4.07731 123.886 20.6752 123.994 27.5309H111.979C112.231 26.4845 112.556 24.7525 112.881 22.6598H107.432C106.711 24.7165 106.133 26.4484 105.845 27.5309H94.1901C97.5818 20.7113 104.979 4.00515 106.386 0.46907Z" fill="#9EFF78"/>
<path d="M144.154 12.1237C144.262 11.7268 144.37 11.3299 144.442 11.0051C145.092 8.40721 144.479 7.54123 142.783 7.54123C140.979 7.57731 139.86 8.55154 138.669 13.4227C137.479 18.1495 138.236 19.5206 140.149 19.5206C141.736 19.5206 142.711 18.1855 143.216 16.1649C143.324 15.768 143.396 15.2989 143.504 14.8299C145.236 14.866 147.076 14.866 148.881 14.866C150.685 14.866 152.489 14.866 154.257 14.8299C154.149 15.6237 153.968 16.3814 153.788 17.067C151.731 25.2577 148.087 28 138.886 28C128.169 28 124.922 23.0567 127.52 12.7732C129.865 3.2835 134.484 0 143.829 0C154.293 0 156.999 3.82474 155.628 9.52576C155.412 10.3196 155.159 11.1856 154.834 12.1237C153.066 12.0515 151.262 12.0515 149.494 12.0515C147.726 12.0515 145.886 12.0515 144.154 12.1237Z" fill="#9EFF78"/>
<path d="M159.262 0.46907H180.911C180.551 1.73196 180.045 3.71649 179.612 5.48453C179.143 7.21649 178.638 9.34535 178.35 10.7165C176.69 10.6804 175.066 10.6443 173.478 10.6443C171.566 18.4742 169.798 25.7989 169.437 27.567C167.85 27.4587 165.216 27.4587 163.339 27.4587C161.463 27.4587 158.901 27.4587 157.241 27.567C157.783 25.7989 159.659 18.4742 161.607 10.6443C160.02 10.6804 158.36 10.6804 156.7 10.7165C157.097 9.34535 157.602 7.21649 158.071 5.48453C158.504 3.71649 159.009 1.73196 159.262 0.46907Z" fill="#9EFF78"/>
<path d="M187.624 27.5309H176.113C177.196 23.6701 178.17 19.7371 179.577 14C181.02 8.26288 182.031 4.32989 182.861 0.46907H194.371C193.325 4.29381 192.35 8.22679 190.943 13.9639C189.5 19.701 188.526 23.634 187.624 27.5309Z" fill="#9EFF78"/>
<path d="M221.877 14.902C219.532 24.3556 214.733 28 205.532 28C194.058 28 191.099 22.9484 193.697 12.268C196.006 2.88659 201.202 0 210.042 0C220.795 0 224.547 4.14948 221.877 14.902ZM206.362 19.5928C208.274 19.5928 209.537 18.2216 210.656 13.7113C211.81 9.20102 211.233 7.61339 209.068 7.61339C207.156 7.61339 205.857 8.87628 204.774 13.2062C203.584 18.1134 204.197 19.5928 206.362 19.5928Z" fill="#9EFF78"/>
<path d="M245.216 0.46907H254.706C254.02 2.81443 252.613 8.22679 251.206 13.9639C249.69 19.9897 248.644 24.1031 247.922 27.5309H236.484C236.123 25.3299 235.221 22.1546 234.428 19.2319C234.139 17.3917 233.922 15.5154 233.85 13.6392L233.706 13.6752C233.309 15.9484 232.876 17.969 232.407 20.0979C231.541 23.8505 230.891 26.4123 230.711 27.5309H221.041C221.979 23.8505 223.062 19.7732 224.469 14C225.912 8.26288 226.958 4.18556 227.788 0.46907H239.984C240.056 1.98453 241.103 6.38659 241.68 9.70617C241.897 11.0773 242.077 12.6288 242.149 14.2886L242.294 14.2165C242.654 12.3041 243.015 10.5 243.34 9.05669C244.098 5.88143 244.855 2.48969 245.216 0.46907Z" fill="#9EFF78"/>
</svg>
