<svg width="344" height="30" viewBox="0 0 344 30" fill="none" xmlns="http://www.w3.org/2000/svg">
<mask id="path-1-outside-1_41_46" maskUnits="userSpaceOnUse" x="-0.69947" y="0" width="345.486" height="30.0423" fill="black">
<rect fill="white" x="-0.69947" width="345.486" height="30.0423"/>
<path d="M8.08088 1.47007H28.9903C28.6298 2.76789 28.089 4.71463 27.6564 6.37296C27.2959 7.88709 26.8994 9.58148 26.647 10.699C23.2943 10.663 19.9416 10.6269 17.0936 10.6269L16.4446 13.2226L16.2283 14.0518C19.509 14.0518 22.7175 14.0157 25.5655 13.9076C24.9887 15.9625 23.9432 20.1443 23.4024 22.3434C20.6626 22.3074 17.5622 22.2713 14.3537 22.2353C13.885 24.3262 13.4524 26.4172 13.0559 28.5081H1.30335C2.31277 24.7228 3.35824 20.7211 4.80027 14.9891C6.20624 9.25702 7.21566 5.25539 8.08088 1.47007ZM36.145 28.5081H24.6448C25.7263 24.6507 26.6997 20.7211 28.1056 14.9891C29.5477 9.25702 30.5571 5.32749 31.3863 1.47007H42.8864C41.841 5.29144 40.8676 9.22097 39.4616 14.953C38.0196 20.6851 37.0462 24.6146 36.145 28.5081ZM63.3748 1.47007H72.8561C72.1712 3.81336 70.7652 9.22097 69.3592 14.953C67.8451 20.9735 66.7996 25.0833 66.0786 28.5081H54.6505C54.29 26.309 53.3887 23.1365 52.5956 20.2164C52.3072 18.3779 52.0909 16.5032 52.0188 14.6286L51.8746 14.6646C51.4781 16.9358 51.0454 18.9547 50.5768 21.0817C49.7116 24.8309 49.0627 27.3905 48.8824 28.5081H39.2208C40.1581 24.8309 41.2397 20.7572 42.6456 14.9891C44.0877 9.25702 45.1331 5.18329 45.9623 1.47007H58.1474C58.2195 2.9842 59.265 7.38238 59.8418 10.699C60.0581 12.069 60.2384 13.6192 60.3105 15.2775L60.4547 15.2054C60.8152 13.2947 61.1757 11.4922 61.5001 10.0501C62.2572 6.87767 63.0143 3.48891 63.3748 1.47007ZM88.6483 15.0972C90.0182 9.58148 89.117 8.60811 86.99 8.60811C86.3411 8.60811 85.6921 8.64416 85.0432 8.68021C84.5025 10.663 83.9978 12.7539 83.457 14.8809C82.8802 17.1882 82.4476 18.9547 82.0871 20.4327C82.6999 20.4688 83.3128 20.4688 83.9617 20.4688C86.305 20.4688 87.4947 19.6757 88.6483 15.0972ZM75.8503 1.47007H89.4054C98.418 1.47007 102.275 4.71463 99.4635 15.9985C96.94 26.0567 92.8662 28.5081 83.8175 28.5081H69.1088C70.1543 24.6867 71.1277 20.7572 72.5697 15.0251C74.0117 9.29307 75.0211 5.14724 75.8503 1.47007ZM128.255 1.47007H138.638C136.186 5.29144 129.733 16.7556 127.714 20.1443C126.705 24.2902 126.02 27.4266 125.804 28.5442C123.929 28.472 121.009 28.436 118.81 28.436C116.647 28.436 113.691 28.472 111.852 28.5442C112.213 27.4266 113.078 24.2541 114.159 20.0722C113.979 16.4672 113.078 5.14724 112.465 1.47007H123.316C123.172 2.76789 122.92 6.22876 122.667 9.58148C122.523 11.3119 122.343 13.2587 122.235 14.8088H122.523C123.172 13.2587 123.965 11.348 124.722 9.61753C126.236 6.26481 127.786 2.76789 128.255 1.47007ZM163.101 15.8904C160.757 25.3356 155.963 28.9768 146.77 28.9768C135.306 28.9768 132.349 23.9297 134.945 13.2587C137.252 3.88546 142.444 1.00141 151.276 1.00141C162.019 1.00141 165.768 5.14724 163.101 15.8904ZM147.599 20.5769C149.51 20.5769 150.771 19.207 151.889 14.7007C153.042 10.1943 152.466 8.60811 150.303 8.60811C148.392 8.60811 147.094 9.86988 146.013 14.196C144.823 19.0989 145.436 20.5769 147.599 20.5769ZM184.905 1.47007H196.008C195.323 3.95757 194.639 6.40901 193.737 10.0501C193.124 12.5016 192.223 16.359 191.502 19.171C189.988 25.2996 186.275 28.9768 177.19 28.9768C165.293 28.9768 163.31 24.182 164.861 17.8371C165.437 15.5298 166.339 12.1771 166.879 10.0501C167.781 6.40901 168.322 3.95757 168.862 1.47007H180.182C178.884 6.15666 177.118 13.0063 176.108 17.1882C175.604 19.171 176.108 20.2525 178.091 20.2525C179.75 20.2525 180.579 19.3152 181.156 17.1882C182.165 13.0063 183.787 6.15666 184.905 1.47007ZM209.061 14.3041C210.719 14.3041 211.62 13.475 212.161 11.4561C212.846 8.64416 212.053 7.85104 210.142 7.85104C209.71 7.85104 208.808 7.88709 207.943 7.92314C207.438 10.0501 206.898 12.2132 206.393 14.2681C207.114 14.3041 208.015 14.3041 209.061 14.3041ZM198.967 1.47007H214.757C221.282 1.47007 224.563 4.53438 223.085 10.6269C222.003 14.9891 219.696 16.6835 214.937 17.2242L214.865 17.4766C218.578 17.9813 219.84 19.207 219.588 22.9923C219.552 24.7588 219.335 27.2103 219.335 28.5081H210.142C208.556 28.5081 208.232 27.9313 208.376 25.624C208.881 20.8653 208.7 19.928 206.79 19.928C206.069 19.928 205.78 19.928 205.095 19.9641C204.302 23.3889 203.689 26.4172 203.401 28.5081H192.225C193.271 24.6146 194.28 20.7572 195.722 14.9891C197.164 9.25702 198.101 5.36354 198.967 1.47007ZM236.706 1.47007H258.769C258.517 2.33528 258.12 3.84941 257.796 5.07514C257.472 6.37296 257.075 7.99525 256.895 8.89651C253.145 8.82441 249.144 8.82441 246.007 8.82441L245.358 11.4922C249.036 11.4922 252.893 11.4561 255.993 11.348C255.597 12.8621 254.768 16.0706 254.371 17.765C251.379 17.6568 247.485 17.5847 243.844 17.5847L243.159 20.3606C246.368 20.3606 250.622 20.3246 254.083 20.2885C253.758 21.334 253.326 23.0284 253.001 24.4704C252.641 25.8403 252.244 27.4266 252.028 28.5081H229.965C231.01 24.7228 232.056 20.7572 233.462 14.9891C234.904 9.25702 235.877 5.18329 236.706 1.47007ZM274.288 15.0972C275.658 9.58148 274.757 8.60811 272.63 8.60811C271.981 8.60811 271.332 8.64416 270.683 8.68021C270.143 10.663 269.638 12.7539 269.097 14.8809C268.52 17.1882 268.088 18.9547 267.727 20.4327C268.34 20.4688 268.953 20.4688 269.602 20.4688C271.945 20.4688 273.135 19.6757 274.288 15.0972ZM261.49 1.47007H275.045C284.058 1.47007 287.916 4.71463 285.104 15.9985C282.58 26.0567 278.506 28.5081 269.458 28.5081H254.749C255.794 24.6867 256.768 20.7572 258.21 15.0251C259.652 9.29307 260.661 5.14724 261.49 1.47007ZM303.72 1.00141C314.571 1.00141 316.986 5.11119 315.688 10.3746C315.616 10.699 315.472 11.0235 315.364 11.384C313.742 11.348 311.687 11.3119 309.632 11.3119C307.685 11.3119 305.774 11.3119 304.368 11.384C304.513 11.0235 304.585 10.6269 304.657 10.3025C305.125 8.49996 304.441 7.63474 302.782 7.63474C300.727 7.63474 299.466 9.32912 298.24 14.3402C296.87 19.892 297.158 21.8387 299.826 21.8387C301.412 21.8387 302.35 21.0456 303.143 18.8826C302.025 18.9186 300.872 18.9186 299.898 18.9547C300.078 18.3057 300.511 16.5393 300.655 15.8904C300.944 14.8449 301.196 13.8715 301.34 13.1505C303.611 13.2226 305.955 13.2226 307.649 13.2226C309.632 13.2226 312.227 13.2226 314.895 13.1505C312.696 24.6146 310.101 28.9768 298.6 28.9768C288.29 28.9768 284.396 24.5065 287.064 13.9797C289.552 4.06572 294.418 1.00141 303.72 1.00141ZM320.602 1.47007H342.665C342.412 2.33528 342.016 3.84941 341.691 5.07514C341.367 6.37296 340.97 7.99525 340.79 8.89651C337.041 8.82441 333.039 8.82441 329.903 8.82441L329.254 11.4922C332.931 11.4922 336.788 11.4561 339.889 11.348C339.492 12.8621 338.663 16.0706 338.267 17.765C335.274 17.6568 331.381 17.5847 327.74 17.5847L327.055 20.3606C330.263 20.3606 334.517 20.3246 337.978 20.2885C337.654 21.334 337.221 23.0284 336.897 24.4704C336.536 25.8403 336.14 27.4266 335.923 28.5081H313.86C314.906 24.7228 315.951 20.7572 317.357 14.9891C318.799 9.25702 319.773 5.18329 320.602 1.47007Z"/>
</mask>
<path d="M8.08088 1.47007H28.9903C28.6298 2.76789 28.089 4.71463 27.6564 6.37296C27.2959 7.88709 26.8994 9.58148 26.647 10.699C23.2943 10.663 19.9416 10.6269 17.0936 10.6269L16.4446 13.2226L16.2283 14.0518C19.509 14.0518 22.7175 14.0157 25.5655 13.9076C24.9887 15.9625 23.9432 20.1443 23.4024 22.3434C20.6626 22.3074 17.5622 22.2713 14.3537 22.2353C13.885 24.3262 13.4524 26.4172 13.0559 28.5081H1.30335C2.31277 24.7228 3.35824 20.7211 4.80027 14.9891C6.20624 9.25702 7.21566 5.25539 8.08088 1.47007ZM36.145 28.5081H24.6448C25.7263 24.6507 26.6997 20.7211 28.1056 14.9891C29.5477 9.25702 30.5571 5.32749 31.3863 1.47007H42.8864C41.841 5.29144 40.8676 9.22097 39.4616 14.953C38.0196 20.6851 37.0462 24.6146 36.145 28.5081ZM63.3748 1.47007H72.8561C72.1712 3.81336 70.7652 9.22097 69.3592 14.953C67.8451 20.9735 66.7996 25.0833 66.0786 28.5081H54.6505C54.29 26.309 53.3887 23.1365 52.5956 20.2164C52.3072 18.3779 52.0909 16.5032 52.0188 14.6286L51.8746 14.6646C51.4781 16.9358 51.0454 18.9547 50.5768 21.0817C49.7116 24.8309 49.0627 27.3905 48.8824 28.5081H39.2208C40.1581 24.8309 41.2397 20.7572 42.6456 14.9891C44.0877 9.25702 45.1331 5.18329 45.9623 1.47007H58.1474C58.2195 2.9842 59.265 7.38238 59.8418 10.699C60.0581 12.069 60.2384 13.6192 60.3105 15.2775L60.4547 15.2054C60.8152 13.2947 61.1757 11.4922 61.5001 10.0501C62.2572 6.87767 63.0143 3.48891 63.3748 1.47007ZM88.6483 15.0972C90.0182 9.58148 89.117 8.60811 86.99 8.60811C86.3411 8.60811 85.6921 8.64416 85.0432 8.68021C84.5025 10.663 83.9978 12.7539 83.457 14.8809C82.8802 17.1882 82.4476 18.9547 82.0871 20.4327C82.6999 20.4688 83.3128 20.4688 83.9617 20.4688C86.305 20.4688 87.4947 19.6757 88.6483 15.0972ZM75.8503 1.47007H89.4054C98.418 1.47007 102.275 4.71463 99.4635 15.9985C96.94 26.0567 92.8662 28.5081 83.8175 28.5081H69.1088C70.1543 24.6867 71.1277 20.7572 72.5697 15.0251C74.0117 9.29307 75.0211 5.14724 75.8503 1.47007ZM128.255 1.47007H138.638C136.186 5.29144 129.733 16.7556 127.714 20.1443C126.705 24.2902 126.02 27.4266 125.804 28.5442C123.929 28.472 121.009 28.436 118.81 28.436C116.647 28.436 113.691 28.472 111.852 28.5442C112.213 27.4266 113.078 24.2541 114.159 20.0722C113.979 16.4672 113.078 5.14724 112.465 1.47007H123.316C123.172 2.76789 122.92 6.22876 122.667 9.58148C122.523 11.3119 122.343 13.2587 122.235 14.8088H122.523C123.172 13.2587 123.965 11.348 124.722 9.61753C126.236 6.26481 127.786 2.76789 128.255 1.47007ZM163.101 15.8904C160.757 25.3356 155.963 28.9768 146.77 28.9768C135.306 28.9768 132.349 23.9297 134.945 13.2587C137.252 3.88546 142.444 1.00141 151.276 1.00141C162.019 1.00141 165.768 5.14724 163.101 15.8904ZM147.599 20.5769C149.51 20.5769 150.771 19.207 151.889 14.7007C153.042 10.1943 152.466 8.60811 150.303 8.60811C148.392 8.60811 147.094 9.86988 146.013 14.196C144.823 19.0989 145.436 20.5769 147.599 20.5769ZM184.905 1.47007H196.008C195.323 3.95757 194.639 6.40901 193.737 10.0501C193.124 12.5016 192.223 16.359 191.502 19.171C189.988 25.2996 186.275 28.9768 177.19 28.9768C165.293 28.9768 163.31 24.182 164.861 17.8371C165.437 15.5298 166.339 12.1771 166.879 10.0501C167.781 6.40901 168.322 3.95757 168.862 1.47007H180.182C178.884 6.15666 177.118 13.0063 176.108 17.1882C175.604 19.171 176.108 20.2525 178.091 20.2525C179.75 20.2525 180.579 19.3152 181.156 17.1882C182.165 13.0063 183.787 6.15666 184.905 1.47007ZM209.061 14.3041C210.719 14.3041 211.62 13.475 212.161 11.4561C212.846 8.64416 212.053 7.85104 210.142 7.85104C209.71 7.85104 208.808 7.88709 207.943 7.92314C207.438 10.0501 206.898 12.2132 206.393 14.2681C207.114 14.3041 208.015 14.3041 209.061 14.3041ZM198.967 1.47007H214.757C221.282 1.47007 224.563 4.53438 223.085 10.6269C222.003 14.9891 219.696 16.6835 214.937 17.2242L214.865 17.4766C218.578 17.9813 219.84 19.207 219.588 22.9923C219.552 24.7588 219.335 27.2103 219.335 28.5081H210.142C208.556 28.5081 208.232 27.9313 208.376 25.624C208.881 20.8653 208.7 19.928 206.79 19.928C206.069 19.928 205.78 19.928 205.095 19.9641C204.302 23.3889 203.689 26.4172 203.401 28.5081H192.225C193.271 24.6146 194.28 20.7572 195.722 14.9891C197.164 9.25702 198.101 5.36354 198.967 1.47007ZM236.706 1.47007H258.769C258.517 2.33528 258.12 3.84941 257.796 5.07514C257.472 6.37296 257.075 7.99525 256.895 8.89651C253.145 8.82441 249.144 8.82441 246.007 8.82441L245.358 11.4922C249.036 11.4922 252.893 11.4561 255.993 11.348C255.597 12.8621 254.768 16.0706 254.371 17.765C251.379 17.6568 247.485 17.5847 243.844 17.5847L243.159 20.3606C246.368 20.3606 250.622 20.3246 254.083 20.2885C253.758 21.334 253.326 23.0284 253.001 24.4704C252.641 25.8403 252.244 27.4266 252.028 28.5081H229.965C231.01 24.7228 232.056 20.7572 233.462 14.9891C234.904 9.25702 235.877 5.18329 236.706 1.47007ZM274.288 15.0972C275.658 9.58148 274.757 8.60811 272.63 8.60811C271.981 8.60811 271.332 8.64416 270.683 8.68021C270.143 10.663 269.638 12.7539 269.097 14.8809C268.52 17.1882 268.088 18.9547 267.727 20.4327C268.34 20.4688 268.953 20.4688 269.602 20.4688C271.945 20.4688 273.135 19.6757 274.288 15.0972ZM261.49 1.47007H275.045C284.058 1.47007 287.916 4.71463 285.104 15.9985C282.58 26.0567 278.506 28.5081 269.458 28.5081H254.749C255.794 24.6867 256.768 20.7572 258.21 15.0251C259.652 9.29307 260.661 5.14724 261.49 1.47007ZM303.72 1.00141C314.571 1.00141 316.986 5.11119 315.688 10.3746C315.616 10.699 315.472 11.0235 315.364 11.384C313.742 11.348 311.687 11.3119 309.632 11.3119C307.685 11.3119 305.774 11.3119 304.368 11.384C304.513 11.0235 304.585 10.6269 304.657 10.3025C305.125 8.49996 304.441 7.63474 302.782 7.63474C300.727 7.63474 299.466 9.32912 298.24 14.3402C296.87 19.892 297.158 21.8387 299.826 21.8387C301.412 21.8387 302.35 21.0456 303.143 18.8826C302.025 18.9186 300.872 18.9186 299.898 18.9547C300.078 18.3057 300.511 16.5393 300.655 15.8904C300.944 14.8449 301.196 13.8715 301.34 13.1505C303.611 13.2226 305.955 13.2226 307.649 13.2226C309.632 13.2226 312.227 13.2226 314.895 13.1505C312.696 24.6146 310.101 28.9768 298.6 28.9768C288.29 28.9768 284.396 24.5065 287.064 13.9797C289.552 4.06572 294.418 1.00141 303.72 1.00141ZM320.602 1.47007H342.665C342.412 2.33528 342.016 3.84941 341.691 5.07514C341.367 6.37296 340.97 7.99525 340.79 8.89651C337.041 8.82441 333.039 8.82441 329.903 8.82441L329.254 11.4922C332.931 11.4922 336.788 11.4561 339.889 11.348C339.492 12.8621 338.663 16.0706 338.267 17.765C335.274 17.6568 331.381 17.5847 327.74 17.5847L327.055 20.3606C330.263 20.3606 334.517 20.3246 337.978 20.2885C337.654 21.334 337.221 23.0284 336.897 24.4704C336.536 25.8403 336.14 27.4266 335.923 28.5081H313.86C314.906 24.7228 315.951 20.7572 317.357 14.9891C318.799 9.25702 319.773 5.18329 320.602 1.47007Z" stroke="white" stroke-width="2" mask="url(#path-1-outside-1_41_46)"/>
</svg>
