<svg width="309" height="30" viewBox="0 0 309 30" fill="none" xmlns="http://www.w3.org/2000/svg">
<mask id="path-1-outside-1_41_44" maskUnits="userSpaceOnUse" x="-0.662301" y="0" width="309.66" height="30.0641" fill="black">
<rect fill="white" x="-0.662301" width="309.66" height="30.0641"/>
<path d="M3.90343 1.47113H25.5496C25.1888 2.73383 24.6837 4.71806 24.2508 6.48583C23.7818 8.21752 23.2767 10.3461 22.9881 11.717C21.3286 11.6809 19.7051 11.6448 18.1177 11.6448C16.2057 19.4735 14.4379 26.7971 14.0771 28.5649C12.4897 28.4567 9.85613 28.4567 7.98013 28.4567C6.10413 28.4567 3.54266 28.4567 1.88313 28.5649C2.42428 26.7971 4.30028 19.4735 6.24843 11.6448C4.66105 11.6809 3.00151 11.6809 1.34197 11.717C1.73882 10.3461 2.2439 8.21752 2.7129 6.48583C3.14582 4.71806 3.6509 2.73383 3.90343 1.47113ZM37.2422 17.5254C37.5308 15.0721 37.7833 12.5107 37.9637 10.2378C37.9998 8.75867 38.1441 6.99091 38.2884 5.61998H38.108C37.5308 6.99091 36.8453 8.7226 36.1238 10.2739C35.1497 12.5468 34.1396 15.0721 33.2376 17.5254H37.2422ZM29.9186 1.47113H48.4982C48.2817 5.07883 47.4159 21.6742 47.5241 28.5288H35.5105C35.763 27.4826 36.0877 25.7509 36.4124 23.6584H30.9648C30.2433 25.7148 29.666 27.4465 29.3774 28.5288H17.7246C21.1158 21.7103 28.5116 5.00668 29.9186 1.47113ZM68.4918 12.4746C69.3577 9.15552 68.6722 8.21752 66.4715 8.21752C66.0747 8.21752 65.3171 8.21752 64.5955 8.2536C63.9101 11.0676 63.2246 13.7734 62.6474 16.2627C63.1164 16.2988 63.6575 16.2988 64.3069 16.2988C66.7962 16.2988 67.7703 15.469 68.4918 12.4746ZM55.6485 1.47113H69.5741C77.1503 1.47113 80.758 4.24906 78.5212 13.4126C76.7895 20.3394 73.7591 22.9008 64.8841 22.9008C63.8379 22.9008 62.467 22.9008 61.1321 22.8648C60.6631 25.0294 60.2663 26.9414 60.0138 28.5288H48.9021C49.9844 24.5964 50.9585 20.7723 52.4015 15C53.8446 9.26375 54.7826 5.29529 55.6485 1.47113ZM80.6374 18.4273C84.1368 18.4273 85.616 20.2311 84.6419 24.1635C83.8482 27.3744 81.7197 28.8535 78.9057 28.8535C75.5144 28.8535 74.0353 26.9775 75.0454 22.973C75.8391 19.8343 77.9316 18.4273 80.6374 18.4273ZM114.925 1.47113H125.316C122.862 5.29529 116.405 16.7678 114.384 20.159C113.374 24.3078 112.689 27.4465 112.472 28.5649C110.596 28.4928 107.674 28.4567 105.473 28.4567C103.309 28.4567 100.35 28.4928 98.5104 28.5649C98.8711 27.4465 99.737 24.2718 100.819 20.0868C100.639 16.4791 99.737 5.15098 99.1237 1.47113H109.983C109.839 2.7699 109.586 6.23329 109.333 9.58844C109.189 11.3201 109.009 13.2683 108.901 14.8196H109.189C109.839 13.2683 110.632 11.3562 111.39 9.62452C112.905 6.26937 114.456 2.7699 114.925 1.47113ZM149.796 15.9019C147.451 25.3541 142.653 28.9978 133.453 28.9978C121.981 28.9978 119.023 23.9471 121.62 13.2683C123.929 3.88829 129.124 1.00214 137.963 1.00214C148.714 1.00214 152.466 5.15098 149.796 15.9019ZM134.283 20.5919C136.195 20.5919 137.458 19.221 138.576 14.7114C139.731 10.2018 139.154 8.61437 136.989 8.61437C135.077 8.61437 133.778 9.87706 132.696 14.2063C131.505 19.1128 132.119 20.5919 134.283 20.5919ZM171.616 1.47113H182.728C182.043 3.96044 181.357 6.41367 180.455 10.0574C179.842 12.5107 178.94 16.3709 178.218 19.1849C176.703 25.318 172.987 28.9978 163.896 28.9978C151.99 28.9978 150.006 24.1996 151.558 17.8501C152.135 15.5411 153.037 12.186 153.578 10.0574C154.48 6.41367 155.021 3.96044 155.562 1.47113H166.89C165.591 6.16114 163.824 13.0158 162.814 17.2007C162.308 19.1849 162.814 20.2672 164.798 20.2672C166.457 20.2672 167.287 19.3292 167.864 17.2007C168.874 13.0158 170.498 6.16114 171.616 1.47113ZM185.508 1.47113C186.554 1.54329 188.394 1.57937 190.234 1.57937C191.785 1.57937 194.527 1.50721 195.826 1.47113C194.419 4.35729 190.09 13.5569 189.043 15.7937C186.915 15.5772 182.91 15.1082 180.926 15C182.081 12.2581 184.822 3.99652 185.508 1.47113ZM207.663 14.3145C209.322 14.3145 210.224 13.4848 210.765 11.4644C211.451 8.65044 210.657 7.85675 208.745 7.85675C208.312 7.85675 207.41 7.89283 206.544 7.9289C206.039 10.0574 205.498 12.2221 204.993 14.2784C205.715 14.3145 206.617 14.3145 207.663 14.3145ZM197.561 1.47113H213.363C219.893 1.47113 223.176 4.53767 221.697 10.6347C220.614 15 218.305 16.6956 213.543 17.2368L213.471 17.4893C217.187 17.9944 218.45 19.221 218.197 23.0091C218.161 24.7768 217.945 27.2301 217.945 28.5288H208.745C207.158 28.5288 206.833 27.9516 206.977 25.6427C207.482 20.8805 207.302 19.9425 205.39 19.9425C204.668 19.9425 204.38 19.9425 203.694 19.9786C202.901 23.4059 202.287 26.4364 201.999 28.5288H190.815C191.861 24.6325 192.871 20.7723 194.314 15C195.757 9.26375 196.695 5.36744 197.561 1.47113ZM226.591 1.47113H248.67C248.418 2.33698 248.021 3.85221 247.696 5.07883C247.371 6.3776 246.975 8.00106 246.794 8.90298C243.042 8.83083 239.038 8.83083 235.899 8.83083L235.25 11.5005C238.929 11.5005 242.79 11.4644 245.892 11.3562C245.495 12.8714 244.666 16.0823 244.269 17.7779C241.274 17.6697 237.378 17.5975 233.734 17.5975L233.049 20.3754C236.26 20.3754 240.517 20.3394 243.98 20.3033C243.655 21.3495 243.223 23.0451 242.898 24.4882C242.537 25.8591 242.14 27.4465 241.924 28.5288H219.845C220.891 24.7408 221.937 20.7723 223.344 15C224.787 9.26375 225.761 5.18706 226.591 1.47113ZM264.823 28.5288H253.314C254.397 24.6686 255.371 20.7362 256.778 15C258.221 9.26375 259.231 5.33137 260.061 1.47113H271.569C270.523 5.29529 269.549 9.22768 268.142 14.9639C266.699 20.7001 265.725 24.6325 264.823 28.5288ZM292.073 1.47113H301.561C300.875 3.81613 299.468 9.22768 298.061 14.9639C296.546 20.9888 295.5 25.1015 294.778 28.5288H283.342C282.981 26.3281 282.079 23.1534 281.286 20.2311C280.997 18.3912 280.781 16.5152 280.708 14.6392L280.564 14.6753C280.167 16.9481 279.734 18.9684 279.265 21.097C278.399 24.849 277.75 27.4104 277.57 28.5288H267.901C268.839 24.849 269.921 20.7723 271.328 15C272.771 9.26375 273.818 5.18706 274.647 1.47113H286.841C286.914 2.98637 287.96 7.38775 288.537 10.7068C288.754 12.0778 288.934 13.6291 289.006 15.2886L289.15 15.2164C289.511 13.3044 289.872 11.5005 290.197 10.0574C290.954 6.88267 291.712 3.49144 292.073 1.47113ZM303.511 18.4273C307.01 18.4273 308.49 20.2311 307.516 24.1635C306.722 27.3744 304.593 28.8535 301.779 28.8535C298.388 28.8535 296.909 26.9775 297.919 22.973C298.713 19.8343 300.805 18.4273 303.511 18.4273Z"/>
</mask>
<path d="M3.90343 1.47113H25.5496C25.1888 2.73383 24.6837 4.71806 24.2508 6.48583C23.7818 8.21752 23.2767 10.3461 22.9881 11.717C21.3286 11.6809 19.7051 11.6448 18.1177 11.6448C16.2057 19.4735 14.4379 26.7971 14.0771 28.5649C12.4897 28.4567 9.85613 28.4567 7.98013 28.4567C6.10413 28.4567 3.54266 28.4567 1.88313 28.5649C2.42428 26.7971 4.30028 19.4735 6.24843 11.6448C4.66105 11.6809 3.00151 11.6809 1.34197 11.717C1.73882 10.3461 2.2439 8.21752 2.7129 6.48583C3.14582 4.71806 3.6509 2.73383 3.90343 1.47113ZM37.2422 17.5254C37.5308 15.0721 37.7833 12.5107 37.9637 10.2378C37.9998 8.75867 38.1441 6.99091 38.2884 5.61998H38.108C37.5308 6.99091 36.8453 8.7226 36.1238 10.2739C35.1497 12.5468 34.1396 15.0721 33.2376 17.5254H37.2422ZM29.9186 1.47113H48.4982C48.2817 5.07883 47.4159 21.6742 47.5241 28.5288H35.5105C35.763 27.4826 36.0877 25.7509 36.4124 23.6584H30.9648C30.2433 25.7148 29.666 27.4465 29.3774 28.5288H17.7246C21.1158 21.7103 28.5116 5.00668 29.9186 1.47113ZM68.4918 12.4746C69.3577 9.15552 68.6722 8.21752 66.4715 8.21752C66.0747 8.21752 65.3171 8.21752 64.5955 8.2536C63.9101 11.0676 63.2246 13.7734 62.6474 16.2627C63.1164 16.2988 63.6575 16.2988 64.3069 16.2988C66.7962 16.2988 67.7703 15.469 68.4918 12.4746ZM55.6485 1.47113H69.5741C77.1503 1.47113 80.758 4.24906 78.5212 13.4126C76.7895 20.3394 73.7591 22.9008 64.8841 22.9008C63.8379 22.9008 62.467 22.9008 61.1321 22.8648C60.6631 25.0294 60.2663 26.9414 60.0138 28.5288H48.9021C49.9844 24.5964 50.9585 20.7723 52.4015 15C53.8446 9.26375 54.7826 5.29529 55.6485 1.47113ZM80.6374 18.4273C84.1368 18.4273 85.616 20.2311 84.6419 24.1635C83.8482 27.3744 81.7197 28.8535 78.9057 28.8535C75.5144 28.8535 74.0353 26.9775 75.0454 22.973C75.8391 19.8343 77.9316 18.4273 80.6374 18.4273ZM114.925 1.47113H125.316C122.862 5.29529 116.405 16.7678 114.384 20.159C113.374 24.3078 112.689 27.4465 112.472 28.5649C110.596 28.4928 107.674 28.4567 105.473 28.4567C103.309 28.4567 100.35 28.4928 98.5104 28.5649C98.8711 27.4465 99.737 24.2718 100.819 20.0868C100.639 16.4791 99.737 5.15098 99.1237 1.47113H109.983C109.839 2.7699 109.586 6.23329 109.333 9.58844C109.189 11.3201 109.009 13.2683 108.901 14.8196H109.189C109.839 13.2683 110.632 11.3562 111.39 9.62452C112.905 6.26937 114.456 2.7699 114.925 1.47113ZM149.796 15.9019C147.451 25.3541 142.653 28.9978 133.453 28.9978C121.981 28.9978 119.023 23.9471 121.62 13.2683C123.929 3.88829 129.124 1.00214 137.963 1.00214C148.714 1.00214 152.466 5.15098 149.796 15.9019ZM134.283 20.5919C136.195 20.5919 137.458 19.221 138.576 14.7114C139.731 10.2018 139.154 8.61437 136.989 8.61437C135.077 8.61437 133.778 9.87706 132.696 14.2063C131.505 19.1128 132.119 20.5919 134.283 20.5919ZM171.616 1.47113H182.728C182.043 3.96044 181.357 6.41367 180.455 10.0574C179.842 12.5107 178.94 16.3709 178.218 19.1849C176.703 25.318 172.987 28.9978 163.896 28.9978C151.99 28.9978 150.006 24.1996 151.558 17.8501C152.135 15.5411 153.037 12.186 153.578 10.0574C154.48 6.41367 155.021 3.96044 155.562 1.47113H166.89C165.591 6.16114 163.824 13.0158 162.814 17.2007C162.308 19.1849 162.814 20.2672 164.798 20.2672C166.457 20.2672 167.287 19.3292 167.864 17.2007C168.874 13.0158 170.498 6.16114 171.616 1.47113ZM185.508 1.47113C186.554 1.54329 188.394 1.57937 190.234 1.57937C191.785 1.57937 194.527 1.50721 195.826 1.47113C194.419 4.35729 190.09 13.5569 189.043 15.7937C186.915 15.5772 182.91 15.1082 180.926 15C182.081 12.2581 184.822 3.99652 185.508 1.47113ZM207.663 14.3145C209.322 14.3145 210.224 13.4848 210.765 11.4644C211.451 8.65044 210.657 7.85675 208.745 7.85675C208.312 7.85675 207.41 7.89283 206.544 7.9289C206.039 10.0574 205.498 12.2221 204.993 14.2784C205.715 14.3145 206.617 14.3145 207.663 14.3145ZM197.561 1.47113H213.363C219.893 1.47113 223.176 4.53767 221.697 10.6347C220.614 15 218.305 16.6956 213.543 17.2368L213.471 17.4893C217.187 17.9944 218.45 19.221 218.197 23.0091C218.161 24.7768 217.945 27.2301 217.945 28.5288H208.745C207.158 28.5288 206.833 27.9516 206.977 25.6427C207.482 20.8805 207.302 19.9425 205.39 19.9425C204.668 19.9425 204.38 19.9425 203.694 19.9786C202.901 23.4059 202.287 26.4364 201.999 28.5288H190.815C191.861 24.6325 192.871 20.7723 194.314 15C195.757 9.26375 196.695 5.36744 197.561 1.47113ZM226.591 1.47113H248.67C248.418 2.33698 248.021 3.85221 247.696 5.07883C247.371 6.3776 246.975 8.00106 246.794 8.90298C243.042 8.83083 239.038 8.83083 235.899 8.83083L235.25 11.5005C238.929 11.5005 242.79 11.4644 245.892 11.3562C245.495 12.8714 244.666 16.0823 244.269 17.7779C241.274 17.6697 237.378 17.5975 233.734 17.5975L233.049 20.3754C236.26 20.3754 240.517 20.3394 243.98 20.3033C243.655 21.3495 243.223 23.0451 242.898 24.4882C242.537 25.8591 242.14 27.4465 241.924 28.5288H219.845C220.891 24.7408 221.937 20.7723 223.344 15C224.787 9.26375 225.761 5.18706 226.591 1.47113ZM264.823 28.5288H253.314C254.397 24.6686 255.371 20.7362 256.778 15C258.221 9.26375 259.231 5.33137 260.061 1.47113H271.569C270.523 5.29529 269.549 9.22768 268.142 14.9639C266.699 20.7001 265.725 24.6325 264.823 28.5288ZM292.073 1.47113H301.561C300.875 3.81613 299.468 9.22768 298.061 14.9639C296.546 20.9888 295.5 25.1015 294.778 28.5288H283.342C282.981 26.3281 282.079 23.1534 281.286 20.2311C280.997 18.3912 280.781 16.5152 280.708 14.6392L280.564 14.6753C280.167 16.9481 279.734 18.9684 279.265 21.097C278.399 24.849 277.75 27.4104 277.57 28.5288H267.901C268.839 24.849 269.921 20.7723 271.328 15C272.771 9.26375 273.818 5.18706 274.647 1.47113H286.841C286.914 2.98637 287.96 7.38775 288.537 10.7068C288.754 12.0778 288.934 13.6291 289.006 15.2886L289.15 15.2164C289.511 13.3044 289.872 11.5005 290.197 10.0574C290.954 6.88267 291.712 3.49144 292.073 1.47113ZM303.511 18.4273C307.01 18.4273 308.49 20.2311 307.516 24.1635C306.722 27.3744 304.593 28.8535 301.779 28.8535C298.388 28.8535 296.909 26.9775 297.919 22.973C298.713 19.8343 300.805 18.4273 303.511 18.4273Z" stroke="white" stroke-width="2" mask="url(#path-1-outside-1_41_44)"/>
</svg>
