<svg preserveAspectRatio="none" width="100%" height="100%" overflow="visible" style="display: block;" viewBox="0 0 145 169" fill="none" xmlns="http://www.w3.org/2000/svg">
<g id="arrow drawing svg" clip-path="url(#clip0_0_21)">
<path id="Arrow 07" d="M92.0989 156.432C93.0945 156.307 93.4679 156.432 93.8413 156.307C116.617 142.604 132.05 123.171 137.899 97.0112C139.393 90.4089 139.144 83.5575 137.402 76.8307C133.792 62.3805 121.72 52.4148 106.909 51.5428C99.1929 51.0445 91.7255 51.9165 85.0047 56.1519C84.5069 59.7645 84.1335 63.377 83.3868 66.7404C82.1422 72.2216 79.2797 76.7061 74.1769 79.4467C70.4432 81.5644 66.7094 81.5644 64.7181 79.5713C62.1045 76.9553 62.1045 73.4673 63.7225 70.6021C65.9627 66.6159 68.7008 62.8787 71.5633 59.3907C73.4302 57.1485 75.9193 55.2799 78.1596 53.4113C76.0438 39.3348 62.7268 33.3554 46.7962 39.2102C46.2983 41.2034 45.8005 43.3211 45.1782 45.3142C42.689 52.6639 38.0841 58.2696 30.6167 60.8856C27.7541 61.8822 24.6427 62.2559 22.1535 59.6399C20.2866 57.6468 20.2866 54.1588 22.278 50.6708C25.5139 45.1896 30.3677 41.328 35.595 37.9645C37.4618 36.8434 39.3287 35.7223 41.1956 34.7257C38.7064 12.9258 19.1665 -2.52105 0 6.19892C0.124458 4.5795 -7.60373e-06 3.20922 0.497824 2.46179C1.12011 1.58979 2.48915 1.09151 3.60927 0.842367C14.1882 -1.15077 24.0204 0.0949386 32.1101 7.81834C38.2086 13.5486 42.3157 20.5246 45.0538 28.4971C45.4272 29.6183 45.8005 30.7394 46.2984 31.8606C46.2984 31.9851 46.5472 32.1097 47.0451 32.4834C48.1652 32.3588 49.5342 32.3588 50.9033 32.1097C67.5806 29.4937 76.2927 33.9783 84.0091 49.5496C85.5026 49.0514 87.245 48.5531 88.8629 47.9302C98.4462 44.6914 108.029 44.4422 117.737 47.6811C133.543 52.9131 143.749 66.4913 144.869 83.6821C145.491 93.0249 143.873 101.994 140.513 110.714C132.299 131.767 118.857 148.334 98.6951 159.172C97.6994 159.795 96.5793 160.293 95.5837 160.916C95.4592 161.041 95.3347 161.29 94.9614 162.037C99.1929 163.034 103.176 162.66 107.158 162.411C111.016 162.286 114.999 161.913 119.231 161.664C118.857 164.902 117.115 166.148 114.999 166.896C112.51 167.643 110.021 168.64 107.532 168.764C100.811 169.013 93.9657 169.138 87.1205 168.764C81.7688 168.39 80.2753 165.525 82.64 161.165C87.7428 151.947 92.97 142.729 98.1973 133.511C99.0685 132.016 100.189 130.77 101.558 129.026C103.922 131.767 102.927 133.76 102.055 135.628C98.5707 142.355 95.4592 149.082 92.0989 156.432ZM25.8872 55.9028C34.4748 54.7816 39.8265 49.3005 40.1999 41.5771C34.4748 45.3142 28.9987 48.6776 25.8872 55.9028ZM67.954 75.2113C75.297 73.4673 78.7819 68.4844 78.0351 60.8856C73.3057 64.8719 69.1986 68.609 67.954 75.2113Z" fill="var(--fill-0, white)"/>
</g>
<defs>
<clipPath id="clip0_0_21">
<rect width="145" height="169" fill="white"/>
</clipPath>
</defs>
</svg>
