<svg width="963" height="85" viewBox="0 0 963 85" fill="none" xmlns="http://www.w3.org/2000/svg">
<mask id="path-1-outside-1_41_30" maskUnits="userSpaceOnUse" x="-0.396729" y="0" width="964.002" height="85.0002" fill="black">
<rect fill="white" x="-0.396729" width="964.002" height="85.0002"/>
<path d="M22.1553 3.352H82.4755C81.4355 7.09601 79.8755 12.712 78.6275 17.496C77.5874 21.864 76.4434 26.7521 75.7154 29.9761C66.0434 29.8721 56.3714 29.7681 48.1554 29.7681L46.2834 37.2561L45.6594 39.6481C55.1234 39.6481 64.3794 39.5441 72.5954 39.2321C70.9314 45.1601 67.9154 57.2241 66.3554 63.5681C58.4514 63.4641 49.5074 63.3601 40.2514 63.2561C38.8994 69.2882 37.6514 75.3202 36.5074 81.3522H2.60328C5.51528 70.4322 8.53129 58.8881 12.6913 42.3521C16.7473 25.8161 19.6593 14.272 22.1553 3.352ZM101.035 81.3522H67.8594C70.9794 70.2242 73.7874 58.8881 77.8434 42.3521C82.0034 25.8161 84.9154 14.48 87.3074 3.352H120.483C117.467 14.376 114.659 25.7121 110.603 42.2481C106.443 58.7841 103.635 70.1202 101.035 81.3522ZM177.509 3.352H204.861C202.885 10.112 198.829 25.7121 194.773 42.2481C190.405 59.6161 187.389 71.4722 185.309 81.3522H152.341C151.301 75.0082 148.701 65.8561 146.413 57.4321C145.581 52.1281 144.957 46.7201 144.749 41.3121L144.333 41.4161C143.189 47.9681 141.941 53.7921 140.589 59.9281C138.093 70.7442 136.221 78.1282 135.701 81.3522H107.829C110.533 70.7442 113.653 58.9921 117.709 42.3521C121.869 25.8161 124.885 14.064 127.277 3.352H162.429C162.637 7.72002 165.653 20.408 167.317 29.9761C167.941 33.9281 168.461 38.4001 168.669 43.1841L169.085 42.9761C170.125 37.4641 171.165 32.2641 172.101 28.1041C174.285 18.952 176.469 9.17602 177.509 3.352ZM248.339 42.6641C252.291 26.7521 249.691 23.9441 243.555 23.9441C241.683 23.9441 239.811 24.0481 237.939 24.1521C236.379 29.8721 234.923 35.9041 233.363 42.0401C231.699 48.6961 230.451 53.7921 229.411 58.0561C231.179 58.1601 232.947 58.1601 234.819 58.1601C241.579 58.1601 245.011 55.8721 248.339 42.6641ZM211.419 3.352H250.523C276.523 3.352 287.651 12.712 279.539 45.2641C272.259 74.2802 260.507 81.3522 234.403 81.3522H191.971C194.987 70.3282 197.795 58.9921 201.955 42.4561C206.115 25.9201 209.027 13.96 211.419 3.352ZM358.438 3.352H388.39C381.318 14.376 362.702 47.4481 356.878 57.2241C353.966 69.1842 351.99 78.2322 351.366 81.4562C345.958 81.2482 337.534 81.1442 331.19 81.1442C324.95 81.1442 316.422 81.2482 311.118 81.4562C312.158 78.2322 314.654 69.0802 317.774 57.0161C317.254 46.6161 314.654 13.96 312.886 3.352H344.19C343.774 7.09601 343.046 17.08 342.318 26.7521C341.902 31.7441 341.382 37.3601 341.07 41.8321H341.902C343.774 37.3601 346.062 31.8481 348.246 26.8561C352.614 17.184 357.086 7.09601 358.438 3.352ZM456.881 44.9521C450.121 72.2002 436.289 82.7042 409.769 82.7042C376.697 82.7042 368.169 68.1442 375.657 37.3601C382.313 10.32 397.289 2 422.769 2C453.761 2 464.577 13.96 456.881 44.9521ZM412.161 58.4721C417.673 58.4721 421.313 54.5201 424.537 41.5201C427.865 28.5201 426.201 23.9441 419.961 23.9441C414.449 23.9441 410.705 27.5841 407.585 40.0641C404.153 54.2081 405.921 58.4721 412.161 58.4721ZM517.703 3.352H549.735C547.759 10.528 545.783 17.6 543.183 28.1041C541.415 35.1761 538.815 46.3041 536.735 54.4161C532.367 72.0962 521.655 82.7042 495.447 82.7042C461.127 82.7042 455.406 68.8722 459.879 50.5681C461.543 43.9121 464.143 34.2401 465.703 28.1041C468.303 17.6 469.863 10.528 471.423 3.352H504.079C500.335 16.872 495.239 36.6321 492.327 48.6961C490.871 54.4161 492.327 57.5361 498.047 57.5361C502.831 57.5361 505.223 54.8321 506.887 48.6961C509.799 36.6321 514.479 16.872 517.703 3.352ZM585.308 40.3761C590.092 40.3761 592.693 37.9841 594.253 32.1601C596.229 24.0481 593.941 21.76 588.428 21.76C587.18 21.76 584.58 21.864 582.084 21.968C580.628 28.1041 579.068 34.3441 577.612 40.2721C579.692 40.3761 582.292 40.3761 585.308 40.3761ZM556.188 3.352H601.741C620.565 3.352 630.029 12.192 625.765 29.7681C622.645 42.3521 615.989 47.2401 602.261 48.8001L602.053 49.5281C612.765 50.9841 616.405 54.5201 615.677 65.4401C615.573 70.5362 614.949 77.6082 614.949 81.3522H588.428C583.852 81.3522 582.916 79.6882 583.332 73.0322C584.788 59.3041 584.268 56.6001 578.756 56.6001C576.676 56.6001 575.844 56.6001 573.868 56.7041C571.58 66.5842 569.812 75.3202 568.98 81.3522H536.74C539.756 70.1202 542.668 58.9921 546.828 42.3521C550.988 25.8161 553.692 14.584 556.188 3.352ZM660.901 3.352H724.549C723.821 5.84801 722.677 10.216 721.741 13.752C720.805 17.496 719.661 22.176 719.141 24.7761C708.325 24.5681 696.781 24.5681 687.733 24.5681L685.861 32.2641C696.469 32.2641 707.597 32.1601 716.541 31.8481C715.397 36.2161 713.005 45.4721 711.861 50.3601C703.229 50.0481 691.997 49.8401 681.493 49.8401L679.517 57.8481C688.773 57.8481 701.045 57.7441 711.029 57.6401C710.093 60.6561 708.845 65.5442 707.909 69.7042C706.869 73.6562 705.725 78.2322 705.101 81.3522H641.453C644.469 70.4322 647.485 58.9921 651.541 42.3521C655.701 25.8161 658.509 14.064 660.901 3.352ZM767.239 42.6641C771.191 26.7521 768.591 23.9441 762.455 23.9441C760.583 23.9441 758.711 24.0481 756.839 24.1521C755.279 29.8721 753.823 35.9041 752.263 42.0401C750.599 48.6961 749.351 53.7921 748.311 58.0561C750.079 58.1601 751.847 58.1601 753.719 58.1601C760.479 58.1601 763.911 55.8721 767.239 42.6641ZM730.319 3.352H769.423C795.423 3.352 806.551 12.712 798.439 45.2641C791.159 74.2802 779.407 81.3522 753.303 81.3522H710.871C713.887 70.3282 716.695 58.9921 720.855 42.4561C725.015 25.9201 727.927 13.96 730.319 3.352ZM850.063 2C881.367 2 888.335 13.856 884.591 29.0401C884.383 29.9761 883.967 30.9121 883.655 31.9521C878.975 31.8481 873.047 31.7441 867.119 31.7441C861.503 31.7441 855.991 31.7441 851.935 31.9521C852.351 30.9121 852.559 29.7681 852.767 28.8321C854.119 23.6321 852.143 21.136 847.359 21.136C841.431 21.136 837.791 26.0241 834.255 40.4801C830.303 56.4961 831.135 62.1121 838.831 62.1121C843.407 62.1121 846.111 59.8241 848.399 53.5841C845.175 53.6881 841.847 53.6881 839.039 53.7921C839.559 51.9201 840.807 46.8241 841.223 44.9521C842.055 41.9361 842.783 39.1281 843.199 37.0481C849.751 37.2561 856.511 37.2561 861.399 37.2561C867.119 37.2561 874.607 37.2561 882.303 37.0481C875.959 70.1202 868.471 82.7042 835.295 82.7042C805.551 82.7042 794.319 69.8082 802.015 39.4401C809.191 10.84 823.231 2 850.063 2ZM896.685 3.352H960.333C959.605 5.84801 958.461 10.216 957.525 13.752C956.589 17.496 955.445 22.176 954.925 24.7761C944.109 24.5681 932.565 24.5681 923.517 24.5681L921.645 32.2641C932.253 32.2641 943.381 32.1601 952.325 31.8481C951.181 36.2161 948.789 45.4721 947.645 50.3601C939.013 50.0481 927.781 49.8401 917.277 49.8401L915.301 57.8481C924.557 57.8481 936.829 57.7441 946.813 57.6401C945.877 60.6561 944.629 65.5442 943.693 69.7042C942.653 73.6562 941.509 78.2322 940.885 81.3522H877.237C880.253 70.4322 883.269 58.9921 887.325 42.3521C891.485 25.8161 894.293 14.064 896.685 3.352Z"/>
</mask>
<path d="M22.1553 3.352H82.4755C81.4355 7.09601 79.8755 12.712 78.6275 17.496C77.5874 21.864 76.4434 26.7521 75.7154 29.9761C66.0434 29.8721 56.3714 29.7681 48.1554 29.7681L46.2834 37.2561L45.6594 39.6481C55.1234 39.6481 64.3794 39.5441 72.5954 39.2321C70.9314 45.1601 67.9154 57.2241 66.3554 63.5681C58.4514 63.4641 49.5074 63.3601 40.2514 63.2561C38.8994 69.2882 37.6514 75.3202 36.5074 81.3522H2.60328C5.51528 70.4322 8.53129 58.8881 12.6913 42.3521C16.7473 25.8161 19.6593 14.272 22.1553 3.352ZM101.035 81.3522H67.8594C70.9794 70.2242 73.7874 58.8881 77.8434 42.3521C82.0034 25.8161 84.9154 14.48 87.3074 3.352H120.483C117.467 14.376 114.659 25.7121 110.603 42.2481C106.443 58.7841 103.635 70.1202 101.035 81.3522ZM177.509 3.352H204.861C202.885 10.112 198.829 25.7121 194.773 42.2481C190.405 59.6161 187.389 71.4722 185.309 81.3522H152.341C151.301 75.0082 148.701 65.8561 146.413 57.4321C145.581 52.1281 144.957 46.7201 144.749 41.3121L144.333 41.4161C143.189 47.9681 141.941 53.7921 140.589 59.9281C138.093 70.7442 136.221 78.1282 135.701 81.3522H107.829C110.533 70.7442 113.653 58.9921 117.709 42.3521C121.869 25.8161 124.885 14.064 127.277 3.352H162.429C162.637 7.72002 165.653 20.408 167.317 29.9761C167.941 33.9281 168.461 38.4001 168.669 43.1841L169.085 42.9761C170.125 37.4641 171.165 32.2641 172.101 28.1041C174.285 18.952 176.469 9.17602 177.509 3.352ZM248.339 42.6641C252.291 26.7521 249.691 23.9441 243.555 23.9441C241.683 23.9441 239.811 24.0481 237.939 24.1521C236.379 29.8721 234.923 35.9041 233.363 42.0401C231.699 48.6961 230.451 53.7921 229.411 58.0561C231.179 58.1601 232.947 58.1601 234.819 58.1601C241.579 58.1601 245.011 55.8721 248.339 42.6641ZM211.419 3.352H250.523C276.523 3.352 287.651 12.712 279.539 45.2641C272.259 74.2802 260.507 81.3522 234.403 81.3522H191.971C194.987 70.3282 197.795 58.9921 201.955 42.4561C206.115 25.9201 209.027 13.96 211.419 3.352ZM358.438 3.352H388.39C381.318 14.376 362.702 47.4481 356.878 57.2241C353.966 69.1842 351.99 78.2322 351.366 81.4562C345.958 81.2482 337.534 81.1442 331.19 81.1442C324.95 81.1442 316.422 81.2482 311.118 81.4562C312.158 78.2322 314.654 69.0802 317.774 57.0161C317.254 46.6161 314.654 13.96 312.886 3.352H344.19C343.774 7.09601 343.046 17.08 342.318 26.7521C341.902 31.7441 341.382 37.3601 341.07 41.8321H341.902C343.774 37.3601 346.062 31.8481 348.246 26.8561C352.614 17.184 357.086 7.09601 358.438 3.352ZM456.881 44.9521C450.121 72.2002 436.289 82.7042 409.769 82.7042C376.697 82.7042 368.169 68.1442 375.657 37.3601C382.313 10.32 397.289 2 422.769 2C453.761 2 464.577 13.96 456.881 44.9521ZM412.161 58.4721C417.673 58.4721 421.313 54.5201 424.537 41.5201C427.865 28.5201 426.201 23.9441 419.961 23.9441C414.449 23.9441 410.705 27.5841 407.585 40.0641C404.153 54.2081 405.921 58.4721 412.161 58.4721ZM517.703 3.352H549.735C547.759 10.528 545.783 17.6 543.183 28.1041C541.415 35.1761 538.815 46.3041 536.735 54.4161C532.367 72.0962 521.655 82.7042 495.447 82.7042C461.127 82.7042 455.406 68.8722 459.879 50.5681C461.543 43.9121 464.143 34.2401 465.703 28.1041C468.303 17.6 469.863 10.528 471.423 3.352H504.079C500.335 16.872 495.239 36.6321 492.327 48.6961C490.871 54.4161 492.327 57.5361 498.047 57.5361C502.831 57.5361 505.223 54.8321 506.887 48.6961C509.799 36.6321 514.479 16.872 517.703 3.352ZM585.308 40.3761C590.092 40.3761 592.693 37.9841 594.253 32.1601C596.229 24.0481 593.941 21.76 588.428 21.76C587.18 21.76 584.58 21.864 582.084 21.968C580.628 28.1041 579.068 34.3441 577.612 40.2721C579.692 40.3761 582.292 40.3761 585.308 40.3761ZM556.188 3.352H601.741C620.565 3.352 630.029 12.192 625.765 29.7681C622.645 42.3521 615.989 47.2401 602.261 48.8001L602.053 49.5281C612.765 50.9841 616.405 54.5201 615.677 65.4401C615.573 70.5362 614.949 77.6082 614.949 81.3522H588.428C583.852 81.3522 582.916 79.6882 583.332 73.0322C584.788 59.3041 584.268 56.6001 578.756 56.6001C576.676 56.6001 575.844 56.6001 573.868 56.7041C571.58 66.5842 569.812 75.3202 568.98 81.3522H536.74C539.756 70.1202 542.668 58.9921 546.828 42.3521C550.988 25.8161 553.692 14.584 556.188 3.352ZM660.901 3.352H724.549C723.821 5.84801 722.677 10.216 721.741 13.752C720.805 17.496 719.661 22.176 719.141 24.7761C708.325 24.5681 696.781 24.5681 687.733 24.5681L685.861 32.2641C696.469 32.2641 707.597 32.1601 716.541 31.8481C715.397 36.2161 713.005 45.4721 711.861 50.3601C703.229 50.0481 691.997 49.8401 681.493 49.8401L679.517 57.8481C688.773 57.8481 701.045 57.7441 711.029 57.6401C710.093 60.6561 708.845 65.5442 707.909 69.7042C706.869 73.6562 705.725 78.2322 705.101 81.3522H641.453C644.469 70.4322 647.485 58.9921 651.541 42.3521C655.701 25.8161 658.509 14.064 660.901 3.352ZM767.239 42.6641C771.191 26.7521 768.591 23.9441 762.455 23.9441C760.583 23.9441 758.711 24.0481 756.839 24.1521C755.279 29.8721 753.823 35.9041 752.263 42.0401C750.599 48.6961 749.351 53.7921 748.311 58.0561C750.079 58.1601 751.847 58.1601 753.719 58.1601C760.479 58.1601 763.911 55.8721 767.239 42.6641ZM730.319 3.352H769.423C795.423 3.352 806.551 12.712 798.439 45.2641C791.159 74.2802 779.407 81.3522 753.303 81.3522H710.871C713.887 70.3282 716.695 58.9921 720.855 42.4561C725.015 25.9201 727.927 13.96 730.319 3.352ZM850.063 2C881.367 2 888.335 13.856 884.591 29.0401C884.383 29.9761 883.967 30.9121 883.655 31.9521C878.975 31.8481 873.047 31.7441 867.119 31.7441C861.503 31.7441 855.991 31.7441 851.935 31.9521C852.351 30.9121 852.559 29.7681 852.767 28.8321C854.119 23.6321 852.143 21.136 847.359 21.136C841.431 21.136 837.791 26.0241 834.255 40.4801C830.303 56.4961 831.135 62.1121 838.831 62.1121C843.407 62.1121 846.111 59.8241 848.399 53.5841C845.175 53.6881 841.847 53.6881 839.039 53.7921C839.559 51.9201 840.807 46.8241 841.223 44.9521C842.055 41.9361 842.783 39.1281 843.199 37.0481C849.751 37.2561 856.511 37.2561 861.399 37.2561C867.119 37.2561 874.607 37.2561 882.303 37.0481C875.959 70.1202 868.471 82.7042 835.295 82.7042C805.551 82.7042 794.319 69.8082 802.015 39.4401C809.191 10.84 823.231 2 850.063 2ZM896.685 3.352H960.333C959.605 5.84801 958.461 10.216 957.525 13.752C956.589 17.496 955.445 22.176 954.925 24.7761C944.109 24.5681 932.565 24.5681 923.517 24.5681L921.645 32.2641C932.253 32.2641 943.381 32.1601 952.325 31.8481C951.181 36.2161 948.789 45.4721 947.645 50.3601C939.013 50.0481 927.781 49.8401 917.277 49.8401L915.301 57.8481C924.557 57.8481 936.829 57.7441 946.813 57.6401C945.877 60.6561 944.629 65.5442 943.693 69.7042C942.653 73.6562 941.509 78.2322 940.885 81.3522H877.237C880.253 70.4322 883.269 58.9921 887.325 42.3521C891.485 25.8161 894.293 14.064 896.685 3.352Z" stroke="white" stroke-width="4" mask="url(#path-1-outside-1_41_30)"/>
</svg>
