<svg width="1375" height="85" viewBox="0 0 1375 85" fill="none" xmlns="http://www.w3.org/2000/svg">
<mask id="path-1-outside-1_41_31" maskUnits="userSpaceOnUse" x="-0.375496" y="0" width="1375.92" height="85.0571" fill="black">
<rect fill="white" x="-0.375496" width="1375.92" height="85.0571"/>
<path d="M59.1365 35.1996C61.6342 25.6252 59.6568 22.9194 53.3086 22.9194C52.1638 22.9194 49.9783 22.9194 47.8969 23.0235C45.9196 31.1409 43.9423 38.9462 42.2772 46.127C43.6301 46.2311 45.1911 46.2311 47.0644 46.2311C54.2452 46.2311 57.0551 43.8374 59.1365 35.1996ZM22.0876 3.45832H62.2586C84.1133 3.45832 94.5202 11.4717 88.0679 37.9055C83.0726 57.8869 74.3307 65.2759 48.7295 65.2759C45.7115 65.2759 41.7568 65.2759 37.9062 65.1718C36.5533 71.416 35.4085 76.9317 34.6801 81.5108H2.62652C5.74862 70.1671 8.55851 59.1357 12.7213 42.4845C16.8841 25.9374 19.5899 14.4897 22.0876 3.45832ZM100.294 3.45832H134.221C132.66 9.0781 128.289 25.7293 124.022 42.5886C123.19 45.9188 122.357 49.2491 121.629 52.4753C127.145 52.4753 133.805 52.3712 140.257 52.163C139.009 56.9503 137.656 61.9456 136.511 66.7328C135.262 71.7282 134.013 76.6195 132.868 81.5108H80.8334C82.4985 75.3706 86.8695 59.1357 90.9282 42.4845C95.2991 25.313 98.8375 10.9514 100.294 3.45832ZM188.315 49.7694C189.147 42.6927 189.876 35.3037 190.396 28.7473C190.5 24.4804 190.917 19.381 191.333 15.4264H190.813C189.147 19.381 187.17 24.3764 185.089 28.8514C182.279 35.4078 179.365 42.6927 176.763 49.7694H188.315ZM167.189 3.45832H220.785C220.16 13.8653 217.663 61.7375 217.975 81.5108H183.32C184.048 78.4927 184.985 73.4974 185.921 67.4613H170.207C168.125 73.3933 166.46 78.3887 165.628 81.5108H132.013C141.796 61.8415 163.13 13.6572 167.189 3.45832ZM274.138 3.45832H304.111C297.034 14.4897 278.405 47.584 272.577 57.3665C269.663 69.3346 267.686 78.3887 267.062 81.6148C261.65 81.4067 253.22 81.3026 246.872 81.3026C240.628 81.3026 232.094 81.4067 226.787 81.6148C227.827 78.3887 230.325 69.2305 233.447 57.1584C232.927 46.7514 230.325 14.0735 228.556 3.45832H259.881C259.465 7.20484 258.736 17.1956 258.008 26.8741C257.591 31.8694 257.071 37.4892 256.759 41.9642H257.591C259.465 37.4892 261.754 31.9735 263.94 26.9781C268.311 17.2996 272.785 7.20484 274.138 3.45832ZM411.286 3.45832H436.887C428.146 22.5031 408.06 71.52 404.001 81.5108C399.735 81.5108 393.282 81.3026 386.101 81.3026C375.903 81.3026 369.242 81.4067 366.536 81.5108C367.161 76.5154 368.722 64.6514 370.283 52.7875C371.219 46.9595 372.26 40.0909 373.301 33.7427H372.676C370.491 40.2991 368.201 47.3758 366.016 52.9956C361.645 64.4433 357.066 76.2032 355.089 81.5108C351.238 81.5108 344.057 81.3026 336.668 81.3026C327.406 81.3026 321.786 81.4067 319.184 81.5108C320.121 70.0631 324.492 22.399 325.012 3.45832H355.921C354.88 8.55775 351.55 28.4351 349.677 42.2764C349.157 46.127 348.532 50.4979 348.116 54.2444H348.74C350.093 50.3939 351.654 46.0229 353.215 42.0683C358.523 28.1229 365.287 9.91066 367.161 3.45832C371.115 3.45832 379.337 3.66647 383.916 3.66647C388.391 3.66647 396.3 3.45832 400.151 3.45832C399.006 9.18217 395.676 28.331 393.907 42.2764C393.49 46.4392 392.866 50.8101 392.45 54.4526H392.97C394.323 50.7061 395.884 46.3351 397.445 42.2764C402.753 28.1229 409.205 10.0147 411.286 3.45832ZM485.605 3.45832H518.075C515.057 14.4897 512.039 25.9374 507.876 42.4845C503.817 59.0317 501.112 70.1671 498.614 81.5108H466.144C468.121 74.3299 470.723 64.2352 472.909 55.4933C470.723 55.3892 468.226 55.3892 465.728 55.3892C463.23 55.3892 460.837 55.3892 458.547 55.4933C456.362 64.2352 453.864 74.3299 452.303 81.5108H419.937C423.059 70.2712 425.869 59.0317 429.928 42.4845C434.091 25.9374 436.9 14.4897 439.398 3.45832H471.764C469.787 10.5351 467.185 20.838 464.895 29.788C467.185 29.8921 469.578 29.8921 472.076 29.8921C474.574 29.8921 477.071 29.8921 479.361 29.788C481.546 20.838 484.044 10.5351 485.605 3.45832ZM557.194 49.7694C558.026 42.6927 558.755 35.3037 559.275 28.7473C559.379 24.4804 559.796 19.381 560.212 15.4264H559.692C558.026 19.381 556.049 24.3764 553.968 28.8514C551.158 35.4078 548.244 42.6927 545.642 49.7694H557.194ZM536.068 3.45832H589.664C589.039 13.8653 586.542 61.7375 586.854 81.5108H552.199C552.927 78.4927 553.864 73.4974 554.8 67.4613H539.086C537.004 73.3933 535.339 78.3887 534.507 81.5108H500.892C510.675 61.8415 532.009 13.6572 536.068 3.45832ZM601.123 3.45832H663.565C662.524 7.10077 661.067 12.8246 659.818 17.924C658.465 22.9194 657.008 29.0595 656.176 33.0142C651.389 32.9101 646.705 32.806 642.126 32.806C636.611 55.3892 631.511 76.5154 630.47 81.6148C625.891 81.3026 618.294 81.3026 612.883 81.3026C607.471 81.3026 600.082 81.3026 595.295 81.6148C596.856 76.5154 602.268 55.3892 607.887 32.806C603.308 32.9101 598.521 32.9101 593.734 33.0142C594.879 29.0595 596.336 22.9194 597.688 17.924C598.937 12.8246 600.394 7.10077 601.123 3.45832ZM666.689 3.45832C669.707 3.66647 675.015 3.77053 680.322 3.77053C684.797 3.77053 692.707 3.5624 696.453 3.45832C692.395 11.7839 679.906 38.3217 676.888 44.7741C670.748 44.1497 659.196 42.7968 653.472 42.4845C656.803 34.5752 664.712 10.7432 666.689 3.45832ZM714.822 64.5474C719.609 64.5474 721.482 63.5067 722.315 60.1764C723.459 55.5973 722.106 52.9956 711.387 51.1223C690.469 47.3758 686.931 38.738 690.365 25.313C694.424 8.66182 704.623 2.00134 729.287 2.00134C757.698 2.00134 765.087 10.1188 761.757 23.5438C761.341 25.1049 760.821 26.8741 760.3 28.7473C756.241 28.331 749.269 28.0188 743.649 28.0188C740.111 28.0188 736.884 28.0188 734.803 28.227C735.115 27.3944 735.219 26.6659 735.427 26.1456C736.364 22.5031 735.323 20.3177 729.287 20.3177C724.604 20.3177 722.523 21.6706 721.794 24.4804C720.754 28.5392 721.586 30.9328 733.554 33.3264C752.599 37.3851 757.594 44.3578 753.744 59.8642C749.685 76.0991 741.359 82.9677 715.342 82.9677C686.306 82.9677 678.189 75.0584 681.727 60.9049C682.144 59.2398 682.664 57.2625 683.288 55.2851C687.972 55.5973 694.736 56.1177 701.188 56.1177C704.311 56.1177 707.224 56.0136 709.202 55.9096C708.994 56.638 708.786 57.3665 708.577 57.991C707.537 62.2578 708.786 64.5474 714.822 64.5474ZM791.79 3.45832H854.232C853.191 7.10077 851.734 12.8246 850.486 17.924C849.133 22.9194 847.676 29.0595 846.843 33.0142C842.056 32.9101 837.373 32.806 832.794 32.806C827.278 55.3892 822.179 76.5154 821.138 81.6148C816.559 81.3026 808.962 81.3026 803.55 81.3026C798.138 81.3026 790.75 81.3026 785.962 81.6148C787.523 76.5154 792.935 55.3892 798.555 32.806C793.976 32.9101 789.188 32.9101 784.401 33.0142C785.546 29.0595 787.003 22.9194 788.356 17.924C789.605 12.8246 791.062 7.10077 791.79 3.45832ZM887.017 40.5072C891.804 40.5072 894.406 38.1136 895.967 32.2857C897.944 24.1682 895.654 21.8787 890.139 21.8787C888.89 21.8787 886.288 21.9828 883.79 22.0868C882.334 28.227 880.772 34.4712 879.315 40.4031C881.397 40.5072 883.999 40.5072 887.017 40.5072ZM857.877 3.45832H903.46C922.296 3.45832 931.767 12.3043 927.5 29.8921C924.378 42.4845 917.717 47.3758 903.98 48.9369L903.772 49.6654C914.491 51.1223 918.134 54.6607 917.405 65.5881C917.301 70.6875 916.677 77.7642 916.677 81.5108H890.139C885.56 81.5108 884.623 79.8456 885.039 73.1852C886.496 59.4479 885.976 56.7421 880.46 56.7421C878.379 56.7421 877.546 56.7421 875.569 56.8462C873.279 66.7328 871.51 75.4747 870.678 81.5108H838.416C841.434 70.2712 844.348 59.1357 848.511 42.4845C852.674 25.9374 855.379 14.6979 857.877 3.45832ZM939.537 3.45832H1003.23C1002.5 5.95601 1001.35 10.3269 1000.42 13.8653C999.481 17.6118 998.336 22.295 997.816 24.8967C986.993 24.6886 975.441 24.6886 966.387 24.6886L964.514 32.3898C975.129 32.3898 986.264 32.2857 995.214 31.9735C994.07 36.3444 991.676 45.6066 990.531 50.4979C981.893 50.1857 970.654 49.9776 960.143 49.9776L958.166 57.991C967.428 57.991 979.708 57.8869 989.699 57.7828C988.762 60.8008 987.513 65.6921 986.577 69.8549C985.536 73.8096 984.391 78.3887 983.767 81.5108H920.076C923.094 70.5834 926.112 59.1357 930.171 42.4845C934.333 25.9374 937.143 14.1775 939.537 3.45832ZM1059.48 3.45832H1086.85C1084.87 10.2229 1080.81 25.8334 1076.75 42.3805C1072.38 59.7601 1069.36 71.6241 1067.28 81.5108H1034.29C1033.25 75.1625 1030.65 66.0043 1028.36 57.5747C1027.53 52.2671 1026.9 46.8555 1026.69 41.4438L1026.28 41.5479C1025.13 48.1043 1023.88 53.9322 1022.53 60.0724C1020.03 70.8956 1018.16 78.2846 1017.64 81.5108H989.748C992.454 70.8956 995.576 59.1357 999.635 42.4845C1003.8 25.9374 1006.82 14.1775 1009.21 3.45832H1044.38C1044.59 7.82926 1047.61 20.5258 1049.28 30.1002C1049.9 34.0549 1050.42 38.5299 1050.63 43.3171L1051.05 43.109C1052.09 37.5933 1053.13 32.3898 1054.06 28.227C1056.25 19.0688 1058.43 9.28624 1059.48 3.45832ZM1130.35 42.7968C1134.31 26.8741 1131.71 24.0642 1125.57 24.0642C1123.69 24.0642 1121.82 24.1682 1119.95 24.2723C1118.38 29.9962 1116.93 36.0322 1115.37 42.1723C1113.7 48.8328 1112.45 53.9322 1111.41 58.1991C1113.18 58.3032 1114.95 58.3032 1116.82 58.3032C1123.59 58.3032 1127.02 56.0136 1130.35 42.7968ZM1093.41 3.45832H1132.54C1158.56 3.45832 1169.69 12.8246 1161.57 45.3985C1154.29 74.434 1142.53 81.5108 1116.41 81.5108H1073.95C1076.96 70.4793 1079.77 59.1357 1083.94 42.5886C1088.1 26.0415 1091.01 14.0735 1093.41 3.45832ZM1190.23 81.5108H1157.03C1160.16 70.3753 1162.97 59.0317 1167.02 42.4845C1171.19 25.9374 1174.1 14.5938 1176.5 3.45832H1209.69C1206.68 14.4897 1203.87 25.8334 1199.81 42.3805C1195.64 58.9276 1192.83 70.2712 1190.23 81.5108ZM1266.76 3.45832H1294.13C1292.15 10.2229 1288.09 25.8334 1284.03 42.3805C1279.66 59.7601 1276.64 71.6241 1274.56 81.5108H1241.57C1240.53 75.1625 1237.93 66.0043 1235.64 57.5747C1234.81 52.2671 1234.18 46.8555 1233.98 41.4438L1233.56 41.5479C1232.41 48.1043 1231.17 53.9322 1229.81 60.0724C1227.31 70.8956 1225.44 78.2846 1224.92 81.5108H1197.03C1199.74 70.8956 1202.86 59.1357 1206.92 42.4845C1211.08 25.9374 1214.1 14.1775 1216.49 3.45832H1251.67C1251.88 7.82926 1254.89 20.5258 1256.56 30.1002C1257.18 34.0549 1257.7 38.5299 1257.91 43.3171L1258.33 43.109C1259.37 37.5933 1260.41 32.3898 1261.35 28.227C1263.53 19.0688 1265.72 9.28624 1266.76 3.45832ZM1337.53 2.10542C1368.86 2.10542 1375.83 13.9694 1372.08 29.1636C1371.87 30.1002 1371.46 31.0369 1371.14 32.0775C1366.46 31.9735 1360.53 31.8694 1354.6 31.8694C1348.98 31.8694 1343.46 31.8694 1339.4 32.0775C1339.82 31.0369 1340.03 29.8921 1340.24 28.9555C1341.59 23.752 1339.61 21.2543 1334.82 21.2543C1328.89 21.2543 1325.25 26.1456 1321.71 40.6113C1317.76 56.638 1318.59 62.2578 1326.29 62.2578C1330.87 62.2578 1333.58 59.9683 1335.87 53.7241C1332.64 53.8282 1329.31 53.8282 1326.5 53.9322C1327.02 52.059 1328.27 46.9595 1328.68 45.0863C1329.52 42.0683 1330.25 39.2584 1330.66 37.177C1337.22 37.3851 1343.98 37.3851 1348.87 37.3851C1354.6 37.3851 1362.09 37.3851 1369.79 37.177C1363.44 70.2712 1355.95 82.8637 1322.75 82.8637C1292.99 82.8637 1281.75 69.959 1289.45 39.5706C1296.63 10.9514 1310.68 2.10542 1337.53 2.10542Z"/>
</mask>
<path d="M59.1365 35.1996C61.6342 25.6252 59.6568 22.9194 53.3086 22.9194C52.1638 22.9194 49.9783 22.9194 47.8969 23.0235C45.9196 31.1409 43.9423 38.9462 42.2772 46.127C43.6301 46.2311 45.1911 46.2311 47.0644 46.2311C54.2452 46.2311 57.0551 43.8374 59.1365 35.1996ZM22.0876 3.45832H62.2586C84.1133 3.45832 94.5202 11.4717 88.0679 37.9055C83.0726 57.8869 74.3307 65.2759 48.7295 65.2759C45.7115 65.2759 41.7568 65.2759 37.9062 65.1718C36.5533 71.416 35.4085 76.9317 34.6801 81.5108H2.62652C5.74862 70.1671 8.55851 59.1357 12.7213 42.4845C16.8841 25.9374 19.5899 14.4897 22.0876 3.45832ZM100.294 3.45832H134.221C132.66 9.0781 128.289 25.7293 124.022 42.5886C123.19 45.9188 122.357 49.2491 121.629 52.4753C127.145 52.4753 133.805 52.3712 140.257 52.163C139.009 56.9503 137.656 61.9456 136.511 66.7328C135.262 71.7282 134.013 76.6195 132.868 81.5108H80.8334C82.4985 75.3706 86.8695 59.1357 90.9282 42.4845C95.2991 25.313 98.8375 10.9514 100.294 3.45832ZM188.315 49.7694C189.147 42.6927 189.876 35.3037 190.396 28.7473C190.5 24.4804 190.917 19.381 191.333 15.4264H190.813C189.147 19.381 187.17 24.3764 185.089 28.8514C182.279 35.4078 179.365 42.6927 176.763 49.7694H188.315ZM167.189 3.45832H220.785C220.16 13.8653 217.663 61.7375 217.975 81.5108H183.32C184.048 78.4927 184.985 73.4974 185.921 67.4613H170.207C168.125 73.3933 166.46 78.3887 165.628 81.5108H132.013C141.796 61.8415 163.13 13.6572 167.189 3.45832ZM274.138 3.45832H304.111C297.034 14.4897 278.405 47.584 272.577 57.3665C269.663 69.3346 267.686 78.3887 267.062 81.6148C261.65 81.4067 253.22 81.3026 246.872 81.3026C240.628 81.3026 232.094 81.4067 226.787 81.6148C227.827 78.3887 230.325 69.2305 233.447 57.1584C232.927 46.7514 230.325 14.0735 228.556 3.45832H259.881C259.465 7.20484 258.736 17.1956 258.008 26.8741C257.591 31.8694 257.071 37.4892 256.759 41.9642H257.591C259.465 37.4892 261.754 31.9735 263.94 26.9781C268.311 17.2996 272.785 7.20484 274.138 3.45832ZM411.286 3.45832H436.887C428.146 22.5031 408.06 71.52 404.001 81.5108C399.735 81.5108 393.282 81.3026 386.101 81.3026C375.903 81.3026 369.242 81.4067 366.536 81.5108C367.161 76.5154 368.722 64.6514 370.283 52.7875C371.219 46.9595 372.26 40.0909 373.301 33.7427H372.676C370.491 40.2991 368.201 47.3758 366.016 52.9956C361.645 64.4433 357.066 76.2032 355.089 81.5108C351.238 81.5108 344.057 81.3026 336.668 81.3026C327.406 81.3026 321.786 81.4067 319.184 81.5108C320.121 70.0631 324.492 22.399 325.012 3.45832H355.921C354.88 8.55775 351.55 28.4351 349.677 42.2764C349.157 46.127 348.532 50.4979 348.116 54.2444H348.74C350.093 50.3939 351.654 46.0229 353.215 42.0683C358.523 28.1229 365.287 9.91066 367.161 3.45832C371.115 3.45832 379.337 3.66647 383.916 3.66647C388.391 3.66647 396.3 3.45832 400.151 3.45832C399.006 9.18217 395.676 28.331 393.907 42.2764C393.49 46.4392 392.866 50.8101 392.45 54.4526H392.97C394.323 50.7061 395.884 46.3351 397.445 42.2764C402.753 28.1229 409.205 10.0147 411.286 3.45832ZM485.605 3.45832H518.075C515.057 14.4897 512.039 25.9374 507.876 42.4845C503.817 59.0317 501.112 70.1671 498.614 81.5108H466.144C468.121 74.3299 470.723 64.2352 472.909 55.4933C470.723 55.3892 468.226 55.3892 465.728 55.3892C463.23 55.3892 460.837 55.3892 458.547 55.4933C456.362 64.2352 453.864 74.3299 452.303 81.5108H419.937C423.059 70.2712 425.869 59.0317 429.928 42.4845C434.091 25.9374 436.9 14.4897 439.398 3.45832H471.764C469.787 10.5351 467.185 20.838 464.895 29.788C467.185 29.8921 469.578 29.8921 472.076 29.8921C474.574 29.8921 477.071 29.8921 479.361 29.788C481.546 20.838 484.044 10.5351 485.605 3.45832ZM557.194 49.7694C558.026 42.6927 558.755 35.3037 559.275 28.7473C559.379 24.4804 559.796 19.381 560.212 15.4264H559.692C558.026 19.381 556.049 24.3764 553.968 28.8514C551.158 35.4078 548.244 42.6927 545.642 49.7694H557.194ZM536.068 3.45832H589.664C589.039 13.8653 586.542 61.7375 586.854 81.5108H552.199C552.927 78.4927 553.864 73.4974 554.8 67.4613H539.086C537.004 73.3933 535.339 78.3887 534.507 81.5108H500.892C510.675 61.8415 532.009 13.6572 536.068 3.45832ZM601.123 3.45832H663.565C662.524 7.10077 661.067 12.8246 659.818 17.924C658.465 22.9194 657.008 29.0595 656.176 33.0142C651.389 32.9101 646.705 32.806 642.126 32.806C636.611 55.3892 631.511 76.5154 630.47 81.6148C625.891 81.3026 618.294 81.3026 612.883 81.3026C607.471 81.3026 600.082 81.3026 595.295 81.6148C596.856 76.5154 602.268 55.3892 607.887 32.806C603.308 32.9101 598.521 32.9101 593.734 33.0142C594.879 29.0595 596.336 22.9194 597.688 17.924C598.937 12.8246 600.394 7.10077 601.123 3.45832ZM666.689 3.45832C669.707 3.66647 675.015 3.77053 680.322 3.77053C684.797 3.77053 692.707 3.5624 696.453 3.45832C692.395 11.7839 679.906 38.3217 676.888 44.7741C670.748 44.1497 659.196 42.7968 653.472 42.4845C656.803 34.5752 664.712 10.7432 666.689 3.45832ZM714.822 64.5474C719.609 64.5474 721.482 63.5067 722.315 60.1764C723.459 55.5973 722.106 52.9956 711.387 51.1223C690.469 47.3758 686.931 38.738 690.365 25.313C694.424 8.66182 704.623 2.00134 729.287 2.00134C757.698 2.00134 765.087 10.1188 761.757 23.5438C761.341 25.1049 760.821 26.8741 760.3 28.7473C756.241 28.331 749.269 28.0188 743.649 28.0188C740.111 28.0188 736.884 28.0188 734.803 28.227C735.115 27.3944 735.219 26.6659 735.427 26.1456C736.364 22.5031 735.323 20.3177 729.287 20.3177C724.604 20.3177 722.523 21.6706 721.794 24.4804C720.754 28.5392 721.586 30.9328 733.554 33.3264C752.599 37.3851 757.594 44.3578 753.744 59.8642C749.685 76.0991 741.359 82.9677 715.342 82.9677C686.306 82.9677 678.189 75.0584 681.727 60.9049C682.144 59.2398 682.664 57.2625 683.288 55.2851C687.972 55.5973 694.736 56.1177 701.188 56.1177C704.311 56.1177 707.224 56.0136 709.202 55.9096C708.994 56.638 708.786 57.3665 708.577 57.991C707.537 62.2578 708.786 64.5474 714.822 64.5474ZM791.79 3.45832H854.232C853.191 7.10077 851.734 12.8246 850.486 17.924C849.133 22.9194 847.676 29.0595 846.843 33.0142C842.056 32.9101 837.373 32.806 832.794 32.806C827.278 55.3892 822.179 76.5154 821.138 81.6148C816.559 81.3026 808.962 81.3026 803.55 81.3026C798.138 81.3026 790.75 81.3026 785.962 81.6148C787.523 76.5154 792.935 55.3892 798.555 32.806C793.976 32.9101 789.188 32.9101 784.401 33.0142C785.546 29.0595 787.003 22.9194 788.356 17.924C789.605 12.8246 791.062 7.10077 791.79 3.45832ZM887.017 40.5072C891.804 40.5072 894.406 38.1136 895.967 32.2857C897.944 24.1682 895.654 21.8787 890.139 21.8787C888.89 21.8787 886.288 21.9828 883.79 22.0868C882.334 28.227 880.772 34.4712 879.315 40.4031C881.397 40.5072 883.999 40.5072 887.017 40.5072ZM857.877 3.45832H903.46C922.296 3.45832 931.767 12.3043 927.5 29.8921C924.378 42.4845 917.717 47.3758 903.98 48.9369L903.772 49.6654C914.491 51.1223 918.134 54.6607 917.405 65.5881C917.301 70.6875 916.677 77.7642 916.677 81.5108H890.139C885.56 81.5108 884.623 79.8456 885.039 73.1852C886.496 59.4479 885.976 56.7421 880.46 56.7421C878.379 56.7421 877.546 56.7421 875.569 56.8462C873.279 66.7328 871.51 75.4747 870.678 81.5108H838.416C841.434 70.2712 844.348 59.1357 848.511 42.4845C852.674 25.9374 855.379 14.6979 857.877 3.45832ZM939.537 3.45832H1003.23C1002.5 5.95601 1001.35 10.3269 1000.42 13.8653C999.481 17.6118 998.336 22.295 997.816 24.8967C986.993 24.6886 975.441 24.6886 966.387 24.6886L964.514 32.3898C975.129 32.3898 986.264 32.2857 995.214 31.9735C994.07 36.3444 991.676 45.6066 990.531 50.4979C981.893 50.1857 970.654 49.9776 960.143 49.9776L958.166 57.991C967.428 57.991 979.708 57.8869 989.699 57.7828C988.762 60.8008 987.513 65.6921 986.577 69.8549C985.536 73.8096 984.391 78.3887 983.767 81.5108H920.076C923.094 70.5834 926.112 59.1357 930.171 42.4845C934.333 25.9374 937.143 14.1775 939.537 3.45832ZM1059.48 3.45832H1086.85C1084.87 10.2229 1080.81 25.8334 1076.75 42.3805C1072.38 59.7601 1069.36 71.6241 1067.28 81.5108H1034.29C1033.25 75.1625 1030.65 66.0043 1028.36 57.5747C1027.53 52.2671 1026.9 46.8555 1026.69 41.4438L1026.28 41.5479C1025.13 48.1043 1023.88 53.9322 1022.53 60.0724C1020.03 70.8956 1018.16 78.2846 1017.64 81.5108H989.748C992.454 70.8956 995.576 59.1357 999.635 42.4845C1003.8 25.9374 1006.82 14.1775 1009.21 3.45832H1044.38C1044.59 7.82926 1047.61 20.5258 1049.28 30.1002C1049.9 34.0549 1050.42 38.5299 1050.63 43.3171L1051.05 43.109C1052.09 37.5933 1053.13 32.3898 1054.06 28.227C1056.25 19.0688 1058.43 9.28624 1059.48 3.45832ZM1130.35 42.7968C1134.31 26.8741 1131.71 24.0642 1125.57 24.0642C1123.69 24.0642 1121.82 24.1682 1119.95 24.2723C1118.38 29.9962 1116.93 36.0322 1115.37 42.1723C1113.7 48.8328 1112.45 53.9322 1111.41 58.1991C1113.18 58.3032 1114.95 58.3032 1116.82 58.3032C1123.59 58.3032 1127.02 56.0136 1130.35 42.7968ZM1093.41 3.45832H1132.54C1158.56 3.45832 1169.69 12.8246 1161.57 45.3985C1154.29 74.434 1142.53 81.5108 1116.41 81.5108H1073.95C1076.96 70.4793 1079.77 59.1357 1083.94 42.5886C1088.1 26.0415 1091.01 14.0735 1093.41 3.45832ZM1190.23 81.5108H1157.03C1160.16 70.3753 1162.97 59.0317 1167.02 42.4845C1171.19 25.9374 1174.1 14.5938 1176.5 3.45832H1209.69C1206.68 14.4897 1203.87 25.8334 1199.81 42.3805C1195.64 58.9276 1192.83 70.2712 1190.23 81.5108ZM1266.76 3.45832H1294.13C1292.15 10.2229 1288.09 25.8334 1284.03 42.3805C1279.66 59.7601 1276.64 71.6241 1274.56 81.5108H1241.57C1240.53 75.1625 1237.93 66.0043 1235.64 57.5747C1234.81 52.2671 1234.18 46.8555 1233.98 41.4438L1233.56 41.5479C1232.41 48.1043 1231.17 53.9322 1229.81 60.0724C1227.31 70.8956 1225.44 78.2846 1224.92 81.5108H1197.03C1199.74 70.8956 1202.86 59.1357 1206.92 42.4845C1211.08 25.9374 1214.1 14.1775 1216.49 3.45832H1251.67C1251.88 7.82926 1254.89 20.5258 1256.56 30.1002C1257.18 34.0549 1257.7 38.5299 1257.91 43.3171L1258.33 43.109C1259.37 37.5933 1260.41 32.3898 1261.35 28.227C1263.53 19.0688 1265.72 9.28624 1266.76 3.45832ZM1337.53 2.10542C1368.86 2.10542 1375.83 13.9694 1372.08 29.1636C1371.87 30.1002 1371.46 31.0369 1371.14 32.0775C1366.46 31.9735 1360.53 31.8694 1354.6 31.8694C1348.98 31.8694 1343.46 31.8694 1339.4 32.0775C1339.82 31.0369 1340.03 29.8921 1340.24 28.9555C1341.59 23.752 1339.61 21.2543 1334.82 21.2543C1328.89 21.2543 1325.25 26.1456 1321.71 40.6113C1317.76 56.638 1318.59 62.2578 1326.29 62.2578C1330.87 62.2578 1333.58 59.9683 1335.87 53.7241C1332.64 53.8282 1329.31 53.8282 1326.5 53.9322C1327.02 52.059 1328.27 46.9595 1328.68 45.0863C1329.52 42.0683 1330.25 39.2584 1330.66 37.177C1337.22 37.3851 1343.98 37.3851 1348.87 37.3851C1354.6 37.3851 1362.09 37.3851 1369.79 37.177C1363.44 70.2712 1355.95 82.8637 1322.75 82.8637C1292.99 82.8637 1281.75 69.959 1289.45 39.5706C1296.63 10.9514 1310.68 2.10542 1337.53 2.10542Z" stroke="white" stroke-width="4" mask="url(#path-1-outside-1_41_31)"/>
</svg>
