<svg width="860" height="85" viewBox="0 0 860 85" fill="none" xmlns="http://www.w3.org/2000/svg">
<mask id="path-1-outside-1_41_32" maskUnits="userSpaceOnUse" x="-0.322389" y="0" width="860.982" height="85.097" fill="black">
<rect fill="white" x="-0.322389" width="860.982" height="85.097"/>
<path d="M10.0735 3.35582H72.5447C71.5035 6.99998 70.0459 12.7265 68.7964 17.8283C67.4429 22.826 65.9852 28.969 65.1523 32.9255C60.3628 32.8214 55.6775 32.7173 51.0962 32.7173C45.578 55.3111 40.4761 76.4472 39.435 81.549C34.8537 81.2366 27.2531 81.2366 21.8389 81.2366C16.4247 81.2366 9.03228 81.2366 4.24282 81.549C5.8046 76.4472 11.2188 55.3111 16.8412 32.7173C12.26 32.8214 7.4705 32.8214 2.68104 32.9255C3.82634 28.969 5.284 22.826 6.63755 17.8283C7.88697 12.7265 9.34463 6.99998 10.0735 3.35582ZM104.207 49.6887C105.04 42.6086 105.769 35.2162 106.29 28.6567C106.394 24.3878 106.81 19.286 107.227 15.3295H106.706C105.04 19.286 103.062 24.2837 100.98 28.7608C98.1685 35.3203 95.2532 42.6086 92.6502 49.6887H104.207ZM83.0713 3.35582H136.692C136.068 13.7677 133.569 61.6623 133.881 81.4449H99.2097C99.9385 78.4254 100.876 73.4277 101.813 67.3889H86.0907C84.0083 73.3236 82.3424 78.3213 81.5095 81.4449H47.8791C57.6663 61.7664 79.0106 13.5595 83.0713 3.35582ZM192.312 35.112C194.811 25.5331 192.833 22.826 186.482 22.826C185.336 22.826 183.15 22.826 181.067 22.9301C179.089 31.0514 177.111 38.8603 175.445 46.0445C176.798 46.1486 178.36 46.1486 180.234 46.1486C187.419 46.1486 190.23 43.7539 192.312 35.112ZM155.246 3.35582H195.436C217.301 3.35582 227.713 11.373 221.257 37.8191C216.259 57.8099 207.513 65.2024 181.9 65.2024C178.881 65.2024 174.924 65.2024 171.072 65.0982C169.718 71.3454 168.573 76.8637 167.844 81.4449H135.776C138.899 70.0959 141.71 59.0593 145.875 42.4003C150.04 25.8455 152.747 14.3924 155.246 3.35582ZM225.282 52.2916C235.382 52.2916 239.65 57.4976 236.839 68.8465C234.549 78.1131 228.406 82.3819 220.284 82.3819C210.497 82.3819 206.228 76.9678 209.144 65.4106C211.434 56.3523 217.473 52.2916 225.282 52.2916ZM320.073 3.35582H350.059C342.979 14.3924 324.342 47.5022 318.511 57.2893C315.596 69.263 313.618 78.3213 312.993 81.549C307.579 81.3408 299.145 81.2366 292.794 81.2366C286.547 81.2366 278.009 81.3408 272.699 81.549C273.74 78.3213 276.239 69.1589 279.363 57.0811C278.842 46.6692 276.239 13.9759 274.469 3.35582H305.809C305.392 7.1041 304.664 17.0995 303.935 26.7825C303.518 31.7802 302.998 37.4027 302.685 41.8798H303.518C305.392 37.4027 307.683 31.8844 309.87 26.8867C314.243 17.2036 318.72 7.1041 320.073 3.35582ZM418.629 45.0033C411.861 72.2824 398.013 82.7984 371.463 82.7984C338.353 82.7984 329.816 68.2218 337.312 37.4027C343.976 10.3318 358.969 2.00228 384.478 2.00228C415.505 2.00228 426.334 13.9759 418.629 45.0033ZM373.858 58.5388C379.376 58.5388 383.02 54.5822 386.248 41.5674C389.58 28.5526 387.914 23.9713 381.667 23.9713C376.148 23.9713 372.4 27.6155 369.277 40.1097C365.841 54.2699 367.611 58.5388 373.858 58.5388ZM479.52 3.35582H511.588C509.61 10.54 507.632 17.6201 505.029 28.1361C503.259 35.2162 500.656 46.3569 498.573 54.4781C494.2 72.1783 483.476 82.7984 457.238 82.7984C422.879 82.7984 417.153 68.9506 421.63 50.6257C423.296 43.9621 425.898 34.2791 427.46 28.1361C430.063 17.6201 431.625 10.54 433.187 3.35582H465.88C462.132 16.8913 457.03 36.6738 454.115 48.7516C452.657 54.4781 454.115 57.6017 459.841 57.6017C464.631 57.6017 467.025 54.8946 468.691 48.7516C471.607 36.6738 476.292 16.8913 479.52 3.35582ZM517.529 3.35582C520.548 3.56406 525.858 3.66818 531.168 3.66818C535.645 3.66818 543.558 3.45995 547.307 3.35582C543.246 11.6853 530.752 38.2356 527.732 44.691C521.589 44.0663 510.032 42.7127 504.306 42.4003C507.637 34.4873 515.55 10.6441 517.529 3.35582ZM579.386 40.4221C584.175 40.4221 586.778 38.0274 588.34 32.1967C590.318 24.0755 588.028 21.7848 582.509 21.7848C581.26 21.7848 578.657 21.889 576.158 21.9931C574.7 28.1361 573.139 34.3832 571.681 40.318C573.763 40.4221 576.366 40.4221 579.386 40.4221ZM550.233 3.35582H595.837C614.682 3.35582 624.157 12.2059 619.888 29.802C616.764 42.4003 610.101 47.2939 596.357 48.8557L596.149 49.5845C606.873 51.0422 610.517 54.5822 609.788 65.5147C609.684 70.6165 609.06 77.6966 609.06 81.4449H582.509C577.928 81.4449 576.991 79.779 577.408 73.1154C578.865 59.3717 578.345 56.6646 572.826 56.6646C570.744 56.6646 569.911 56.6646 567.933 56.7687C565.642 66.66 563.872 75.406 563.039 81.4449H530.762C533.782 70.2001 536.697 59.0593 540.862 42.4003C545.027 25.8455 547.734 14.6006 550.233 3.35582ZM631.931 3.35582H695.651C694.923 5.85468 693.777 10.2277 692.84 13.7677C691.903 17.516 690.758 22.2013 690.237 24.8043C679.409 24.596 667.852 24.596 658.793 24.596L656.919 32.3008C667.539 32.3008 678.68 32.1967 687.634 31.8844C686.489 36.2573 684.094 45.5239 682.949 50.4175C674.307 50.1051 663.062 49.8969 652.546 49.8969L650.568 57.914C659.835 57.914 672.121 57.8099 682.116 57.7058C681.179 60.7252 679.929 65.6188 678.992 69.7836C677.951 73.7401 676.806 78.3213 676.181 81.4449H612.461C615.48 70.5124 618.499 59.0593 622.56 42.4003C626.725 25.8455 629.536 14.0801 631.931 3.35582ZM738.104 81.4449H704.89C708.014 70.3042 710.825 58.9552 714.886 42.4003C719.05 25.8455 721.966 14.4965 724.361 3.35582H757.574C754.555 14.3924 751.744 25.7414 747.683 42.2962C743.518 58.8511 740.707 70.2001 738.104 81.4449ZM814.665 3.35582H842.048C840.07 10.1235 836.009 25.7414 831.949 42.2962C827.576 59.6841 824.556 71.5536 822.474 81.4449H789.468C788.427 75.0936 785.824 65.9312 783.533 57.4976C782.7 52.1875 782.076 46.7733 781.867 41.3592L781.451 41.4633C780.306 48.0228 779.056 53.8534 777.703 59.9964C775.204 70.8248 773.33 78.2172 772.809 81.4449H744.905C747.612 70.8248 750.736 59.0593 754.797 42.4003C758.961 25.8455 761.981 14.0801 764.375 3.35582H799.568C799.776 7.72881 802.795 20.4313 804.461 30.0102C805.086 33.9667 805.606 38.4438 805.815 43.2333L806.231 43.0251C807.272 37.5068 808.314 32.3008 809.251 28.1361C811.437 18.9736 813.624 9.18648 814.665 3.35582ZM845.594 52.2916C855.693 52.2916 859.962 57.4976 857.151 68.8465C854.86 78.1131 848.717 82.3819 840.596 82.3819C830.809 82.3819 826.54 76.9678 829.455 65.4106C831.746 56.3523 837.785 52.2916 845.594 52.2916Z"/>
</mask>
<path d="M10.0735 3.35582H72.5447C71.5035 6.99998 70.0459 12.7265 68.7964 17.8283C67.4429 22.826 65.9852 28.969 65.1523 32.9255C60.3628 32.8214 55.6775 32.7173 51.0962 32.7173C45.578 55.3111 40.4761 76.4472 39.435 81.549C34.8537 81.2366 27.2531 81.2366 21.8389 81.2366C16.4247 81.2366 9.03228 81.2366 4.24282 81.549C5.8046 76.4472 11.2188 55.3111 16.8412 32.7173C12.26 32.8214 7.4705 32.8214 2.68104 32.9255C3.82634 28.969 5.284 22.826 6.63755 17.8283C7.88697 12.7265 9.34463 6.99998 10.0735 3.35582ZM104.207 49.6887C105.04 42.6086 105.769 35.2162 106.29 28.6567C106.394 24.3878 106.81 19.286 107.227 15.3295H106.706C105.04 19.286 103.062 24.2837 100.98 28.7608C98.1685 35.3203 95.2532 42.6086 92.6502 49.6887H104.207ZM83.0713 3.35582H136.692C136.068 13.7677 133.569 61.6623 133.881 81.4449H99.2097C99.9385 78.4254 100.876 73.4277 101.813 67.3889H86.0907C84.0083 73.3236 82.3424 78.3213 81.5095 81.4449H47.8791C57.6663 61.7664 79.0106 13.5595 83.0713 3.35582ZM192.312 35.112C194.811 25.5331 192.833 22.826 186.482 22.826C185.336 22.826 183.15 22.826 181.067 22.9301C179.089 31.0514 177.111 38.8603 175.445 46.0445C176.798 46.1486 178.36 46.1486 180.234 46.1486C187.419 46.1486 190.23 43.7539 192.312 35.112ZM155.246 3.35582H195.436C217.301 3.35582 227.713 11.373 221.257 37.8191C216.259 57.8099 207.513 65.2024 181.9 65.2024C178.881 65.2024 174.924 65.2024 171.072 65.0982C169.718 71.3454 168.573 76.8637 167.844 81.4449H135.776C138.899 70.0959 141.71 59.0593 145.875 42.4003C150.04 25.8455 152.747 14.3924 155.246 3.35582ZM225.282 52.2916C235.382 52.2916 239.65 57.4976 236.839 68.8465C234.549 78.1131 228.406 82.3819 220.284 82.3819C210.497 82.3819 206.228 76.9678 209.144 65.4106C211.434 56.3523 217.473 52.2916 225.282 52.2916ZM320.073 3.35582H350.059C342.979 14.3924 324.342 47.5022 318.511 57.2893C315.596 69.263 313.618 78.3213 312.993 81.549C307.579 81.3408 299.145 81.2366 292.794 81.2366C286.547 81.2366 278.009 81.3408 272.699 81.549C273.74 78.3213 276.239 69.1589 279.363 57.0811C278.842 46.6692 276.239 13.9759 274.469 3.35582H305.809C305.392 7.1041 304.664 17.0995 303.935 26.7825C303.518 31.7802 302.998 37.4027 302.685 41.8798H303.518C305.392 37.4027 307.683 31.8844 309.87 26.8867C314.243 17.2036 318.72 7.1041 320.073 3.35582ZM418.629 45.0033C411.861 72.2824 398.013 82.7984 371.463 82.7984C338.353 82.7984 329.816 68.2218 337.312 37.4027C343.976 10.3318 358.969 2.00228 384.478 2.00228C415.505 2.00228 426.334 13.9759 418.629 45.0033ZM373.858 58.5388C379.376 58.5388 383.02 54.5822 386.248 41.5674C389.58 28.5526 387.914 23.9713 381.667 23.9713C376.148 23.9713 372.4 27.6155 369.277 40.1097C365.841 54.2699 367.611 58.5388 373.858 58.5388ZM479.52 3.35582H511.588C509.61 10.54 507.632 17.6201 505.029 28.1361C503.259 35.2162 500.656 46.3569 498.573 54.4781C494.2 72.1783 483.476 82.7984 457.238 82.7984C422.879 82.7984 417.153 68.9506 421.63 50.6257C423.296 43.9621 425.898 34.2791 427.46 28.1361C430.063 17.6201 431.625 10.54 433.187 3.35582H465.88C462.132 16.8913 457.03 36.6738 454.115 48.7516C452.657 54.4781 454.115 57.6017 459.841 57.6017C464.631 57.6017 467.025 54.8946 468.691 48.7516C471.607 36.6738 476.292 16.8913 479.52 3.35582ZM517.529 3.35582C520.548 3.56406 525.858 3.66818 531.168 3.66818C535.645 3.66818 543.558 3.45995 547.307 3.35582C543.246 11.6853 530.752 38.2356 527.732 44.691C521.589 44.0663 510.032 42.7127 504.306 42.4003C507.637 34.4873 515.55 10.6441 517.529 3.35582ZM579.386 40.4221C584.175 40.4221 586.778 38.0274 588.34 32.1967C590.318 24.0755 588.028 21.7848 582.509 21.7848C581.26 21.7848 578.657 21.889 576.158 21.9931C574.7 28.1361 573.139 34.3832 571.681 40.318C573.763 40.4221 576.366 40.4221 579.386 40.4221ZM550.233 3.35582H595.837C614.682 3.35582 624.157 12.2059 619.888 29.802C616.764 42.4003 610.101 47.2939 596.357 48.8557L596.149 49.5845C606.873 51.0422 610.517 54.5822 609.788 65.5147C609.684 70.6165 609.06 77.6966 609.06 81.4449H582.509C577.928 81.4449 576.991 79.779 577.408 73.1154C578.865 59.3717 578.345 56.6646 572.826 56.6646C570.744 56.6646 569.911 56.6646 567.933 56.7687C565.642 66.66 563.872 75.406 563.039 81.4449H530.762C533.782 70.2001 536.697 59.0593 540.862 42.4003C545.027 25.8455 547.734 14.6006 550.233 3.35582ZM631.931 3.35582H695.651C694.923 5.85468 693.777 10.2277 692.84 13.7677C691.903 17.516 690.758 22.2013 690.237 24.8043C679.409 24.596 667.852 24.596 658.793 24.596L656.919 32.3008C667.539 32.3008 678.68 32.1967 687.634 31.8844C686.489 36.2573 684.094 45.5239 682.949 50.4175C674.307 50.1051 663.062 49.8969 652.546 49.8969L650.568 57.914C659.835 57.914 672.121 57.8099 682.116 57.7058C681.179 60.7252 679.929 65.6188 678.992 69.7836C677.951 73.7401 676.806 78.3213 676.181 81.4449H612.461C615.48 70.5124 618.499 59.0593 622.56 42.4003C626.725 25.8455 629.536 14.0801 631.931 3.35582ZM738.104 81.4449H704.89C708.014 70.3042 710.825 58.9552 714.886 42.4003C719.05 25.8455 721.966 14.4965 724.361 3.35582H757.574C754.555 14.3924 751.744 25.7414 747.683 42.2962C743.518 58.8511 740.707 70.2001 738.104 81.4449ZM814.665 3.35582H842.048C840.07 10.1235 836.009 25.7414 831.949 42.2962C827.576 59.6841 824.556 71.5536 822.474 81.4449H789.468C788.427 75.0936 785.824 65.9312 783.533 57.4976C782.7 52.1875 782.076 46.7733 781.867 41.3592L781.451 41.4633C780.306 48.0228 779.056 53.8534 777.703 59.9964C775.204 70.8248 773.33 78.2172 772.809 81.4449H744.905C747.612 70.8248 750.736 59.0593 754.797 42.4003C758.961 25.8455 761.981 14.0801 764.375 3.35582H799.568C799.776 7.72881 802.795 20.4313 804.461 30.0102C805.086 33.9667 805.606 38.4438 805.815 43.2333L806.231 43.0251C807.272 37.5068 808.314 32.3008 809.251 28.1361C811.437 18.9736 813.624 9.18648 814.665 3.35582ZM845.594 52.2916C855.693 52.2916 859.962 57.4976 857.151 68.8465C854.86 78.1131 848.717 82.3819 840.596 82.3819C830.809 82.3819 826.54 76.9678 829.455 65.4106C831.746 56.3523 837.785 52.2916 845.594 52.2916Z" stroke="white" stroke-width="4" mask="url(#path-1-outside-1_41_32)"/>
</svg>
