<svg width="931" height="85" viewBox="0 0 931 85" fill="none" xmlns="http://www.w3.org/2000/svg">
<mask id="path-1-outside-1_41_34" maskUnits="userSpaceOnUse" x="-0.338433" y="0" width="932.15" height="85.0136" fill="black">
<rect fill="white" x="-0.338433" width="932.15" height="85.0136"/>
<path d="M52.7981 35.3897C57.4788 35.2857 60.1833 33.3094 61.5355 27.9005C63.0957 21.6595 60.9114 19.5791 56.7507 19.5791C54.2543 19.5791 51.6539 19.5791 48.8455 19.7872C47.7013 24.1559 46.3491 29.5647 44.8928 35.2857C47.8053 35.3897 50.4057 35.3897 52.7981 35.3897ZM54.6704 56.9211C56.3347 50.2641 54.3583 48.0797 49.5736 48.0797C47.2852 48.0797 44.5808 48.1837 41.6683 48.2878C40.3161 53.6966 39.0679 59.0015 38.0277 63.5782C40.9402 63.7862 43.5406 63.7862 45.829 63.7862C50.7178 63.7862 53.4222 62.122 54.6704 56.9211ZM22.1132 3.45655H72.0412C88.2678 3.45655 96.6931 11.7779 93.0526 25.7161C91.0762 33.6214 87.7477 37.366 79.9465 39.8624C77.8661 40.5905 75.3697 41.0066 72.5613 41.3186L72.3532 41.9427C74.3296 42.0468 75.9938 42.3588 77.242 42.7749C85.6674 45.3753 87.3316 52.3444 84.9393 62.018C81.4027 76.3723 73.4974 81.4691 55.5025 81.4691H2.66205C5.88657 70.3393 8.79903 59.0015 12.8557 42.4628C17.0164 25.9242 19.8248 14.3783 22.1132 3.45655ZM149.714 3.45655H181.751C179.775 10.6337 177.799 17.7068 175.198 28.2125C173.43 35.2857 170.829 46.4155 168.749 54.5288C164.38 72.2116 153.667 82.8213 127.454 82.8213C93.1289 82.8213 87.408 68.9871 91.8807 50.6801C93.545 44.0231 96.1454 34.3495 97.7057 28.2125C100.306 17.7068 101.866 10.6337 103.427 3.45655H136.088C132.343 16.9787 127.246 36.7419 124.334 48.8078C122.878 54.5288 124.334 57.6493 130.055 57.6493C134.84 57.6493 137.232 54.9448 138.896 48.8078C141.809 36.7419 146.49 16.9787 149.714 3.45655ZM201.832 81.4691H168.651C171.771 70.3393 174.58 59.0015 178.636 42.4628C182.797 25.9242 185.709 14.5863 188.102 3.45655H221.283C218.267 14.4823 215.458 25.8201 211.402 42.3588C207.241 58.8975 204.432 70.2353 201.832 81.4691ZM227.974 3.45655H261.883C260.323 9.07346 255.954 25.7161 251.689 42.5668C250.857 45.8954 250.025 49.2239 249.297 52.4484C254.81 52.4484 261.467 52.3444 267.916 52.1364C266.668 56.9211 265.316 61.9139 264.171 66.6987C262.923 71.6915 261.675 76.5803 260.531 81.4691H208.522C210.187 75.3321 214.555 59.1055 218.612 42.4628C222.981 25.3001 226.517 10.9458 227.974 3.45655ZM273.156 3.45655H335.566C334.526 7.09714 333.069 12.8181 331.821 17.9149C330.469 22.9077 329.013 29.0447 328.181 32.9973C323.396 32.8933 318.715 32.7893 314.138 32.7893C308.626 55.3609 303.529 76.4763 302.489 81.5731C297.912 81.2611 290.319 81.2611 284.91 81.2611C279.501 81.2611 272.116 81.2611 267.331 81.5731C268.891 76.4763 274.3 55.3609 279.917 32.7893C275.34 32.8933 270.555 32.8933 265.771 32.9973C266.915 29.0447 268.371 22.9077 269.723 17.9149C270.971 12.8181 272.428 7.09714 273.156 3.45655ZM326.935 44.7512L329.847 32.2692C334.216 32.6852 343.162 32.6852 349.09 32.6852C355.331 32.6852 364.069 32.6852 368.75 32.2692C367.501 36.3258 366.461 40.2785 365.421 44.7512C364.277 49.1199 363.341 53.1765 362.405 57.5452C357.932 57.3372 349.194 57.2332 342.953 57.2332C337.129 57.2332 328.079 57.3372 323.502 57.5452C324.751 53.1765 325.791 49.1199 326.935 44.7512ZM394.027 81.4691H360.846C363.966 70.3393 366.775 59.0015 370.832 42.4628C374.992 25.9242 377.905 14.5863 380.297 3.45655H413.478C410.462 14.4823 407.653 25.8201 403.597 42.3588C399.436 58.8975 396.628 70.2353 394.027 81.4691ZM470.513 3.45655H497.869C495.893 10.2176 491.836 25.8201 487.78 42.3588C483.411 59.7296 480.394 71.5875 478.314 81.4691H445.341C444.301 75.1241 441.7 65.9706 439.412 57.5452C438.58 52.2404 437.956 46.8315 437.748 41.4227L437.332 41.5267C436.187 48.0797 434.939 53.9047 433.587 60.0416C431.091 70.8594 429.218 78.2446 428.698 81.4691H400.822C403.526 70.8594 406.647 59.1055 410.703 42.4628C414.864 25.9242 417.88 14.1703 420.273 3.45655H455.43C455.638 7.82526 458.655 20.5153 460.319 30.0848C460.943 34.0375 461.463 38.5102 461.671 43.295L462.088 43.0869C463.128 37.574 464.168 32.3732 465.104 28.2125C467.288 19.0591 469.473 9.2815 470.513 3.45655ZM564.056 2.10434C595.365 2.10434 602.335 13.9622 598.59 29.1487C598.382 30.0848 597.966 31.021 597.654 32.0611C592.973 31.9571 587.044 31.8531 581.115 31.8531C575.498 31.8531 569.985 31.8531 565.929 32.0611C566.345 31.021 566.553 29.8768 566.761 28.9407C568.113 23.7398 566.137 21.2434 561.352 21.2434C555.423 21.2434 551.782 26.1322 548.246 40.5905C544.293 56.6091 545.125 62.226 552.823 62.226C557.399 62.226 560.104 59.9376 562.392 53.6966C559.168 53.8006 555.839 53.8006 553.031 53.9047C553.551 52.0324 554.799 46.9355 555.215 45.0632C556.047 42.0468 556.775 39.2383 557.191 37.158C563.744 37.366 570.505 37.366 575.394 37.366C581.115 37.366 588.604 37.366 596.302 37.158C589.957 70.2353 582.467 82.8213 549.286 82.8213C519.537 82.8213 508.303 69.9232 516.001 39.5503C523.178 10.9458 537.22 2.10434 564.056 2.10434ZM641.826 49.744C642.658 42.6708 643.386 35.2857 643.906 28.7326C644.01 24.4679 644.426 19.3711 644.842 15.4185H644.322C642.658 19.3711 640.682 24.3639 638.601 28.8366C635.793 35.3897 632.881 42.6708 630.28 49.744H641.826ZM620.711 3.45655H674.279C673.655 13.8582 671.159 61.7059 671.471 81.4691H636.833C637.561 78.4526 638.497 73.4598 639.434 67.4268H623.727C621.647 73.3558 619.982 78.3486 619.15 81.4691H585.553C595.33 61.8099 616.654 13.6502 620.711 3.45655ZM750.215 3.45655H787.661C784.956 13.6502 781.94 25.3001 777.675 42.3588C773.514 58.8975 770.706 70.2353 768.313 81.4691H738.877C741.685 72.1076 743.662 65.0344 746.366 54.9448C747.51 50.3681 749.174 45.0632 750.839 39.6544L750.215 39.5503C747.302 45.3753 744.494 50.9922 742.309 54.8408L727.019 81.4691H713.289L710.896 54.3207C710.688 50.4721 710.688 44.8552 710.584 39.2383L710.064 39.3423C709.128 44.6472 708.192 49.64 706.944 54.9448C704.447 65.1385 702.783 72.4196 700.807 81.4691H674.282C677.403 70.2353 680.315 58.8975 684.476 42.3588C688.741 25.3001 691.549 13.6502 693.734 3.45655H732.532C732.324 10.2176 732.22 18.851 732.428 28.5246C732.324 32.0611 731.908 36.9499 731.596 41.6307H732.012C734.092 36.8459 736.172 32.0611 737.837 28.5246C742.621 19.1631 747.198 10.1136 750.215 3.45655ZM794.548 3.45655H858.206C857.478 5.95296 856.334 10.3217 855.397 13.8582C854.461 17.6028 853.317 22.2836 852.797 24.884C841.979 24.676 830.433 24.676 821.384 24.676L819.512 32.3732C830.121 32.3732 841.251 32.2692 850.197 31.9571C849.052 36.3258 846.66 45.5833 845.516 50.4721C836.882 50.1601 825.649 49.952 815.143 49.952L813.167 57.9613C822.424 57.9613 834.698 57.8573 844.684 57.7533C843.748 60.7698 842.499 65.6585 841.563 69.8192C840.523 73.7718 839.379 78.3486 838.755 81.4691H775.097C778.113 70.5473 781.129 59.1055 785.186 42.4628C789.347 25.9242 792.155 14.1703 794.548 3.45655ZM881.347 64.5144C886.132 64.5144 888.004 63.4742 888.836 60.1457C889.981 55.5689 888.628 52.9685 877.915 51.0962C857.007 47.3516 853.471 38.7182 856.903 25.3001C860.96 8.65739 871.153 2.00032 895.805 2.00032C924.202 2.00032 931.587 10.1136 928.259 23.5318C927.843 25.092 927.323 26.8603 926.802 28.7326C922.746 28.3165 915.777 28.0045 910.16 28.0045C906.623 28.0045 903.399 28.0045 901.318 28.2125C901.63 27.3804 901.734 26.6523 901.942 26.1322C902.879 22.4916 901.838 20.3073 895.805 20.3073C891.125 20.3073 889.044 21.6595 888.316 24.4679C887.276 28.5246 888.108 30.917 900.07 33.3093C919.105 37.366 924.098 44.3351 920.249 59.8336C916.193 76.0602 907.871 82.9253 881.867 82.9253C852.847 82.9253 844.733 75.0201 848.27 60.8738C848.686 59.2095 849.206 57.2332 849.83 55.2569C854.511 55.5689 861.272 56.089 867.721 56.089C870.841 56.089 873.754 55.985 875.73 55.881C875.522 56.6091 875.314 57.3372 875.106 57.9613C874.066 62.226 875.314 64.5144 881.347 64.5144Z"/>
</mask>
<path d="M52.7981 35.3897C57.4788 35.2857 60.1833 33.3094 61.5355 27.9005C63.0957 21.6595 60.9114 19.5791 56.7507 19.5791C54.2543 19.5791 51.6539 19.5791 48.8455 19.7872C47.7013 24.1559 46.3491 29.5647 44.8928 35.2857C47.8053 35.3897 50.4057 35.3897 52.7981 35.3897ZM54.6704 56.9211C56.3347 50.2641 54.3583 48.0797 49.5736 48.0797C47.2852 48.0797 44.5808 48.1837 41.6683 48.2878C40.3161 53.6966 39.0679 59.0015 38.0277 63.5782C40.9402 63.7862 43.5406 63.7862 45.829 63.7862C50.7178 63.7862 53.4222 62.122 54.6704 56.9211ZM22.1132 3.45655H72.0412C88.2678 3.45655 96.6931 11.7779 93.0526 25.7161C91.0762 33.6214 87.7477 37.366 79.9465 39.8624C77.8661 40.5905 75.3697 41.0066 72.5613 41.3186L72.3532 41.9427C74.3296 42.0468 75.9938 42.3588 77.242 42.7749C85.6674 45.3753 87.3316 52.3444 84.9393 62.018C81.4027 76.3723 73.4974 81.4691 55.5025 81.4691H2.66205C5.88657 70.3393 8.79903 59.0015 12.8557 42.4628C17.0164 25.9242 19.8248 14.3783 22.1132 3.45655ZM149.714 3.45655H181.751C179.775 10.6337 177.799 17.7068 175.198 28.2125C173.43 35.2857 170.829 46.4155 168.749 54.5288C164.38 72.2116 153.667 82.8213 127.454 82.8213C93.1289 82.8213 87.408 68.9871 91.8807 50.6801C93.545 44.0231 96.1454 34.3495 97.7057 28.2125C100.306 17.7068 101.866 10.6337 103.427 3.45655H136.088C132.343 16.9787 127.246 36.7419 124.334 48.8078C122.878 54.5288 124.334 57.6493 130.055 57.6493C134.84 57.6493 137.232 54.9448 138.896 48.8078C141.809 36.7419 146.49 16.9787 149.714 3.45655ZM201.832 81.4691H168.651C171.771 70.3393 174.58 59.0015 178.636 42.4628C182.797 25.9242 185.709 14.5863 188.102 3.45655H221.283C218.267 14.4823 215.458 25.8201 211.402 42.3588C207.241 58.8975 204.432 70.2353 201.832 81.4691ZM227.974 3.45655H261.883C260.323 9.07346 255.954 25.7161 251.689 42.5668C250.857 45.8954 250.025 49.2239 249.297 52.4484C254.81 52.4484 261.467 52.3444 267.916 52.1364C266.668 56.9211 265.316 61.9139 264.171 66.6987C262.923 71.6915 261.675 76.5803 260.531 81.4691H208.522C210.187 75.3321 214.555 59.1055 218.612 42.4628C222.981 25.3001 226.517 10.9458 227.974 3.45655ZM273.156 3.45655H335.566C334.526 7.09714 333.069 12.8181 331.821 17.9149C330.469 22.9077 329.013 29.0447 328.181 32.9973C323.396 32.8933 318.715 32.7893 314.138 32.7893C308.626 55.3609 303.529 76.4763 302.489 81.5731C297.912 81.2611 290.319 81.2611 284.91 81.2611C279.501 81.2611 272.116 81.2611 267.331 81.5731C268.891 76.4763 274.3 55.3609 279.917 32.7893C275.34 32.8933 270.555 32.8933 265.771 32.9973C266.915 29.0447 268.371 22.9077 269.723 17.9149C270.971 12.8181 272.428 7.09714 273.156 3.45655ZM326.935 44.7512L329.847 32.2692C334.216 32.6852 343.162 32.6852 349.09 32.6852C355.331 32.6852 364.069 32.6852 368.75 32.2692C367.501 36.3258 366.461 40.2785 365.421 44.7512C364.277 49.1199 363.341 53.1765 362.405 57.5452C357.932 57.3372 349.194 57.2332 342.953 57.2332C337.129 57.2332 328.079 57.3372 323.502 57.5452C324.751 53.1765 325.791 49.1199 326.935 44.7512ZM394.027 81.4691H360.846C363.966 70.3393 366.775 59.0015 370.832 42.4628C374.992 25.9242 377.905 14.5863 380.297 3.45655H413.478C410.462 14.4823 407.653 25.8201 403.597 42.3588C399.436 58.8975 396.628 70.2353 394.027 81.4691ZM470.513 3.45655H497.869C495.893 10.2176 491.836 25.8201 487.78 42.3588C483.411 59.7296 480.394 71.5875 478.314 81.4691H445.341C444.301 75.1241 441.7 65.9706 439.412 57.5452C438.58 52.2404 437.956 46.8315 437.748 41.4227L437.332 41.5267C436.187 48.0797 434.939 53.9047 433.587 60.0416C431.091 70.8594 429.218 78.2446 428.698 81.4691H400.822C403.526 70.8594 406.647 59.1055 410.703 42.4628C414.864 25.9242 417.88 14.1703 420.273 3.45655H455.43C455.638 7.82526 458.655 20.5153 460.319 30.0848C460.943 34.0375 461.463 38.5102 461.671 43.295L462.088 43.0869C463.128 37.574 464.168 32.3732 465.104 28.2125C467.288 19.0591 469.473 9.2815 470.513 3.45655ZM564.056 2.10434C595.365 2.10434 602.335 13.9622 598.59 29.1487C598.382 30.0848 597.966 31.021 597.654 32.0611C592.973 31.9571 587.044 31.8531 581.115 31.8531C575.498 31.8531 569.985 31.8531 565.929 32.0611C566.345 31.021 566.553 29.8768 566.761 28.9407C568.113 23.7398 566.137 21.2434 561.352 21.2434C555.423 21.2434 551.782 26.1322 548.246 40.5905C544.293 56.6091 545.125 62.226 552.823 62.226C557.399 62.226 560.104 59.9376 562.392 53.6966C559.168 53.8006 555.839 53.8006 553.031 53.9047C553.551 52.0324 554.799 46.9355 555.215 45.0632C556.047 42.0468 556.775 39.2383 557.191 37.158C563.744 37.366 570.505 37.366 575.394 37.366C581.115 37.366 588.604 37.366 596.302 37.158C589.957 70.2353 582.467 82.8213 549.286 82.8213C519.537 82.8213 508.303 69.9232 516.001 39.5503C523.178 10.9458 537.22 2.10434 564.056 2.10434ZM641.826 49.744C642.658 42.6708 643.386 35.2857 643.906 28.7326C644.01 24.4679 644.426 19.3711 644.842 15.4185H644.322C642.658 19.3711 640.682 24.3639 638.601 28.8366C635.793 35.3897 632.881 42.6708 630.28 49.744H641.826ZM620.711 3.45655H674.279C673.655 13.8582 671.159 61.7059 671.471 81.4691H636.833C637.561 78.4526 638.497 73.4598 639.434 67.4268H623.727C621.647 73.3558 619.982 78.3486 619.15 81.4691H585.553C595.33 61.8099 616.654 13.6502 620.711 3.45655ZM750.215 3.45655H787.661C784.956 13.6502 781.94 25.3001 777.675 42.3588C773.514 58.8975 770.706 70.2353 768.313 81.4691H738.877C741.685 72.1076 743.662 65.0344 746.366 54.9448C747.51 50.3681 749.174 45.0632 750.839 39.6544L750.215 39.5503C747.302 45.3753 744.494 50.9922 742.309 54.8408L727.019 81.4691H713.289L710.896 54.3207C710.688 50.4721 710.688 44.8552 710.584 39.2383L710.064 39.3423C709.128 44.6472 708.192 49.64 706.944 54.9448C704.447 65.1385 702.783 72.4196 700.807 81.4691H674.282C677.403 70.2353 680.315 58.8975 684.476 42.3588C688.741 25.3001 691.549 13.6502 693.734 3.45655H732.532C732.324 10.2176 732.22 18.851 732.428 28.5246C732.324 32.0611 731.908 36.9499 731.596 41.6307H732.012C734.092 36.8459 736.172 32.0611 737.837 28.5246C742.621 19.1631 747.198 10.1136 750.215 3.45655ZM794.548 3.45655H858.206C857.478 5.95296 856.334 10.3217 855.397 13.8582C854.461 17.6028 853.317 22.2836 852.797 24.884C841.979 24.676 830.433 24.676 821.384 24.676L819.512 32.3732C830.121 32.3732 841.251 32.2692 850.197 31.9571C849.052 36.3258 846.66 45.5833 845.516 50.4721C836.882 50.1601 825.649 49.952 815.143 49.952L813.167 57.9613C822.424 57.9613 834.698 57.8573 844.684 57.7533C843.748 60.7698 842.499 65.6585 841.563 69.8192C840.523 73.7718 839.379 78.3486 838.755 81.4691H775.097C778.113 70.5473 781.129 59.1055 785.186 42.4628C789.347 25.9242 792.155 14.1703 794.548 3.45655ZM881.347 64.5144C886.132 64.5144 888.004 63.4742 888.836 60.1457C889.981 55.5689 888.628 52.9685 877.915 51.0962C857.007 47.3516 853.471 38.7182 856.903 25.3001C860.96 8.65739 871.153 2.00032 895.805 2.00032C924.202 2.00032 931.587 10.1136 928.259 23.5318C927.843 25.092 927.323 26.8603 926.802 28.7326C922.746 28.3165 915.777 28.0045 910.16 28.0045C906.623 28.0045 903.399 28.0045 901.318 28.2125C901.63 27.3804 901.734 26.6523 901.942 26.1322C902.879 22.4916 901.838 20.3073 895.805 20.3073C891.125 20.3073 889.044 21.6595 888.316 24.4679C887.276 28.5246 888.108 30.917 900.07 33.3093C919.105 37.366 924.098 44.3351 920.249 59.8336C916.193 76.0602 907.871 82.9253 881.867 82.9253C852.847 82.9253 844.733 75.0201 848.27 60.8738C848.686 59.2095 849.206 57.2332 849.83 55.2569C854.511 55.5689 861.272 56.089 867.721 56.089C870.841 56.089 873.754 55.985 875.73 55.881C875.522 56.6091 875.314 57.3372 875.106 57.9613C874.066 62.226 875.314 64.5144 881.347 64.5144Z" stroke="white" stroke-width="4" mask="url(#path-1-outside-1_41_34)"/>
</svg>
