<svg width="790" height="382" viewBox="0 0 790 382" fill="none" xmlns="http://www.w3.org/2000/svg">
<g clip-path="url(#clip0_19_134)">
<path d="M154.155 333.116C154.155 336.323 151.733 338.68 148.329 338.68C145.056 338.68 142.503 336.323 142.503 333.116C142.503 329.908 145.056 327.617 148.329 327.617C151.733 327.617 154.155 329.908 154.155 333.116ZM143.616 344.244H152.977V380.247H143.616V344.244Z" fill="white"/>
<path d="M160.506 344.244H169.867V349.154C172.486 345.487 176.086 343.458 181.061 343.458C189.178 343.458 194.088 348.826 194.088 357.663V380.247H184.727V359.693C184.727 354.979 182.959 352.361 177.984 352.361C172.682 352.361 169.867 355.438 169.867 361.329V380.247H160.506V344.244Z" fill="white"/>
<path d="M222.24 380.247H211.046L198.674 344.244H208.624L216.61 370.166L224.662 344.244H234.612L222.24 380.247Z" fill="white"/>
<path d="M236.71 362.311C236.71 351.51 244.5 343.458 255.498 343.458C267.411 343.458 274.809 352.819 273.892 364.668H246.268C246.857 370.428 250.785 373.309 255.628 373.309C259.229 373.309 262.371 371.672 263.615 368.792H273.303C270.619 377.302 263.418 381.033 255.694 381.033C244.435 381.033 236.71 373.047 236.71 362.311ZM263.942 357.794C262.895 353.866 259.949 351.183 255.432 351.183C250.85 351.183 247.904 353.932 246.726 357.794H263.942Z" fill="white"/>
<path d="M278.937 368.399H288.428C289.148 371.279 291.309 373.243 297.134 373.243C301.259 373.243 303.222 372.261 303.222 370.297C303.222 367.875 300.407 367.679 294.974 366.37C284.762 363.947 280.573 361.656 280.573 355.438C280.573 347.844 286.857 343.458 296.349 343.458C306.365 343.458 311.274 348.302 312.518 354.979H303.026C302.306 352.688 300.342 351.314 296.021 351.314C292.29 351.314 289.999 352.361 289.999 354.325C289.999 356.027 291.636 356.354 296.873 357.533C307.15 359.889 312.91 361.853 312.91 369.053C312.91 377.105 305.775 381.033 296.873 381.033C287.25 381.033 280.246 376.32 278.937 368.399Z" fill="white"/>
<path d="M323.126 366.37V353.081H316.711V344.244H323.126V336.454L332.487 334.425V344.244H345.841V353.081H332.487V365.846C332.487 370.101 334.517 372.326 338.248 372.326C340.343 372.326 342.83 371.607 345.776 370.559L347.347 378.153C345.383 379.462 340.932 381.033 336.611 381.033C329.41 381.033 323.126 376.712 323.126 366.37Z" fill="white"/>
<path d="M408.948 357.467V380.247H399.587V359.496C399.587 354.914 397.885 352.361 393.368 352.361C388.459 352.361 385.906 355.634 385.906 361.329V380.247H376.545V359.496C376.545 354.914 374.843 352.361 370.326 352.361C365.417 352.361 362.799 355.634 362.799 361.329L362.864 380.247H353.438V344.244H362.864V349.022C365.417 345.487 368.886 343.458 373.534 343.458C378.705 343.458 382.568 345.88 384.466 350.266C387.084 346.011 391.208 343.458 396.511 343.458C404.17 343.458 408.948 348.761 408.948 357.467Z" fill="white"/>
<path d="M415.238 362.311C415.238 351.51 423.028 343.458 434.025 343.458C445.939 343.458 453.336 352.819 452.419 364.668H424.795C425.384 370.428 429.312 373.309 434.156 373.309C437.756 373.309 440.899 371.672 442.142 368.792H451.83C449.146 377.302 441.946 381.033 434.222 381.033C422.962 381.033 415.238 373.047 415.238 362.311ZM442.469 357.794C441.422 353.866 438.476 351.183 433.959 351.183C429.377 351.183 426.432 353.932 425.254 357.794H442.469Z" fill="white"/>
<path d="M458.774 344.244H468.134V349.154C470.753 345.487 474.353 343.458 479.328 343.458C487.445 343.458 492.355 348.826 492.355 357.663V380.247H482.994V359.693C482.994 354.979 481.226 352.361 476.251 352.361C470.949 352.361 468.134 355.438 468.134 361.329V380.247H458.774V344.244Z" fill="white"/>
<path d="M503.356 366.37V353.081H496.941V344.244H503.356V336.454L512.717 334.425V344.244H526.072V353.081H512.717V365.846C512.717 370.101 514.747 372.326 518.478 372.326C520.573 372.326 523.06 371.607 526.006 370.559L527.577 378.153C525.613 379.462 521.162 381.033 516.841 381.033C509.64 381.033 503.356 376.712 503.356 366.37Z" fill="white"/>
<path d="M531.311 368.399H540.803C541.523 371.279 543.683 373.243 549.509 373.243C553.633 373.243 555.597 372.261 555.597 370.297C555.597 367.875 552.782 367.679 547.349 366.37C537.137 363.947 532.947 361.656 532.947 355.438C532.947 347.844 539.231 343.458 548.723 343.458C558.739 343.458 563.649 348.302 564.892 354.979H555.4C554.68 352.688 552.716 351.314 548.396 351.314C544.665 351.314 542.374 352.361 542.374 354.325C542.374 356.027 544.01 356.354 549.247 357.533C559.525 359.889 565.285 361.853 565.285 369.053C565.285 377.105 558.15 381.033 549.247 381.033C539.624 381.033 532.62 376.32 531.311 368.399Z" fill="white"/>
<path d="M36.1595 360.776H80.2809L167.528 132.871H123.407L86.5839 232.393H85.9204L46.4435 132.871H0L65.0208 285.14L36.1595 360.776ZM251.056 298.077C301.481 298.077 336.977 263.577 336.977 214.147C336.977 164.387 301.481 130.549 251.056 130.549C199.305 130.549 164.804 165.714 164.804 214.147C164.804 262.581 199.305 298.077 251.056 298.077ZM251.056 258.932C226.176 258.932 208.925 239.36 208.925 214.148C208.925 188.604 225.844 169.363 251.056 169.363C274.942 169.363 292.855 187.608 292.855 214.148C292.855 240.687 274.278 258.932 251.056 258.932ZM361.434 295.092H404.892V50.9319H361.434V295.092ZM515.839 298.077C566.264 298.077 601.76 263.577 601.76 214.147C601.76 164.387 566.264 130.549 515.839 130.549C464.088 130.549 429.587 165.714 429.587 214.147C429.587 262.581 464.088 298.077 515.839 298.077ZM515.839 258.932C490.959 258.932 473.708 239.36 473.708 214.148C473.708 188.604 490.627 169.363 515.839 169.363C539.725 169.363 557.638 187.608 557.638 214.148C557.638 240.687 539.061 258.932 515.839 258.932Z" fill="white"/>
<path d="M748.578 81.7341C771.148 81.7341 789.445 63.4373 789.445 40.8671C789.445 18.2968 771.148 0 748.578 0C726.008 0 707.711 18.2968 707.711 40.8671C707.711 63.4373 726.008 81.7341 748.578 81.7341Z" fill="#FFD700"/>
<path d="M605.604 7.08509C682.714 55.9781 720.002 116.941 711.27 209.619C708.437 235.398 672.128 235.743 668.654 210.227C665.45 180.032 657.498 149.501 638.537 126.812C629.91 116.363 619.486 107.673 607.289 100.108C595.103 92.5507 581.36 86.0601 566.733 80.1436C545.433 71.5278 535.151 47.2762 543.766 25.9764C553.265 1.64967 584.155 -7.70633 605.604 7.08509Z" fill="url(#paint0_linear_19_134)"/>
</g>
<defs>
<linearGradient id="paint0_linear_19_134" x1="572.5" y1="31" x2="692.5" y2="229" gradientUnits="userSpaceOnUse">
<stop stop-color="#FF6200"/>
<stop offset="1" stop-color="#FFD700"/>
</linearGradient>
<clipPath id="clip0_19_134">
<rect width="789.445" height="381.033" fill="white"/>
</clipPath>
</defs>
</svg>
