<svg width="714" height="81" viewBox="0 0 714 81" fill="none" xmlns="http://www.w3.org/2000/svg">
<path d="M19.4661 1.35325H53.4017C51.8402 6.97448 47.4681 23.63 43.2002 40.4937C42.3674 43.8248 41.5346 47.1559 40.806 50.3829C46.3231 50.3829 52.9853 50.2788 59.4393 50.0706C58.1901 54.859 56.8369 59.8557 55.6918 64.6441C54.4426 69.6408 53.1935 74.5333 52.0484 79.4259H0C1.66555 73.2842 6.03762 57.0451 10.0974 40.3896C14.4695 23.2136 18.0088 8.84823 19.4661 1.35325Z" fill="#9EFF78"/>
<path d="M88.4595 79.4259H55.2526C58.3755 68.2875 61.1862 56.941 65.2459 40.3896C69.4098 23.8382 72.3245 12.4916 74.7187 1.35325H107.926C104.907 12.3875 102.096 23.7341 98.0364 40.2855C93.8726 56.8369 91.0619 68.1834 88.4595 79.4259Z" fill="#9EFF78"/>
<path d="M157.613 1.35325H189.987C180.827 20.9235 160.736 68.7039 155.948 79.4259C150.326 79.4259 141.27 79.2177 131.068 79.2177C117.432 79.2177 109.52 79.3218 105.669 79.4259C106.606 68.5998 110.041 20.403 110.457 1.35325H143.248C141.79 8.22365 138.772 28.2102 137.002 45.0739C136.69 49.5501 136.169 54.5467 135.753 58.9188H136.273C137.939 54.5467 139.813 49.5501 141.686 45.178C148.349 28.3143 155.739 7.80726 157.613 1.35325Z" fill="#9EFF78"/>
<path d="M192.442 1.35325H256.149C255.42 3.85158 254.275 8.22365 253.338 11.7629C252.401 15.5104 251.256 20.1948 250.736 22.7972C239.91 22.589 228.355 22.589 219.299 22.589L217.425 30.2922C228.043 30.2922 239.181 30.1881 248.133 29.8758C246.988 34.2479 244.594 43.5125 243.449 48.405C234.809 48.0927 223.567 47.8845 213.053 47.8845L211.075 55.9C220.34 55.9 232.623 55.7959 242.616 55.6918C241.679 58.7106 240.43 63.6032 239.493 67.767C238.452 71.7227 237.307 76.303 236.683 79.4259H172.976C175.994 68.4957 179.013 57.0451 183.073 40.3896C187.237 23.8382 190.047 12.0752 192.442 1.35325Z" fill="#9EFF78"/>
<path d="M317.643 47.6763C318.475 40.5978 319.204 33.2069 319.724 26.6488C319.829 22.3808 320.245 17.2801 320.661 13.3244H320.141C318.475 17.2801 316.497 22.2767 314.416 26.7529C311.605 33.311 308.69 40.5978 306.088 47.6763H317.643ZM296.511 1.35325H350.121C349.496 11.7629 346.998 59.6475 347.31 79.4259H312.646C313.375 76.4071 314.311 71.4104 315.248 65.3728H299.53C297.448 71.3063 295.782 76.303 294.949 79.4259H261.326C271.111 59.7516 292.451 11.5547 296.511 1.35325Z" fill="#9EFF78"/>
<path d="M403.388 34.9765C403.7 33.8315 404.013 32.6864 404.221 31.7495C406.095 24.2546 404.325 21.7562 399.433 21.7562C394.228 21.8603 391.001 24.6709 387.565 38.724C384.13 52.3607 386.316 56.3164 391.833 56.3164C396.414 56.3164 399.224 52.4648 400.682 46.6354C400.994 45.4903 401.202 44.1371 401.514 42.7838C406.511 42.8879 411.82 42.8879 417.025 42.8879C422.23 42.8879 427.435 42.8879 432.535 42.7838C432.223 45.0739 431.703 47.26 431.182 49.2378C425.249 72.8678 414.735 80.7791 388.19 80.7791C357.273 80.7791 347.905 66.5179 355.4 36.8503C362.166 9.47281 375.49 0 402.451 0C432.639 0 440.447 11.0343 436.491 27.4816C435.866 29.7717 435.138 32.27 434.201 34.9765C429.1 34.7683 423.895 34.7683 418.795 34.7683C413.694 34.7683 408.385 34.7683 403.388 34.9765Z" fill="#9EFF78"/>
<path d="M444.893 1.35325H507.351C506.31 4.99664 504.853 10.722 503.603 15.8227C502.25 20.8194 500.793 26.9611 499.96 30.9168C495.171 30.8127 490.487 30.7086 485.907 30.7086C480.39 53.2976 475.289 74.4292 474.248 79.53C469.668 79.2177 462.069 79.2177 456.656 79.2177C451.243 79.2177 443.852 79.2177 439.063 79.53C440.625 74.4292 446.038 53.2976 451.659 30.7086C447.079 30.8127 442.29 30.8127 437.502 30.9168C438.647 26.9611 440.104 20.8194 441.458 15.8227C442.707 10.722 444.164 4.99664 444.893 1.35325Z" fill="#9EFF78"/>
<path d="M524.633 79.4259H491.426C494.549 68.2875 497.36 56.941 501.42 40.3896C505.584 23.8382 508.498 12.4916 510.893 1.35325H544.099C541.081 12.3875 538.27 23.7341 534.21 40.2855C530.046 56.8369 527.236 68.1834 524.633 79.4259Z" fill="#9EFF78"/>
<path d="M621.373 42.992C614.606 70.2653 600.762 80.7791 574.217 80.7791C541.114 80.7791 532.578 66.2056 540.073 35.3929C546.735 8.32774 561.725 0 587.229 0C618.25 0 629.076 11.9711 621.373 42.992ZM576.611 56.5246C582.128 56.5246 585.772 52.5689 588.999 39.5568C592.33 26.5447 590.664 21.9644 584.418 21.9644C578.901 21.9644 575.154 25.6078 572.031 38.0994C568.596 52.2566 570.365 56.5246 576.611 56.5246Z" fill="#9EFF78"/>
<path d="M686.623 1.35325H714C712.022 8.11955 707.962 23.7341 703.903 40.2855C699.531 57.6696 696.512 69.5367 694.43 79.4259H661.431C660.39 73.076 657.788 63.9154 655.498 55.4836C654.665 50.1747 654.04 44.7616 653.832 39.3486L653.416 39.4527C652.271 46.0108 651.022 51.8402 649.668 57.9819C647.17 68.808 645.296 76.1989 644.776 79.4259H616.878C619.584 68.808 622.707 57.0451 626.767 40.3896C630.931 23.8382 633.95 12.0752 636.344 1.35325H671.529C671.737 5.72533 674.756 18.4251 676.421 28.002C677.046 31.9577 677.566 36.4339 677.774 41.2223L678.191 41.0141C679.232 35.497 680.273 30.2922 681.21 26.1283C683.396 16.9678 685.582 7.18268 686.623 1.35325Z" fill="#9EFF78"/>
</svg>
