<svg width="861" height="85" viewBox="0 0 861 85" fill="none" xmlns="http://www.w3.org/2000/svg">
<mask id="path-1-outside-1_41_33" maskUnits="userSpaceOnUse" x="-0.338564" y="0" width="861.47" height="85.0464" fill="black">
<rect fill="white" x="-0.338564" width="861.47" height="85.0464"/>
<path d="M52.8185 35.2993C57.501 35.1952 60.2065 33.2181 61.5592 27.8072C63.1201 21.5638 60.9349 19.4826 56.7726 19.4826C54.2753 19.4826 51.6738 19.4826 48.8643 19.6908C47.7197 24.0611 46.3669 29.4721 44.9101 35.1952C47.8237 35.2993 50.4252 35.2993 52.8185 35.2993ZM54.6915 56.839C56.3564 50.1794 54.3793 47.9942 49.5927 47.9942C47.3035 47.9942 44.598 48.0983 41.6844 48.2023C40.3316 53.6133 39.083 58.9202 38.0424 63.4987C40.956 63.7068 43.5574 63.7068 45.8467 63.7068C50.7373 63.7068 53.4428 62.0419 54.6915 56.839ZM22.1217 3.35383H72.069C88.3019 3.35383 96.7305 11.6784 93.0885 25.622C91.1114 33.5303 87.7816 37.2764 79.9773 39.7737C77.8962 40.5021 75.3988 40.9183 72.5893 41.2305L72.3812 41.8549C74.3582 41.9589 76.0231 42.2711 77.2718 42.6873C85.7004 45.2887 87.3653 52.2605 84.972 61.9378C81.4341 76.2977 73.5258 81.3965 55.5239 81.3965H2.66308C5.88884 70.2624 8.80243 58.9202 12.8606 42.3751C17.0229 25.8301 19.8325 14.2798 22.1217 3.35383ZM104.084 3.35383H167.766C167.038 5.8512 165.893 10.2216 164.957 13.7595C164.02 17.5056 162.876 22.1881 162.355 24.7895C151.533 24.5814 139.983 24.5814 130.93 24.5814L129.057 32.2816C139.671 32.2816 150.805 32.1776 159.754 31.8654C158.609 36.2358 156.216 45.4968 155.071 50.3875C146.435 50.0753 135.197 49.8672 124.687 49.8672L122.71 57.8796C131.971 57.8796 144.249 57.7756 154.239 57.6715C153.302 60.6891 152.054 65.5798 151.117 69.7421C150.077 73.6963 148.932 78.2748 148.308 81.3965H84.6249C87.6425 70.4705 90.6602 59.0242 94.7184 42.3751C98.8807 25.8301 101.69 14.0717 104.084 3.35383ZM170.521 3.35383H232.955C231.915 6.99582 230.458 12.7189 229.209 17.8177C227.857 22.8125 226.4 28.9518 225.567 32.906C220.781 32.8019 216.098 32.6979 211.52 32.6979C206.005 55.2782 200.906 76.4017 199.865 81.5005C195.287 81.1883 187.691 81.1883 182.28 81.1883C176.869 81.1883 169.481 81.1883 164.694 81.5005C166.255 76.4017 171.666 55.2782 177.285 32.6979C172.707 32.8019 167.92 32.8019 163.133 32.906C164.278 28.9518 165.735 22.8125 167.087 17.8177C168.336 12.7189 169.793 6.99582 170.521 3.35383ZM300.518 3.35383H330.486C323.41 14.3839 304.784 47.4739 298.957 57.2553C296.043 69.2218 294.066 78.2748 293.442 81.5005C288.031 81.2924 279.602 81.1883 273.255 81.1883C267.011 81.1883 258.479 81.2924 253.172 81.5005C254.212 78.2748 256.71 69.1177 259.831 57.0472C259.311 46.6415 256.71 13.9676 254.941 3.35383H286.262C285.846 7.09987 285.117 17.0893 284.389 26.7666C283.973 31.7613 283.452 37.3804 283.14 41.8549H283.973C285.846 37.3804 288.135 31.8654 290.32 26.8707C294.69 17.1934 299.165 7.09987 300.518 3.35383ZM399.015 44.9766C392.251 72.2394 378.411 82.7492 351.877 82.7492C318.787 82.7492 310.254 68.1812 317.746 37.3804C324.406 10.3256 339.39 2.00109 364.884 2.00109C395.893 2.00109 406.715 13.9676 399.015 44.9766ZM354.27 58.504C359.785 58.504 363.427 54.5498 366.653 41.5427C369.983 28.5356 368.318 23.9571 362.075 23.9571C356.56 23.9571 352.813 27.5991 349.692 40.0859C346.258 54.2376 348.027 58.504 354.27 58.504ZM459.869 3.35383H491.919C489.942 10.5337 487.965 17.6096 485.363 28.1194C483.594 35.1952 480.993 46.3293 478.912 54.4457C474.541 72.1354 463.823 82.7492 437.601 82.7492C403.262 82.7492 397.539 68.9096 402.014 50.5956C403.679 43.936 406.28 34.2587 407.841 28.1194C410.442 17.6096 412.003 10.5337 413.564 3.35383H446.238C442.492 16.8812 437.393 36.652 434.479 48.7226C433.023 54.4457 434.479 57.5674 440.203 57.5674C444.989 57.5674 447.382 54.862 449.047 48.7226C451.961 36.652 456.643 16.8812 459.869 3.35383ZM527.512 40.3981C532.299 40.3981 534.9 38.0048 536.461 32.1776C538.438 24.0611 536.149 21.7719 530.634 21.7719C529.385 21.7719 526.783 21.8759 524.286 21.98C522.829 28.1194 521.269 34.3628 519.812 40.294C521.893 40.3981 524.494 40.3981 527.512 40.3981ZM498.376 3.35383H543.953C562.787 3.35383 572.256 12.1987 567.99 29.7843C564.868 42.3751 558.209 47.2658 544.473 48.8267L544.265 49.5551C554.983 51.0119 558.625 54.5498 557.896 65.4758C557.792 70.5745 557.168 77.6504 557.168 81.3965H530.634C526.055 81.3965 525.119 79.7315 525.535 73.0719C526.992 59.3364 526.471 56.6309 520.956 56.6309C518.875 56.6309 518.043 56.6309 516.066 56.735C513.776 66.6204 512.007 75.3612 511.175 81.3965H478.917C481.935 70.1583 484.849 59.0242 489.011 42.3751C493.173 25.8301 495.879 14.592 498.376 3.35383ZM685.247 3.35383H710.845C702.104 22.3962 682.021 71.407 677.963 81.3965C673.696 81.3965 667.245 81.1883 660.065 81.1883C649.867 81.1883 643.208 81.2924 640.502 81.3965C641.127 76.4017 642.687 64.5392 644.248 52.6768C645.185 46.8496 646.225 39.9818 647.266 33.6344H646.642C644.456 40.1899 642.167 47.2658 639.982 52.8849C635.612 64.3311 631.033 76.0896 629.056 81.3965C625.206 81.3965 618.026 81.1883 610.638 81.1883C601.377 81.1883 595.758 81.2924 593.156 81.3965C594.093 69.9502 598.463 22.2922 598.983 3.35383H629.888C628.848 8.45261 625.518 28.3275 623.645 42.167C623.125 46.0171 622.5 50.3875 622.084 54.1336H622.708C624.061 50.2835 625.622 45.9131 627.183 41.9589C632.49 28.0153 639.254 9.80535 641.127 3.35383C645.081 3.35383 653.301 3.56194 657.88 3.56194C662.354 3.56194 670.262 3.35383 674.113 3.35383C672.968 9.07695 669.638 28.2234 667.869 42.167C667.453 46.3293 666.829 50.6997 666.412 54.3417H666.933C668.285 50.5956 669.846 46.2252 671.407 42.167C676.714 28.0153 683.165 9.90941 685.247 3.35383ZM741.558 49.6591C742.39 42.5833 743.118 35.1952 743.639 28.6396C743.743 24.3733 744.159 19.2745 744.575 15.3204H744.055C742.39 19.2745 740.413 24.2693 738.332 28.7437C735.522 35.2993 732.609 42.5833 730.007 49.6591H741.558ZM720.434 3.35383H774.023C773.399 13.7595 770.902 61.6257 771.214 81.3965H736.563C737.291 78.3788 738.228 73.3841 739.164 67.3488H723.452C721.371 73.28 719.706 78.2748 718.873 81.3965H685.263C695.044 61.7297 716.376 13.5514 720.434 3.35383ZM827.37 3.35383H857.339C850.263 14.3839 831.637 47.4739 825.81 57.2553C822.896 69.2218 820.919 78.2748 820.294 81.5005C814.884 81.2924 806.455 81.1883 800.107 81.1883C793.864 81.1883 785.331 81.2924 780.025 81.5005C781.065 78.2748 783.562 69.1177 786.684 57.0472C786.164 46.6415 783.562 13.9676 781.793 3.35383H813.115C812.698 7.09987 811.97 17.0893 811.242 26.7666C810.825 31.7613 810.305 37.3804 809.993 41.8549H810.825C812.698 37.3804 814.988 31.8654 817.173 26.8707C821.543 17.1934 826.018 7.09987 827.37 3.35383Z"/>
</mask>
<path d="M52.8185 35.2993C57.501 35.1952 60.2065 33.2181 61.5592 27.8072C63.1201 21.5638 60.9349 19.4826 56.7726 19.4826C54.2753 19.4826 51.6738 19.4826 48.8643 19.6908C47.7197 24.0611 46.3669 29.4721 44.9101 35.1952C47.8237 35.2993 50.4252 35.2993 52.8185 35.2993ZM54.6915 56.839C56.3564 50.1794 54.3793 47.9942 49.5927 47.9942C47.3035 47.9942 44.598 48.0983 41.6844 48.2023C40.3316 53.6133 39.083 58.9202 38.0424 63.4987C40.956 63.7068 43.5574 63.7068 45.8467 63.7068C50.7373 63.7068 53.4428 62.0419 54.6915 56.839ZM22.1217 3.35383H72.069C88.3019 3.35383 96.7305 11.6784 93.0885 25.622C91.1114 33.5303 87.7816 37.2764 79.9773 39.7737C77.8962 40.5021 75.3988 40.9183 72.5893 41.2305L72.3812 41.8549C74.3582 41.9589 76.0231 42.2711 77.2718 42.6873C85.7004 45.2887 87.3653 52.2605 84.972 61.9378C81.4341 76.2977 73.5258 81.3965 55.5239 81.3965H2.66308C5.88884 70.2624 8.80243 58.9202 12.8606 42.3751C17.0229 25.8301 19.8325 14.2798 22.1217 3.35383ZM104.084 3.35383H167.766C167.038 5.8512 165.893 10.2216 164.957 13.7595C164.02 17.5056 162.876 22.1881 162.355 24.7895C151.533 24.5814 139.983 24.5814 130.93 24.5814L129.057 32.2816C139.671 32.2816 150.805 32.1776 159.754 31.8654C158.609 36.2358 156.216 45.4968 155.071 50.3875C146.435 50.0753 135.197 49.8672 124.687 49.8672L122.71 57.8796C131.971 57.8796 144.249 57.7756 154.239 57.6715C153.302 60.6891 152.054 65.5798 151.117 69.7421C150.077 73.6963 148.932 78.2748 148.308 81.3965H84.6249C87.6425 70.4705 90.6602 59.0242 94.7184 42.3751C98.8807 25.8301 101.69 14.0717 104.084 3.35383ZM170.521 3.35383H232.955C231.915 6.99582 230.458 12.7189 229.209 17.8177C227.857 22.8125 226.4 28.9518 225.567 32.906C220.781 32.8019 216.098 32.6979 211.52 32.6979C206.005 55.2782 200.906 76.4017 199.865 81.5005C195.287 81.1883 187.691 81.1883 182.28 81.1883C176.869 81.1883 169.481 81.1883 164.694 81.5005C166.255 76.4017 171.666 55.2782 177.285 32.6979C172.707 32.8019 167.92 32.8019 163.133 32.906C164.278 28.9518 165.735 22.8125 167.087 17.8177C168.336 12.7189 169.793 6.99582 170.521 3.35383ZM300.518 3.35383H330.486C323.41 14.3839 304.784 47.4739 298.957 57.2553C296.043 69.2218 294.066 78.2748 293.442 81.5005C288.031 81.2924 279.602 81.1883 273.255 81.1883C267.011 81.1883 258.479 81.2924 253.172 81.5005C254.212 78.2748 256.71 69.1177 259.831 57.0472C259.311 46.6415 256.71 13.9676 254.941 3.35383H286.262C285.846 7.09987 285.117 17.0893 284.389 26.7666C283.973 31.7613 283.452 37.3804 283.14 41.8549H283.973C285.846 37.3804 288.135 31.8654 290.32 26.8707C294.69 17.1934 299.165 7.09987 300.518 3.35383ZM399.015 44.9766C392.251 72.2394 378.411 82.7492 351.877 82.7492C318.787 82.7492 310.254 68.1812 317.746 37.3804C324.406 10.3256 339.39 2.00109 364.884 2.00109C395.893 2.00109 406.715 13.9676 399.015 44.9766ZM354.27 58.504C359.785 58.504 363.427 54.5498 366.653 41.5427C369.983 28.5356 368.318 23.9571 362.075 23.9571C356.56 23.9571 352.813 27.5991 349.692 40.0859C346.258 54.2376 348.027 58.504 354.27 58.504ZM459.869 3.35383H491.919C489.942 10.5337 487.965 17.6096 485.363 28.1194C483.594 35.1952 480.993 46.3293 478.912 54.4457C474.541 72.1354 463.823 82.7492 437.601 82.7492C403.262 82.7492 397.539 68.9096 402.014 50.5956C403.679 43.936 406.28 34.2587 407.841 28.1194C410.442 17.6096 412.003 10.5337 413.564 3.35383H446.238C442.492 16.8812 437.393 36.652 434.479 48.7226C433.023 54.4457 434.479 57.5674 440.203 57.5674C444.989 57.5674 447.382 54.862 449.047 48.7226C451.961 36.652 456.643 16.8812 459.869 3.35383ZM527.512 40.3981C532.299 40.3981 534.9 38.0048 536.461 32.1776C538.438 24.0611 536.149 21.7719 530.634 21.7719C529.385 21.7719 526.783 21.8759 524.286 21.98C522.829 28.1194 521.269 34.3628 519.812 40.294C521.893 40.3981 524.494 40.3981 527.512 40.3981ZM498.376 3.35383H543.953C562.787 3.35383 572.256 12.1987 567.99 29.7843C564.868 42.3751 558.209 47.2658 544.473 48.8267L544.265 49.5551C554.983 51.0119 558.625 54.5498 557.896 65.4758C557.792 70.5745 557.168 77.6504 557.168 81.3965H530.634C526.055 81.3965 525.119 79.7315 525.535 73.0719C526.992 59.3364 526.471 56.6309 520.956 56.6309C518.875 56.6309 518.043 56.6309 516.066 56.735C513.776 66.6204 512.007 75.3612 511.175 81.3965H478.917C481.935 70.1583 484.849 59.0242 489.011 42.3751C493.173 25.8301 495.879 14.592 498.376 3.35383ZM685.247 3.35383H710.845C702.104 22.3962 682.021 71.407 677.963 81.3965C673.696 81.3965 667.245 81.1883 660.065 81.1883C649.867 81.1883 643.208 81.2924 640.502 81.3965C641.127 76.4017 642.687 64.5392 644.248 52.6768C645.185 46.8496 646.225 39.9818 647.266 33.6344H646.642C644.456 40.1899 642.167 47.2658 639.982 52.8849C635.612 64.3311 631.033 76.0896 629.056 81.3965C625.206 81.3965 618.026 81.1883 610.638 81.1883C601.377 81.1883 595.758 81.2924 593.156 81.3965C594.093 69.9502 598.463 22.2922 598.983 3.35383H629.888C628.848 8.45261 625.518 28.3275 623.645 42.167C623.125 46.0171 622.5 50.3875 622.084 54.1336H622.708C624.061 50.2835 625.622 45.9131 627.183 41.9589C632.49 28.0153 639.254 9.80535 641.127 3.35383C645.081 3.35383 653.301 3.56194 657.88 3.56194C662.354 3.56194 670.262 3.35383 674.113 3.35383C672.968 9.07695 669.638 28.2234 667.869 42.167C667.453 46.3293 666.829 50.6997 666.412 54.3417H666.933C668.285 50.5956 669.846 46.2252 671.407 42.167C676.714 28.0153 683.165 9.90941 685.247 3.35383ZM741.558 49.6591C742.39 42.5833 743.118 35.1952 743.639 28.6396C743.743 24.3733 744.159 19.2745 744.575 15.3204H744.055C742.39 19.2745 740.413 24.2693 738.332 28.7437C735.522 35.2993 732.609 42.5833 730.007 49.6591H741.558ZM720.434 3.35383H774.023C773.399 13.7595 770.902 61.6257 771.214 81.3965H736.563C737.291 78.3788 738.228 73.3841 739.164 67.3488H723.452C721.371 73.28 719.706 78.2748 718.873 81.3965H685.263C695.044 61.7297 716.376 13.5514 720.434 3.35383ZM827.37 3.35383H857.339C850.263 14.3839 831.637 47.4739 825.81 57.2553C822.896 69.2218 820.919 78.2748 820.294 81.5005C814.884 81.2924 806.455 81.1883 800.107 81.1883C793.864 81.1883 785.331 81.2924 780.025 81.5005C781.065 78.2748 783.562 69.1177 786.684 57.0472C786.164 46.6415 783.562 13.9676 781.793 3.35383H813.115C812.698 7.09987 811.97 17.0893 811.242 26.7666C810.825 31.7613 810.305 37.3804 809.993 41.8549H810.825C812.698 37.3804 814.988 31.8654 817.173 26.8707C821.543 17.1934 826.018 7.09987 827.37 3.35383Z" stroke="white" stroke-width="4" mask="url(#path-1-outside-1_41_33)"/>
</svg>
