<svg width="273" height="70" viewBox="0 0 273 70" fill="none" xmlns="http://www.w3.org/2000/svg">
<mask id="path-1-outside-1_41_45" maskUnits="userSpaceOnUse" x="-0.687776" y="0" width="274.11" height="70.0281" fill="black">
<rect fill="white" x="-0.687776" width="274.11" height="70.0281"/>
<path d="M20.8689 12.489C21.7332 9.17568 21.0489 8.23931 18.8521 8.23931C18.4559 8.23931 17.6996 8.23931 16.9793 8.27532C16.295 11.0844 15.6108 13.7855 15.0345 16.2705C15.5027 16.3065 16.0429 16.3065 16.6912 16.3065C19.1762 16.3065 20.1486 15.4782 20.8689 12.489ZM8.04773 1.5046H21.9493C29.5123 1.5046 33.1138 4.27772 30.8809 13.4254C29.1522 20.3402 26.127 22.8972 17.2674 22.8972C16.223 22.8972 14.8545 22.8972 13.5219 22.8612C13.0537 25.022 12.6576 26.9308 12.4055 28.5154H1.31303C2.39346 24.5899 3.36585 20.7723 4.80643 15.01C6.24701 9.28372 7.18338 5.32213 8.04773 1.5046ZM35.8323 1.5046H47.573C47.0328 3.44938 45.5202 9.2117 44.0436 15.046C43.7555 16.1985 43.4674 17.351 43.2153 18.4674C45.124 18.4674 47.429 18.4314 49.6619 18.3594C49.2297 20.016 48.7615 21.7447 48.3653 23.4014C47.9332 25.1301 47.501 26.8228 47.1048 28.5154H29.0976C29.6738 26.3906 31.1864 20.7723 32.591 15.01C34.1036 9.06764 35.3281 4.09764 35.8323 1.5046ZM67.0129 17.531C67.3011 15.0821 67.5532 12.525 67.7332 10.2561C67.7692 8.77952 67.9133 7.01482 68.0574 5.64626H67.8773C67.3011 7.01482 66.6168 8.74351 65.8965 10.2921C64.9241 12.561 63.9157 15.0821 63.0153 17.531H67.0129ZM59.702 1.5046H78.2494C78.0334 5.10605 77.169 21.6727 77.2771 28.5154H65.2842C65.5363 27.471 65.8605 25.7423 66.1846 23.6535H60.7464C60.0261 25.7063 59.4499 27.435 59.1618 28.5154H47.5291C50.9145 21.7087 58.2974 5.03402 59.702 1.5046ZM97.4333 1.5046H107.805C105.357 5.32213 98.9099 16.7747 96.8931 20.1601C95.8847 24.3017 95.2004 27.435 94.9843 28.5515C93.1116 28.4794 90.1944 28.4434 87.9975 28.4434C85.8367 28.4434 82.8835 28.4794 81.0468 28.5515C81.4069 27.435 82.2712 24.2657 83.3517 20.0881C83.1716 16.4866 82.2712 5.17808 81.659 1.5046H92.4994C92.3553 2.80112 92.1032 6.25851 91.8511 9.60785C91.707 11.3365 91.527 13.2813 91.4189 14.8299H91.707C92.3553 13.2813 93.1476 11.3726 93.9039 9.64387C95.4165 6.29453 96.9651 2.80112 97.4333 1.5046ZM146.335 1.5046H155.195C152.17 8.09525 145.219 25.0581 143.814 28.5154C142.338 28.5154 140.105 28.4434 137.62 28.4434C134.09 28.4434 131.785 28.4794 130.849 28.5154C131.065 26.7867 131.605 22.6811 132.146 18.5755C132.47 16.5586 132.83 14.1817 133.19 11.9848H132.974C132.218 14.2537 131.425 16.7027 130.669 18.6475C129.156 22.6091 127.572 26.6787 126.888 28.5154C125.555 28.5154 123.07 28.4434 120.513 28.4434C117.308 28.4434 115.363 28.4794 114.463 28.5154C114.787 24.5538 116.299 8.05923 116.479 1.5046H127.176C126.815 3.26931 125.663 10.1481 125.015 14.938C124.835 16.2705 124.619 17.7831 124.475 19.0797H124.691C125.159 17.7471 125.699 16.2345 126.239 14.866C128.076 10.04 130.417 3.7375 131.065 1.5046C132.434 1.5046 135.279 1.57663 136.864 1.57663C138.412 1.57663 141.149 1.5046 142.482 1.5046C142.086 3.4854 140.933 10.1121 140.321 14.938C140.177 16.3786 139.961 17.8912 139.817 19.1517H139.997C140.465 17.8552 141.005 16.3426 141.545 14.938C143.382 10.04 145.615 3.77351 146.335 1.5046ZM172.774 1.5046H184.011C182.966 5.32213 181.922 9.28372 180.482 15.01C179.077 20.7363 178.141 24.5899 177.276 28.5154H166.04C166.724 26.0304 167.624 22.537 168.381 19.5118C167.624 19.4758 166.76 19.4758 165.896 19.4758C165.031 19.4758 164.203 19.4758 163.411 19.5118C162.654 22.537 161.79 26.0304 161.25 28.5154H150.049C151.13 24.6259 152.102 20.7363 153.507 15.01C154.947 9.28372 155.92 5.32213 156.784 1.5046H167.985C167.3 3.95359 166.4 7.51902 165.608 10.6163C166.4 10.6523 167.228 10.6523 168.093 10.6523C168.957 10.6523 169.821 10.6523 170.614 10.6163C171.37 7.51902 172.234 3.95359 172.774 1.5046ZM198.269 17.531C198.557 15.0821 198.809 12.525 198.989 10.2561C199.025 8.77952 199.169 7.01482 199.313 5.64626H199.133C198.557 7.01482 197.873 8.74351 197.152 10.2921C196.18 12.561 195.171 15.0821 194.271 17.531H198.269ZM190.958 1.5046H209.505C209.289 5.10605 208.425 21.6727 208.533 28.5154H196.54C196.792 27.471 197.116 25.7423 197.44 23.6535H192.002C191.282 25.7063 190.706 27.435 190.418 28.5154H178.785C182.17 21.7087 189.553 5.03402 190.958 1.5046ZM214.191 1.5046H235.8C235.44 2.76511 234.935 4.7459 234.503 6.51061C234.035 8.23931 233.531 10.3642 233.243 11.7327C231.586 11.6967 229.965 11.6607 228.381 11.6607C226.472 19.4758 224.707 26.7867 224.347 28.5515C222.762 28.4434 220.133 28.4434 218.261 28.4434C216.388 28.4434 213.831 28.4434 212.174 28.5515C212.714 26.7867 214.587 19.4758 216.532 11.6607C214.947 11.6967 213.291 11.6967 211.634 11.7327C212.03 10.3642 212.534 8.23931 213.003 6.51061C213.435 4.7459 213.939 2.76511 214.191 1.5046ZM237.601 1.5046C238.646 1.57663 240.482 1.61265 242.319 1.61265C243.868 1.61265 246.605 1.54062 247.901 1.5046C246.497 4.38576 242.175 13.5694 241.131 15.8023C239.006 15.5863 235.008 15.1181 233.027 15.01C234.18 12.2729 236.917 4.02562 237.601 1.5046ZM254.978 22.6451C256.635 22.6451 257.283 22.2849 257.571 21.1325C257.967 19.5478 257.499 18.6475 253.79 17.9992C246.551 16.7027 245.326 13.7135 246.515 9.06764C247.919 3.30533 251.449 1.0004 259.984 1.0004C269.816 1.0004 272.373 3.80953 271.221 8.45539C271.077 8.99561 270.897 9.60785 270.717 10.2561C269.312 10.1121 266.899 10.004 264.954 10.004C263.73 10.004 262.613 10.004 261.893 10.076C262.001 9.78793 262.037 9.53583 262.109 9.35575C262.433 8.09525 262.073 7.33895 259.984 7.33895C258.364 7.33895 257.643 7.80713 257.391 8.77952C257.031 10.1841 257.319 11.0124 261.461 11.8408C268.051 13.2453 269.78 15.6583 268.448 21.0244C267.043 26.6427 264.162 29.0196 255.158 29.0196C245.11 29.0196 242.301 26.2825 243.526 21.3846C243.67 20.8083 243.85 20.1241 244.066 19.4398C245.687 19.5478 248.027 19.7279 250.26 19.7279C251.341 19.7279 252.349 19.6919 253.033 19.6559C252.961 19.908 252.889 20.1601 252.817 20.3762C252.457 21.8528 252.889 22.6451 254.978 22.6451ZM40.1681 41.5207H61.7768C61.4166 42.7812 60.9124 44.762 60.4803 46.5267C60.0121 48.2554 59.5079 50.3802 59.2198 51.7488C57.5631 51.7127 55.9424 51.6767 54.3578 51.6767C52.449 59.4919 50.6843 66.8028 50.3242 68.5675C48.7396 68.4595 46.1105 68.4595 44.2377 68.4595C42.365 68.4595 39.808 68.4595 38.1513 68.5675C38.6915 66.8028 40.5643 59.4919 42.5091 51.6767C40.9244 51.7127 39.2677 51.7127 37.6111 51.7488C38.0072 50.3802 38.5114 48.2554 38.9796 46.5267C39.4118 44.762 39.916 42.7812 40.1681 41.5207ZM73.8425 54.3418C75.4991 54.3418 76.3995 53.5135 76.9397 51.4967C77.624 48.6875 76.8317 47.8952 74.9229 47.8952C74.4907 47.8952 73.5904 47.9312 72.726 47.9672C72.2218 50.0921 71.6816 52.253 71.1774 54.3058C71.8977 54.3418 72.798 54.3418 73.8425 54.3418ZM63.7584 41.5207H79.5327C86.0514 41.5207 89.3287 44.5819 87.8521 50.6683C86.7716 55.0261 84.4667 56.7187 79.7128 57.259L79.6408 57.5111C83.3503 58.0153 84.6108 59.2398 84.3587 63.0213C84.3227 64.786 84.1066 67.235 84.1066 68.5315H74.9229C73.3383 68.5315 73.0141 67.9553 73.1582 65.6503C73.6624 60.8964 73.4823 59.9601 71.5736 59.9601C70.8533 59.9601 70.5651 59.9601 69.8809 59.9961C69.0886 63.4174 68.4763 66.4427 68.1882 68.5315H57.0237C58.0681 64.6419 59.0765 60.7884 60.5171 55.0261C61.9577 49.2998 62.8941 45.4102 63.7584 41.5207ZM92.7379 41.5207H114.779C114.527 42.385 114.131 43.8976 113.806 45.1221C113.482 46.4186 113.086 48.0393 112.906 48.9396C109.161 48.8676 105.163 48.8676 102.03 48.8676L101.381 51.5327C105.055 51.5327 108.908 51.4967 112.006 51.3886C111.61 52.9012 110.781 56.1065 110.385 57.7992C107.396 57.6911 103.506 57.6191 99.8688 57.6191L99.1845 60.3922C102.39 60.3922 106.64 60.3562 110.097 60.3202C109.773 61.3646 109.341 63.0573 109.016 64.4979C108.656 65.8664 108.26 67.4511 108.044 68.5315H86.0032C87.0477 64.75 88.0921 60.7884 89.4966 55.0261C90.9372 49.2998 91.9096 45.2301 92.7379 41.5207ZM134.964 41.5207H144.436C143.752 43.8616 142.347 49.2638 140.942 54.9901C139.43 61.0045 138.385 65.1101 137.665 68.5315H126.249C125.888 66.3346 124.988 63.1653 124.196 60.2482C123.908 58.4114 123.692 56.5387 123.619 54.6659L123.475 54.7019C123.079 56.9708 122.647 58.9877 122.179 61.1125C121.315 64.858 120.666 67.415 120.486 68.5315H110.834C111.771 64.858 112.851 60.7884 114.256 55.0261C115.696 49.2998 116.741 45.2301 117.569 41.5207H129.742C129.814 43.0333 130.858 47.427 131.435 50.7404C131.651 52.1089 131.831 53.6575 131.903 55.3142L132.047 55.2422C132.407 53.3334 132.767 51.5327 133.091 50.0921C133.848 46.9228 134.604 43.5375 134.964 41.5207ZM160.212 55.1341C161.581 49.6239 160.68 48.6515 158.555 48.6515C157.907 48.6515 157.259 48.6875 156.611 48.7235C156.07 50.7043 155.566 52.7932 155.026 54.918C154.45 57.223 154.018 58.9877 153.658 60.4643C154.27 60.5003 154.882 60.5003 155.53 60.5003C157.871 60.5003 159.06 59.708 160.212 55.1341ZM147.427 41.5207H160.968C169.972 41.5207 173.826 44.762 171.016 56.0345C168.495 66.0825 164.426 68.5315 155.386 68.5315H140.692C141.737 64.714 142.709 60.7884 144.15 55.0621C145.59 49.3358 146.599 45.1941 147.427 41.5207ZM181.655 68.5315H170.166C171.246 64.6779 172.219 60.7524 173.623 55.0261C175.064 49.2998 176.072 45.3742 176.901 41.5207H188.389C187.345 45.3382 186.372 49.2638 184.968 54.9901C183.527 60.7164 182.555 64.6419 181.655 68.5315ZM208.857 41.5207H218.329C217.644 43.8616 216.24 49.2638 214.835 54.9901C213.323 61.0045 212.278 65.1101 211.558 68.5315H200.141C199.781 66.3346 198.881 63.1653 198.089 60.2482C197.801 58.4114 197.584 56.5387 197.512 54.6659L197.368 54.7019C196.972 56.9708 196.54 58.9877 196.072 61.1125C195.207 64.858 194.559 67.415 194.379 68.5315H184.727C185.664 64.858 186.744 60.7884 188.149 55.0261C189.589 49.2998 190.634 45.2301 191.462 41.5207H203.635C203.707 43.0333 204.751 47.427 205.328 50.7404C205.544 52.1089 205.724 53.6575 205.796 55.3142L205.94 55.2422C206.3 53.3334 206.66 51.5327 206.984 50.0921C207.741 46.9228 208.497 43.5375 208.857 41.5207ZM234.069 41.0525C244.909 41.0525 247.322 45.1581 246.026 50.4162C245.954 50.7404 245.81 51.0645 245.702 51.4246C244.081 51.3886 242.028 51.3526 239.975 51.3526C238.031 51.3526 236.122 51.3526 234.717 51.4246C234.861 51.0645 234.933 50.6683 235.005 50.3442C235.474 48.5435 234.789 47.6791 233.133 47.6791C231.08 47.6791 229.819 49.3718 228.595 54.3778C227.226 59.924 227.514 61.8688 230.179 61.8688C231.764 61.8688 232.7 61.0765 233.493 58.9156C232.376 58.9516 231.224 58.9516 230.252 58.9877C230.432 58.3394 230.864 56.5747 231.008 55.9264C231.296 54.882 231.548 53.9096 231.692 53.1893C233.961 53.2614 236.302 53.2614 237.995 53.2614C239.975 53.2614 242.568 53.2614 245.234 53.1893C243.037 64.6419 240.444 68.9997 228.955 68.9997C218.655 68.9997 214.765 64.5339 217.43 54.0177C219.915 44.1137 224.777 41.0525 234.069 41.0525Z"/>
</mask>
<path d="M20.8689 12.489C21.7332 9.17568 21.0489 8.23931 18.8521 8.23931C18.4559 8.23931 17.6996 8.23931 16.9793 8.27532C16.295 11.0844 15.6108 13.7855 15.0345 16.2705C15.5027 16.3065 16.0429 16.3065 16.6912 16.3065C19.1762 16.3065 20.1486 15.4782 20.8689 12.489ZM8.04773 1.5046H21.9493C29.5123 1.5046 33.1138 4.27772 30.8809 13.4254C29.1522 20.3402 26.127 22.8972 17.2674 22.8972C16.223 22.8972 14.8545 22.8972 13.5219 22.8612C13.0537 25.022 12.6576 26.9308 12.4055 28.5154H1.31303C2.39346 24.5899 3.36585 20.7723 4.80643 15.01C6.24701 9.28372 7.18338 5.32213 8.04773 1.5046ZM35.8323 1.5046H47.573C47.0328 3.44938 45.5202 9.2117 44.0436 15.046C43.7555 16.1985 43.4674 17.351 43.2153 18.4674C45.124 18.4674 47.429 18.4314 49.6619 18.3594C49.2297 20.016 48.7615 21.7447 48.3653 23.4014C47.9332 25.1301 47.501 26.8228 47.1048 28.5154H29.0976C29.6738 26.3906 31.1864 20.7723 32.591 15.01C34.1036 9.06764 35.3281 4.09764 35.8323 1.5046ZM67.0129 17.531C67.3011 15.0821 67.5532 12.525 67.7332 10.2561C67.7692 8.77952 67.9133 7.01482 68.0574 5.64626H67.8773C67.3011 7.01482 66.6168 8.74351 65.8965 10.2921C64.9241 12.561 63.9157 15.0821 63.0153 17.531H67.0129ZM59.702 1.5046H78.2494C78.0334 5.10605 77.169 21.6727 77.2771 28.5154H65.2842C65.5363 27.471 65.8605 25.7423 66.1846 23.6535H60.7464C60.0261 25.7063 59.4499 27.435 59.1618 28.5154H47.5291C50.9145 21.7087 58.2974 5.03402 59.702 1.5046ZM97.4333 1.5046H107.805C105.357 5.32213 98.9099 16.7747 96.8931 20.1601C95.8847 24.3017 95.2004 27.435 94.9843 28.5515C93.1116 28.4794 90.1944 28.4434 87.9975 28.4434C85.8367 28.4434 82.8835 28.4794 81.0468 28.5515C81.4069 27.435 82.2712 24.2657 83.3517 20.0881C83.1716 16.4866 82.2712 5.17808 81.659 1.5046H92.4994C92.3553 2.80112 92.1032 6.25851 91.8511 9.60785C91.707 11.3365 91.527 13.2813 91.4189 14.8299H91.707C92.3553 13.2813 93.1476 11.3726 93.9039 9.64387C95.4165 6.29453 96.9651 2.80112 97.4333 1.5046ZM146.335 1.5046H155.195C152.17 8.09525 145.219 25.0581 143.814 28.5154C142.338 28.5154 140.105 28.4434 137.62 28.4434C134.09 28.4434 131.785 28.4794 130.849 28.5154C131.065 26.7867 131.605 22.6811 132.146 18.5755C132.47 16.5586 132.83 14.1817 133.19 11.9848H132.974C132.218 14.2537 131.425 16.7027 130.669 18.6475C129.156 22.6091 127.572 26.6787 126.888 28.5154C125.555 28.5154 123.07 28.4434 120.513 28.4434C117.308 28.4434 115.363 28.4794 114.463 28.5154C114.787 24.5538 116.299 8.05923 116.479 1.5046H127.176C126.815 3.26931 125.663 10.1481 125.015 14.938C124.835 16.2705 124.619 17.7831 124.475 19.0797H124.691C125.159 17.7471 125.699 16.2345 126.239 14.866C128.076 10.04 130.417 3.7375 131.065 1.5046C132.434 1.5046 135.279 1.57663 136.864 1.57663C138.412 1.57663 141.149 1.5046 142.482 1.5046C142.086 3.4854 140.933 10.1121 140.321 14.938C140.177 16.3786 139.961 17.8912 139.817 19.1517H139.997C140.465 17.8552 141.005 16.3426 141.545 14.938C143.382 10.04 145.615 3.77351 146.335 1.5046ZM172.774 1.5046H184.011C182.966 5.32213 181.922 9.28372 180.482 15.01C179.077 20.7363 178.141 24.5899 177.276 28.5154H166.04C166.724 26.0304 167.624 22.537 168.381 19.5118C167.624 19.4758 166.76 19.4758 165.896 19.4758C165.031 19.4758 164.203 19.4758 163.411 19.5118C162.654 22.537 161.79 26.0304 161.25 28.5154H150.049C151.13 24.6259 152.102 20.7363 153.507 15.01C154.947 9.28372 155.92 5.32213 156.784 1.5046H167.985C167.3 3.95359 166.4 7.51902 165.608 10.6163C166.4 10.6523 167.228 10.6523 168.093 10.6523C168.957 10.6523 169.821 10.6523 170.614 10.6163C171.37 7.51902 172.234 3.95359 172.774 1.5046ZM198.269 17.531C198.557 15.0821 198.809 12.525 198.989 10.2561C199.025 8.77952 199.169 7.01482 199.313 5.64626H199.133C198.557 7.01482 197.873 8.74351 197.152 10.2921C196.18 12.561 195.171 15.0821 194.271 17.531H198.269ZM190.958 1.5046H209.505C209.289 5.10605 208.425 21.6727 208.533 28.5154H196.54C196.792 27.471 197.116 25.7423 197.44 23.6535H192.002C191.282 25.7063 190.706 27.435 190.418 28.5154H178.785C182.17 21.7087 189.553 5.03402 190.958 1.5046ZM214.191 1.5046H235.8C235.44 2.76511 234.935 4.7459 234.503 6.51061C234.035 8.23931 233.531 10.3642 233.243 11.7327C231.586 11.6967 229.965 11.6607 228.381 11.6607C226.472 19.4758 224.707 26.7867 224.347 28.5515C222.762 28.4434 220.133 28.4434 218.261 28.4434C216.388 28.4434 213.831 28.4434 212.174 28.5515C212.714 26.7867 214.587 19.4758 216.532 11.6607C214.947 11.6967 213.291 11.6967 211.634 11.7327C212.03 10.3642 212.534 8.23931 213.003 6.51061C213.435 4.7459 213.939 2.76511 214.191 1.5046ZM237.601 1.5046C238.646 1.57663 240.482 1.61265 242.319 1.61265C243.868 1.61265 246.605 1.54062 247.901 1.5046C246.497 4.38576 242.175 13.5694 241.131 15.8023C239.006 15.5863 235.008 15.1181 233.027 15.01C234.18 12.2729 236.917 4.02562 237.601 1.5046ZM254.978 22.6451C256.635 22.6451 257.283 22.2849 257.571 21.1325C257.967 19.5478 257.499 18.6475 253.79 17.9992C246.551 16.7027 245.326 13.7135 246.515 9.06764C247.919 3.30533 251.449 1.0004 259.984 1.0004C269.816 1.0004 272.373 3.80953 271.221 8.45539C271.077 8.99561 270.897 9.60785 270.717 10.2561C269.312 10.1121 266.899 10.004 264.954 10.004C263.73 10.004 262.613 10.004 261.893 10.076C262.001 9.78793 262.037 9.53583 262.109 9.35575C262.433 8.09525 262.073 7.33895 259.984 7.33895C258.364 7.33895 257.643 7.80713 257.391 8.77952C257.031 10.1841 257.319 11.0124 261.461 11.8408C268.051 13.2453 269.78 15.6583 268.448 21.0244C267.043 26.6427 264.162 29.0196 255.158 29.0196C245.11 29.0196 242.301 26.2825 243.526 21.3846C243.67 20.8083 243.85 20.1241 244.066 19.4398C245.687 19.5478 248.027 19.7279 250.26 19.7279C251.341 19.7279 252.349 19.6919 253.033 19.6559C252.961 19.908 252.889 20.1601 252.817 20.3762C252.457 21.8528 252.889 22.6451 254.978 22.6451ZM40.1681 41.5207H61.7768C61.4166 42.7812 60.9124 44.762 60.4803 46.5267C60.0121 48.2554 59.5079 50.3802 59.2198 51.7488C57.5631 51.7127 55.9424 51.6767 54.3578 51.6767C52.449 59.4919 50.6843 66.8028 50.3242 68.5675C48.7396 68.4595 46.1105 68.4595 44.2377 68.4595C42.365 68.4595 39.808 68.4595 38.1513 68.5675C38.6915 66.8028 40.5643 59.4919 42.5091 51.6767C40.9244 51.7127 39.2677 51.7127 37.6111 51.7488C38.0072 50.3802 38.5114 48.2554 38.9796 46.5267C39.4118 44.762 39.916 42.7812 40.1681 41.5207ZM73.8425 54.3418C75.4991 54.3418 76.3995 53.5135 76.9397 51.4967C77.624 48.6875 76.8317 47.8952 74.9229 47.8952C74.4907 47.8952 73.5904 47.9312 72.726 47.9672C72.2218 50.0921 71.6816 52.253 71.1774 54.3058C71.8977 54.3418 72.798 54.3418 73.8425 54.3418ZM63.7584 41.5207H79.5327C86.0514 41.5207 89.3287 44.5819 87.8521 50.6683C86.7716 55.0261 84.4667 56.7187 79.7128 57.259L79.6408 57.5111C83.3503 58.0153 84.6108 59.2398 84.3587 63.0213C84.3227 64.786 84.1066 67.235 84.1066 68.5315H74.9229C73.3383 68.5315 73.0141 67.9553 73.1582 65.6503C73.6624 60.8964 73.4823 59.9601 71.5736 59.9601C70.8533 59.9601 70.5651 59.9601 69.8809 59.9961C69.0886 63.4174 68.4763 66.4427 68.1882 68.5315H57.0237C58.0681 64.6419 59.0765 60.7884 60.5171 55.0261C61.9577 49.2998 62.8941 45.4102 63.7584 41.5207ZM92.7379 41.5207H114.779C114.527 42.385 114.131 43.8976 113.806 45.1221C113.482 46.4186 113.086 48.0393 112.906 48.9396C109.161 48.8676 105.163 48.8676 102.03 48.8676L101.381 51.5327C105.055 51.5327 108.908 51.4967 112.006 51.3886C111.61 52.9012 110.781 56.1065 110.385 57.7992C107.396 57.6911 103.506 57.6191 99.8688 57.6191L99.1845 60.3922C102.39 60.3922 106.64 60.3562 110.097 60.3202C109.773 61.3646 109.341 63.0573 109.016 64.4979C108.656 65.8664 108.26 67.4511 108.044 68.5315H86.0032C87.0477 64.75 88.0921 60.7884 89.4966 55.0261C90.9372 49.2998 91.9096 45.2301 92.7379 41.5207ZM134.964 41.5207H144.436C143.752 43.8616 142.347 49.2638 140.942 54.9901C139.43 61.0045 138.385 65.1101 137.665 68.5315H126.249C125.888 66.3346 124.988 63.1653 124.196 60.2482C123.908 58.4114 123.692 56.5387 123.619 54.6659L123.475 54.7019C123.079 56.9708 122.647 58.9877 122.179 61.1125C121.315 64.858 120.666 67.415 120.486 68.5315H110.834C111.771 64.858 112.851 60.7884 114.256 55.0261C115.696 49.2998 116.741 45.2301 117.569 41.5207H129.742C129.814 43.0333 130.858 47.427 131.435 50.7404C131.651 52.1089 131.831 53.6575 131.903 55.3142L132.047 55.2422C132.407 53.3334 132.767 51.5327 133.091 50.0921C133.848 46.9228 134.604 43.5375 134.964 41.5207ZM160.212 55.1341C161.581 49.6239 160.68 48.6515 158.555 48.6515C157.907 48.6515 157.259 48.6875 156.611 48.7235C156.07 50.7043 155.566 52.7932 155.026 54.918C154.45 57.223 154.018 58.9877 153.658 60.4643C154.27 60.5003 154.882 60.5003 155.53 60.5003C157.871 60.5003 159.06 59.708 160.212 55.1341ZM147.427 41.5207H160.968C169.972 41.5207 173.826 44.762 171.016 56.0345C168.495 66.0825 164.426 68.5315 155.386 68.5315H140.692C141.737 64.714 142.709 60.7884 144.15 55.0621C145.59 49.3358 146.599 45.1941 147.427 41.5207ZM181.655 68.5315H170.166C171.246 64.6779 172.219 60.7524 173.623 55.0261C175.064 49.2998 176.072 45.3742 176.901 41.5207H188.389C187.345 45.3382 186.372 49.2638 184.968 54.9901C183.527 60.7164 182.555 64.6419 181.655 68.5315ZM208.857 41.5207H218.329C217.644 43.8616 216.24 49.2638 214.835 54.9901C213.323 61.0045 212.278 65.1101 211.558 68.5315H200.141C199.781 66.3346 198.881 63.1653 198.089 60.2482C197.801 58.4114 197.584 56.5387 197.512 54.6659L197.368 54.7019C196.972 56.9708 196.54 58.9877 196.072 61.1125C195.207 64.858 194.559 67.415 194.379 68.5315H184.727C185.664 64.858 186.744 60.7884 188.149 55.0261C189.589 49.2998 190.634 45.2301 191.462 41.5207H203.635C203.707 43.0333 204.751 47.427 205.328 50.7404C205.544 52.1089 205.724 53.6575 205.796 55.3142L205.94 55.2422C206.3 53.3334 206.66 51.5327 206.984 50.0921C207.741 46.9228 208.497 43.5375 208.857 41.5207ZM234.069 41.0525C244.909 41.0525 247.322 45.1581 246.026 50.4162C245.954 50.7404 245.81 51.0645 245.702 51.4246C244.081 51.3886 242.028 51.3526 239.975 51.3526C238.031 51.3526 236.122 51.3526 234.717 51.4246C234.861 51.0645 234.933 50.6683 235.005 50.3442C235.474 48.5435 234.789 47.6791 233.133 47.6791C231.08 47.6791 229.819 49.3718 228.595 54.3778C227.226 59.924 227.514 61.8688 230.179 61.8688C231.764 61.8688 232.7 61.0765 233.493 58.9156C232.376 58.9516 231.224 58.9516 230.252 58.9877C230.432 58.3394 230.864 56.5747 231.008 55.9264C231.296 54.882 231.548 53.9096 231.692 53.1893C233.961 53.2614 236.302 53.2614 237.995 53.2614C239.975 53.2614 242.568 53.2614 245.234 53.1893C243.037 64.6419 240.444 68.9997 228.955 68.9997C218.655 68.9997 214.765 64.5339 217.43 54.0177C219.915 44.1137 224.777 41.0525 234.069 41.0525Z" stroke="white" stroke-width="2" mask="url(#path-1-outside-1_41_45)"/>
</svg>
