<svg width="307" height="30" viewBox="0 0 307 30" fill="none" xmlns="http://www.w3.org/2000/svg">
<mask id="path-1-outside-1_41_43" maskUnits="userSpaceOnUse" x="-0.669695" y="0" width="308.233" height="30.0227" fill="black">
<rect fill="white" x="-0.669695" width="308.233" height="30.0227"/>
<path d="M18.6969 12.5295C20.3182 12.4934 21.2549 11.8089 21.7232 9.9355C22.2636 7.77387 21.5071 7.05333 20.066 7.05333C19.2013 7.05333 18.3006 7.05333 17.3279 7.12538C16.9316 8.63853 16.4632 10.5119 15.9589 12.4934C16.9676 12.5295 17.8683 12.5295 18.6969 12.5295ZM19.3454 19.9871C19.9219 17.6814 19.2373 16.9248 17.5801 16.9248C16.7875 16.9248 15.8508 16.9608 14.842 16.9968C14.3737 18.8703 13.9413 20.7076 13.5811 22.2928C14.5898 22.3649 15.4905 22.3649 16.2831 22.3649C17.9764 22.3649 18.9131 21.7885 19.3454 19.9871ZM8.06891 1.46911H25.362C30.9822 1.46911 33.9004 4.35129 32.6395 9.17893C31.955 11.917 30.8021 13.214 28.1 14.0786C27.3795 14.3308 26.5148 14.4749 25.5421 14.583L25.4701 14.7992C26.1546 14.8352 26.731 14.9433 27.1633 15.0874C30.0815 15.9881 30.658 18.4019 29.8293 21.7524C28.6044 26.7242 25.8664 28.4895 19.6336 28.4895H1.33182C2.44866 24.6346 3.45742 20.7076 4.86248 14.9793C6.30357 9.25099 7.27631 5.25197 8.06891 1.46911ZM37.1668 1.46911H59.2155C58.9633 2.33376 58.567 3.84691 58.2427 5.07183C57.9185 6.36881 57.5222 7.99004 57.342 8.89072C53.5952 8.81866 49.5962 8.81866 46.4618 8.81866L45.8133 11.4847C49.4881 11.4847 53.343 11.4486 56.4414 11.3406C56.0451 12.8537 55.2164 16.0601 54.8201 17.7534C51.8299 17.6453 47.9389 17.5733 44.3002 17.5733L43.6157 20.3474C46.8221 20.3474 51.0733 20.3113 54.5319 20.2753C54.2077 21.3201 53.7753 23.0134 53.4511 24.4545C53.0908 25.8235 52.6945 27.4087 52.4784 28.4895H30.4297C31.4745 24.7067 32.5193 20.7437 33.9243 14.9793C35.3654 9.25099 36.3382 5.17991 37.1668 1.46911ZM60.8899 1.46911H82.5062C82.1459 2.73006 81.6416 4.71156 81.2092 6.47689C80.7409 8.2062 80.2365 10.3318 79.9483 11.7008C78.291 11.6648 76.6698 11.6288 75.0846 11.6288C73.1752 19.4467 71.4098 26.7602 71.0495 28.5256C69.4644 28.4175 66.8344 28.4175 64.9609 28.4175C63.0875 28.4175 60.5296 28.4175 58.8724 28.5256C59.4128 26.7602 61.2862 19.4467 63.2316 11.6288C61.6464 11.6648 59.9892 11.6648 58.3319 11.7008C58.7282 10.3318 59.2326 8.2062 59.701 6.47689C60.1333 4.71156 60.6377 2.73006 60.8899 1.46911ZM107.339 1.46911H117.715C115.265 5.28799 108.816 16.7446 106.799 20.1312C105.79 24.2743 105.105 27.4087 104.889 28.5256C103.016 28.4535 100.098 28.4175 97.9 28.4175C95.7383 28.4175 92.7841 28.4535 90.9467 28.5256C91.307 27.4087 92.1716 24.2383 93.2524 20.0592C93.0723 16.4564 92.1716 5.14389 91.5592 1.46911H102.403C102.259 2.76609 102.007 6.2247 101.755 9.57523C101.611 11.3045 101.431 13.25 101.323 14.7992H101.611C102.259 13.25 103.052 11.3406 103.808 9.61126C105.322 6.26073 106.871 2.76609 107.339 1.46911ZM142.162 15.88C139.82 25.3191 135.029 28.9579 125.842 28.9579C114.385 28.9579 111.431 23.9141 114.025 13.25C116.33 3.88293 121.518 1.00076 130.345 1.00076C141.081 1.00076 144.828 5.14389 142.162 15.88ZM126.67 20.5635C128.58 20.5635 129.841 19.1945 130.957 14.6911C132.11 10.1877 131.534 8.6025 129.372 8.6025C127.463 8.6025 126.166 9.86345 125.085 14.1867C123.896 19.0864 124.509 20.5635 126.67 20.5635ZM163.952 1.46911H175.048C174.364 3.95499 173.679 6.40484 172.779 10.0436C172.166 12.4934 171.265 16.3484 170.545 19.1585C169.032 25.2831 165.321 28.9579 156.242 28.9579C144.353 28.9579 142.372 24.1663 143.921 17.8255C144.497 15.5197 145.398 12.1692 145.938 10.0436C146.839 6.40484 147.379 3.95499 147.92 1.46911H159.232C157.935 6.15265 156.17 12.9978 155.161 17.177C154.657 19.1585 155.161 20.2393 157.143 20.2393C158.8 20.2393 159.629 19.3026 160.205 17.177C161.214 12.9978 162.835 6.15265 163.952 1.46911ZM188.092 14.2948C189.749 14.2948 190.65 13.4662 191.19 11.4486C191.875 8.63853 191.082 7.84593 189.173 7.84593C188.741 7.84593 187.84 7.88195 186.975 7.91798C186.471 10.0436 185.93 12.2052 185.426 14.2588C186.147 14.2948 187.047 14.2948 188.092 14.2948ZM178.005 1.46911H193.784C200.305 1.46911 203.584 4.53142 202.107 10.62C201.026 14.9793 198.72 16.6726 193.965 17.213L193.893 17.4652C197.603 17.9696 198.864 19.1945 198.612 22.9774C198.576 24.7427 198.36 27.1925 198.36 28.4895H189.173C187.588 28.4895 187.264 27.9131 187.408 25.6073C187.912 20.8518 187.732 19.915 185.822 19.915C185.102 19.915 184.814 19.915 184.129 19.9511C183.337 23.3737 182.724 26.3999 182.436 28.4895H171.267C172.312 24.5986 173.321 20.7437 174.762 14.9793C176.203 9.25099 177.14 5.36005 178.005 1.46911ZM244.145 1.46911H253.008C249.982 8.06209 243.028 25.0309 241.623 28.4895C240.146 28.4895 237.912 28.4175 235.427 28.4175C231.896 28.4175 229.59 28.4535 228.653 28.4895C228.87 26.7602 229.41 22.6531 229.95 18.546C230.275 16.5285 230.635 14.1507 230.995 11.953H230.779C230.022 14.2227 229.23 16.6726 228.473 18.6181C226.96 22.5811 225.375 26.6521 224.69 28.4895C223.357 28.4895 220.872 28.4175 218.314 28.4175C215.107 28.4175 213.162 28.4535 212.261 28.4895C212.585 24.5265 214.098 8.02606 214.279 1.46911H224.979C224.618 3.23444 223.466 10.1156 222.817 14.9073C222.637 16.2403 222.421 17.7534 222.277 19.0504H222.493C222.961 17.7174 223.502 16.2042 224.042 14.8352C225.879 10.0076 228.221 3.7028 228.87 1.46911C230.239 1.46911 233.085 1.54116 234.67 1.54116C236.219 1.54116 238.957 1.46911 240.29 1.46911C239.894 3.45061 238.741 10.0796 238.129 14.9073C237.984 16.3484 237.768 17.8615 237.624 19.1224H237.804C238.273 17.8255 238.813 16.3123 239.354 14.9073C241.191 10.0076 243.425 3.73882 244.145 1.46911ZM264.362 17.5012C264.65 15.0514 264.902 12.4934 265.083 10.2237C265.119 8.74661 265.263 6.98128 265.407 5.61224H265.227C264.65 6.98128 263.966 8.71058 263.245 10.2597C262.272 12.5295 261.264 15.0514 260.363 17.5012H264.362ZM257.049 1.46911H275.603C275.386 5.07183 274.522 21.6444 274.63 28.4895H262.633C262.885 27.4447 263.209 25.7154 263.533 23.6258H258.093C257.373 25.6794 256.796 27.4087 256.508 28.4895H244.871C248.258 21.6804 255.643 4.99978 257.049 1.46911ZM294.793 1.46911H305.169C302.719 5.28799 296.27 16.7446 294.253 20.1312C293.244 24.2743 292.56 27.4087 292.343 28.5256C290.47 28.4535 287.552 28.4175 285.354 28.4175C283.192 28.4175 280.238 28.4535 278.401 28.5256C278.761 27.4087 279.626 24.2383 280.707 20.0592C280.526 16.4564 279.626 5.14389 279.013 1.46911H289.857C289.713 2.76609 289.461 6.2247 289.209 9.57523C289.065 11.3045 288.885 13.25 288.777 14.7992H289.065C289.713 13.25 290.506 11.3406 291.263 9.61126C292.776 6.26073 294.325 2.76609 294.793 1.46911Z"/>
</mask>
<path d="M18.6969 12.5295C20.3182 12.4934 21.2549 11.8089 21.7232 9.9355C22.2636 7.77387 21.5071 7.05333 20.066 7.05333C19.2013 7.05333 18.3006 7.05333 17.3279 7.12538C16.9316 8.63853 16.4632 10.5119 15.9589 12.4934C16.9676 12.5295 17.8683 12.5295 18.6969 12.5295ZM19.3454 19.9871C19.9219 17.6814 19.2373 16.9248 17.5801 16.9248C16.7875 16.9248 15.8508 16.9608 14.842 16.9968C14.3737 18.8703 13.9413 20.7076 13.5811 22.2928C14.5898 22.3649 15.4905 22.3649 16.2831 22.3649C17.9764 22.3649 18.9131 21.7885 19.3454 19.9871ZM8.06891 1.46911H25.362C30.9822 1.46911 33.9004 4.35129 32.6395 9.17893C31.955 11.917 30.8021 13.214 28.1 14.0786C27.3795 14.3308 26.5148 14.4749 25.5421 14.583L25.4701 14.7992C26.1546 14.8352 26.731 14.9433 27.1633 15.0874C30.0815 15.9881 30.658 18.4019 29.8293 21.7524C28.6044 26.7242 25.8664 28.4895 19.6336 28.4895H1.33182C2.44866 24.6346 3.45742 20.7076 4.86248 14.9793C6.30357 9.25099 7.27631 5.25197 8.06891 1.46911ZM37.1668 1.46911H59.2155C58.9633 2.33376 58.567 3.84691 58.2427 5.07183C57.9185 6.36881 57.5222 7.99004 57.342 8.89072C53.5952 8.81866 49.5962 8.81866 46.4618 8.81866L45.8133 11.4847C49.4881 11.4847 53.343 11.4486 56.4414 11.3406C56.0451 12.8537 55.2164 16.0601 54.8201 17.7534C51.8299 17.6453 47.9389 17.5733 44.3002 17.5733L43.6157 20.3474C46.8221 20.3474 51.0733 20.3113 54.5319 20.2753C54.2077 21.3201 53.7753 23.0134 53.4511 24.4545C53.0908 25.8235 52.6945 27.4087 52.4784 28.4895H30.4297C31.4745 24.7067 32.5193 20.7437 33.9243 14.9793C35.3654 9.25099 36.3382 5.17991 37.1668 1.46911ZM60.8899 1.46911H82.5062C82.1459 2.73006 81.6416 4.71156 81.2092 6.47689C80.7409 8.2062 80.2365 10.3318 79.9483 11.7008C78.291 11.6648 76.6698 11.6288 75.0846 11.6288C73.1752 19.4467 71.4098 26.7602 71.0495 28.5256C69.4644 28.4175 66.8344 28.4175 64.9609 28.4175C63.0875 28.4175 60.5296 28.4175 58.8724 28.5256C59.4128 26.7602 61.2862 19.4467 63.2316 11.6288C61.6464 11.6648 59.9892 11.6648 58.3319 11.7008C58.7282 10.3318 59.2326 8.2062 59.701 6.47689C60.1333 4.71156 60.6377 2.73006 60.8899 1.46911ZM107.339 1.46911H117.715C115.265 5.28799 108.816 16.7446 106.799 20.1312C105.79 24.2743 105.105 27.4087 104.889 28.5256C103.016 28.4535 100.098 28.4175 97.9 28.4175C95.7383 28.4175 92.7841 28.4535 90.9467 28.5256C91.307 27.4087 92.1716 24.2383 93.2524 20.0592C93.0723 16.4564 92.1716 5.14389 91.5592 1.46911H102.403C102.259 2.76609 102.007 6.2247 101.755 9.57523C101.611 11.3045 101.431 13.25 101.323 14.7992H101.611C102.259 13.25 103.052 11.3406 103.808 9.61126C105.322 6.26073 106.871 2.76609 107.339 1.46911ZM142.162 15.88C139.82 25.3191 135.029 28.9579 125.842 28.9579C114.385 28.9579 111.431 23.9141 114.025 13.25C116.33 3.88293 121.518 1.00076 130.345 1.00076C141.081 1.00076 144.828 5.14389 142.162 15.88ZM126.67 20.5635C128.58 20.5635 129.841 19.1945 130.957 14.6911C132.11 10.1877 131.534 8.6025 129.372 8.6025C127.463 8.6025 126.166 9.86345 125.085 14.1867C123.896 19.0864 124.509 20.5635 126.67 20.5635ZM163.952 1.46911H175.048C174.364 3.95499 173.679 6.40484 172.779 10.0436C172.166 12.4934 171.265 16.3484 170.545 19.1585C169.032 25.2831 165.321 28.9579 156.242 28.9579C144.353 28.9579 142.372 24.1663 143.921 17.8255C144.497 15.5197 145.398 12.1692 145.938 10.0436C146.839 6.40484 147.379 3.95499 147.92 1.46911H159.232C157.935 6.15265 156.17 12.9978 155.161 17.177C154.657 19.1585 155.161 20.2393 157.143 20.2393C158.8 20.2393 159.629 19.3026 160.205 17.177C161.214 12.9978 162.835 6.15265 163.952 1.46911ZM188.092 14.2948C189.749 14.2948 190.65 13.4662 191.19 11.4486C191.875 8.63853 191.082 7.84593 189.173 7.84593C188.741 7.84593 187.84 7.88195 186.975 7.91798C186.471 10.0436 185.93 12.2052 185.426 14.2588C186.147 14.2948 187.047 14.2948 188.092 14.2948ZM178.005 1.46911H193.784C200.305 1.46911 203.584 4.53142 202.107 10.62C201.026 14.9793 198.72 16.6726 193.965 17.213L193.893 17.4652C197.603 17.9696 198.864 19.1945 198.612 22.9774C198.576 24.7427 198.36 27.1925 198.36 28.4895H189.173C187.588 28.4895 187.264 27.9131 187.408 25.6073C187.912 20.8518 187.732 19.915 185.822 19.915C185.102 19.915 184.814 19.915 184.129 19.9511C183.337 23.3737 182.724 26.3999 182.436 28.4895H171.267C172.312 24.5986 173.321 20.7437 174.762 14.9793C176.203 9.25099 177.14 5.36005 178.005 1.46911ZM244.145 1.46911H253.008C249.982 8.06209 243.028 25.0309 241.623 28.4895C240.146 28.4895 237.912 28.4175 235.427 28.4175C231.896 28.4175 229.59 28.4535 228.653 28.4895C228.87 26.7602 229.41 22.6531 229.95 18.546C230.275 16.5285 230.635 14.1507 230.995 11.953H230.779C230.022 14.2227 229.23 16.6726 228.473 18.6181C226.96 22.5811 225.375 26.6521 224.69 28.4895C223.357 28.4895 220.872 28.4175 218.314 28.4175C215.107 28.4175 213.162 28.4535 212.261 28.4895C212.585 24.5265 214.098 8.02606 214.279 1.46911H224.979C224.618 3.23444 223.466 10.1156 222.817 14.9073C222.637 16.2403 222.421 17.7534 222.277 19.0504H222.493C222.961 17.7174 223.502 16.2042 224.042 14.8352C225.879 10.0076 228.221 3.7028 228.87 1.46911C230.239 1.46911 233.085 1.54116 234.67 1.54116C236.219 1.54116 238.957 1.46911 240.29 1.46911C239.894 3.45061 238.741 10.0796 238.129 14.9073C237.984 16.3484 237.768 17.8615 237.624 19.1224H237.804C238.273 17.8255 238.813 16.3123 239.354 14.9073C241.191 10.0076 243.425 3.73882 244.145 1.46911ZM264.362 17.5012C264.65 15.0514 264.902 12.4934 265.083 10.2237C265.119 8.74661 265.263 6.98128 265.407 5.61224H265.227C264.65 6.98128 263.966 8.71058 263.245 10.2597C262.272 12.5295 261.264 15.0514 260.363 17.5012H264.362ZM257.049 1.46911H275.603C275.386 5.07183 274.522 21.6444 274.63 28.4895H262.633C262.885 27.4447 263.209 25.7154 263.533 23.6258H258.093C257.373 25.6794 256.796 27.4087 256.508 28.4895H244.871C248.258 21.6804 255.643 4.99978 257.049 1.46911ZM294.793 1.46911H305.169C302.719 5.28799 296.27 16.7446 294.253 20.1312C293.244 24.2743 292.56 27.4087 292.343 28.5256C290.47 28.4535 287.552 28.4175 285.354 28.4175C283.192 28.4175 280.238 28.4535 278.401 28.5256C278.761 27.4087 279.626 24.2383 280.707 20.0592C280.526 16.4564 279.626 5.14389 279.013 1.46911H289.857C289.713 2.76609 289.461 6.2247 289.209 9.57523C289.065 11.3045 288.885 13.25 288.777 14.7992H289.065C289.713 13.25 290.506 11.3406 291.263 9.61126C292.776 6.26073 294.325 2.76609 294.793 1.46911Z" stroke="white" stroke-width="2" mask="url(#path-1-outside-1_41_43)"/>
</svg>
