<svg width="333" height="31" viewBox="0 0 333 31" fill="none" xmlns="http://www.w3.org/2000/svg">
<mask id="path-1-outside-1_41_42" maskUnits="userSpaceOnUse" x="-0.67061" y="0" width="333.707" height="31.0658" fill="black">
<rect fill="white" x="-0.67061" width="333.707" height="31.0658"/>
<path d="M18.7225 12.5827C20.3459 12.5466 21.2839 11.8611 21.7529 9.98515C22.294 7.82057 21.5364 7.09904 20.0934 7.09904C19.2275 7.09904 18.3256 7.09904 17.3516 7.17119C16.9547 8.6864 16.4857 10.5624 15.9807 12.5466C16.9908 12.5827 17.8927 12.5827 18.7225 12.5827ZM19.3718 20.0505C19.9491 17.7416 19.2636 16.984 17.6041 16.984C16.8104 16.984 15.8724 17.0201 14.8623 17.0561C14.3933 18.9321 13.9604 20.772 13.5996 22.3594C14.6098 22.4315 15.5117 22.4315 16.3053 22.4315C18.0009 22.4315 18.9389 21.8543 19.3718 20.0505ZM8.07992 1.50719H25.3966C31.0245 1.50719 33.9467 4.39331 32.684 9.22755C31.9986 11.9694 30.8441 13.2681 28.1384 14.1339C27.4169 14.3865 26.551 14.5308 25.577 14.639L25.5048 14.8555C26.1903 14.8915 26.7675 14.9998 27.2004 15.1441C30.1226 16.046 30.6998 18.4631 29.8701 21.8182C28.6435 26.7968 25.9017 28.5645 19.6605 28.5645H1.33364C2.452 24.7043 3.46214 20.772 4.86912 15.0358C6.31218 9.2997 7.28624 5.29522 8.07992 1.50719ZM53.0576 1.50719H64.1692C63.4837 3.99647 62.7983 6.44966 61.8964 10.0934C61.2831 12.5466 60.3811 16.4068 59.6596 19.2207C58.1444 25.3537 54.4285 29.0335 45.3373 29.0335C33.4321 29.0335 31.4479 24.2353 32.9991 17.8859C33.5764 15.577 34.4783 12.2219 35.0194 10.0934C35.9213 6.44966 36.4625 3.99647 37.0036 1.50719H48.3316C47.0329 6.19713 45.2651 13.0516 44.255 17.2365C43.7499 19.2207 44.255 20.303 46.2392 20.303C47.8987 20.303 48.7285 19.365 49.3057 17.2365C50.3158 13.0516 51.9393 6.19713 53.0576 1.50719ZM71.8554 28.5645H60.347C61.4293 24.7043 62.4034 20.772 63.8104 15.0358C65.2534 9.2997 66.2636 5.36737 67.0933 1.50719H78.6017C77.5555 5.33129 76.5814 9.26362 75.1744 14.9998C73.7314 20.7359 72.7573 24.6683 71.8554 28.5645ZM81.6437 1.50719H93.4046C92.8634 3.45532 91.3482 9.22755 89.8691 15.0719C89.5805 16.2264 89.2919 17.3808 89.0393 18.4992C90.9514 18.4992 93.2603 18.4631 95.497 18.391C95.0641 20.0505 94.5951 21.7821 94.1983 23.4417C93.7654 25.1733 93.3324 26.8689 92.9356 28.5645H74.8974C75.4746 26.436 76.9898 20.8081 78.3968 15.0358C79.912 9.08324 81.1386 4.1047 81.6437 1.50719ZM98.0359 1.50719H119.682C119.321 2.76987 118.816 4.75407 118.383 6.52182C117.914 8.25348 117.409 10.382 117.12 11.7529C115.461 11.7168 113.837 11.6807 112.25 11.6807C110.338 19.5093 108.57 26.8328 108.209 28.6006C106.622 28.4924 103.989 28.4924 102.113 28.4924C100.237 28.4924 97.6751 28.4924 96.0156 28.6006C96.5568 26.8328 98.4327 19.5093 100.381 11.6807C98.7935 11.7168 97.134 11.7168 95.4745 11.7529C95.8713 10.382 96.3764 8.25348 96.8454 6.52182C97.2783 4.75407 97.7834 2.76987 98.0359 1.50719ZM117.41 15.8295L118.42 11.5004C119.935 11.6447 123.038 11.6447 125.094 11.6447C127.259 11.6447 130.289 11.6447 131.912 11.5004C131.48 12.9073 131.119 14.2782 130.758 15.8295C130.361 17.3447 130.037 18.7517 129.712 20.2669C128.161 20.1948 125.13 20.1587 122.966 20.1587C120.945 20.1587 117.807 20.1948 116.219 20.2669C116.652 18.7517 117.013 17.3447 117.41 15.8295ZM141.401 28.5645H129.893C130.975 24.7043 131.949 20.772 133.356 15.0358C134.799 9.2997 135.809 5.36737 136.639 1.50719H148.147C147.101 5.33129 146.127 9.26362 144.72 14.9998C143.277 20.7359 142.303 24.6683 141.401 28.5645ZM168.65 1.50719H178.138C177.453 3.85216 176.046 9.26362 174.639 14.9998C173.124 21.0245 172.078 25.1372 171.356 28.5645H159.92C159.559 26.3638 158.657 23.1891 157.864 20.2669C157.575 18.427 157.358 16.5511 157.286 14.6751L157.142 14.7112C156.745 16.984 156.312 19.0043 155.843 21.1328C154.977 24.8847 154.328 27.4461 154.148 28.5645H144.479C145.417 24.8847 146.499 20.8081 147.906 15.0358C149.35 9.2997 150.396 5.22306 151.225 1.50719H163.419C163.491 3.0224 164.538 7.42373 165.115 10.7428C165.331 12.1137 165.512 13.6649 165.584 15.3245L165.728 15.2523C166.089 13.3403 166.45 11.5364 166.774 10.0934C167.532 6.91866 168.29 3.52747 168.65 1.50719ZM202.537 1.0382C213.396 1.0382 215.814 5.15091 214.515 10.4181C214.443 10.7428 214.298 11.0674 214.19 11.4282C212.567 11.3921 210.51 11.3561 208.454 11.3561C206.506 11.3561 204.594 11.3561 203.187 11.4282C203.331 11.0674 203.403 10.6706 203.475 10.3459C203.944 8.54209 203.259 7.67626 201.599 7.67626C199.543 7.67626 198.28 9.37185 197.054 14.3865C195.683 19.9422 195.972 21.8904 198.641 21.8904C200.229 21.8904 201.167 21.0967 201.96 18.9321C200.842 18.9682 199.687 18.9682 198.713 19.0043C198.894 18.3549 199.327 16.5871 199.471 15.9378C199.76 14.8915 200.012 13.9175 200.156 13.196C202.429 13.2681 204.774 13.2681 206.47 13.2681C208.454 13.2681 211.051 13.2681 213.721 13.196C211.52 24.6683 208.923 29.0335 197.415 29.0335C187.097 29.0335 183.2 24.56 185.87 14.0257C188.359 4.10469 193.23 1.0382 202.537 1.0382ZM230.232 17.5612C230.521 15.108 230.773 12.5466 230.954 10.2738C230.99 8.79463 231.134 7.02689 231.278 5.65598H231.098C230.521 7.02689 229.835 8.75855 229.114 10.3098C228.14 12.5827 227.129 15.108 226.228 17.5612H230.232ZM222.908 1.50719H241.488C241.271 5.11483 240.406 21.71 240.514 28.5645H228.5C228.753 27.5183 229.078 25.7866 229.402 23.6942H223.955C223.233 25.7505 222.656 27.4822 222.367 28.5645H210.715C214.106 21.7461 221.501 5.04268 222.908 1.50719ZM268.546 1.50719H281.534C280.596 5.04268 279.55 9.08324 278.07 14.9998C276.627 20.7359 275.653 24.6683 274.824 28.5645H264.614C265.588 25.3176 266.273 22.8644 267.211 19.365C267.608 17.7777 268.186 15.9378 268.763 14.0618L268.546 14.0257C267.536 16.046 266.562 17.9941 265.804 19.3289L260.501 28.5645H255.739L254.909 19.1486C254.837 17.8137 254.837 15.8656 254.801 13.9175L254.621 13.9536C254.296 15.7935 253.971 17.5251 253.538 19.365C252.673 22.9005 252.095 25.4259 251.41 28.5645H242.21C243.293 24.6683 244.303 20.7359 245.746 14.9998C247.225 9.08324 248.199 5.04268 248.957 1.50719H262.413C262.341 3.85216 262.305 6.8465 262.377 10.2016C262.341 11.4282 262.197 13.1238 262.089 14.7472H262.233C262.954 13.0877 263.676 11.4282 264.253 10.2016C265.913 6.95473 267.5 3.81608 268.546 1.50719ZM284.644 1.50719H306.723C306.47 2.37303 306.073 3.88824 305.749 5.11483C305.424 6.41359 305.027 8.03702 304.847 8.93893C301.095 8.86678 297.09 8.86678 293.952 8.86678L293.302 11.5364C296.982 11.5364 300.842 11.5004 303.945 11.3921C303.548 12.9073 302.718 16.1181 302.321 17.8137C299.327 17.7055 295.431 17.6334 291.787 17.6334L291.102 20.4112C294.312 20.4112 298.569 20.3752 302.033 20.3391C301.708 21.3853 301.275 23.0809 300.95 24.5239C300.59 25.8948 300.193 27.4822 299.976 28.5645H277.898C278.944 24.7765 279.99 20.8081 281.397 15.0358C282.84 9.2997 283.814 5.22306 284.644 1.50719ZM315.47 22.684C317.13 22.684 317.779 22.3233 318.068 21.1688C318.465 19.5815 317.996 18.6796 314.28 18.0302C307.029 16.7314 305.802 13.7371 306.992 9.08324C308.399 3.31101 311.935 1.00212 320.485 1.00212C330.334 1.00212 332.895 3.81608 331.741 8.46994C331.597 9.01109 331.416 9.62439 331.236 10.2738C329.829 10.1295 327.412 10.0212 325.464 10.0212C324.237 10.0212 323.119 10.0212 322.397 10.0934C322.505 9.80477 322.541 9.55223 322.614 9.37185C322.938 8.10918 322.577 7.35157 320.485 7.35157C318.862 7.35157 318.14 7.82057 317.888 8.79463C317.527 10.2016 317.815 11.0314 321.964 11.8611C328.566 13.2681 330.298 15.6852 328.963 21.0606C327.556 26.6885 324.67 29.0696 315.651 29.0696C305.585 29.0696 302.772 26.3278 303.998 21.4214C304.142 20.8442 304.323 20.1587 304.539 19.4732C306.163 19.5815 308.508 19.7619 310.744 19.7619C311.827 19.7619 312.837 19.7258 313.522 19.6897C313.45 19.9422 313.378 20.1948 313.306 20.4112C312.945 21.8904 313.378 22.684 315.47 22.684Z"/>
</mask>
<path d="M18.7225 12.5827C20.3459 12.5466 21.2839 11.8611 21.7529 9.98515C22.294 7.82057 21.5364 7.09904 20.0934 7.09904C19.2275 7.09904 18.3256 7.09904 17.3516 7.17119C16.9547 8.6864 16.4857 10.5624 15.9807 12.5466C16.9908 12.5827 17.8927 12.5827 18.7225 12.5827ZM19.3718 20.0505C19.9491 17.7416 19.2636 16.984 17.6041 16.984C16.8104 16.984 15.8724 17.0201 14.8623 17.0561C14.3933 18.9321 13.9604 20.772 13.5996 22.3594C14.6098 22.4315 15.5117 22.4315 16.3053 22.4315C18.0009 22.4315 18.9389 21.8543 19.3718 20.0505ZM8.07992 1.50719H25.3966C31.0245 1.50719 33.9467 4.39331 32.684 9.22755C31.9986 11.9694 30.8441 13.2681 28.1384 14.1339C27.4169 14.3865 26.551 14.5308 25.577 14.639L25.5048 14.8555C26.1903 14.8915 26.7675 14.9998 27.2004 15.1441C30.1226 16.046 30.6998 18.4631 29.8701 21.8182C28.6435 26.7968 25.9017 28.5645 19.6605 28.5645H1.33364C2.452 24.7043 3.46214 20.772 4.86912 15.0358C6.31218 9.2997 7.28624 5.29522 8.07992 1.50719ZM53.0576 1.50719H64.1692C63.4837 3.99647 62.7983 6.44966 61.8964 10.0934C61.2831 12.5466 60.3811 16.4068 59.6596 19.2207C58.1444 25.3537 54.4285 29.0335 45.3373 29.0335C33.4321 29.0335 31.4479 24.2353 32.9991 17.8859C33.5764 15.577 34.4783 12.2219 35.0194 10.0934C35.9213 6.44966 36.4625 3.99647 37.0036 1.50719H48.3316C47.0329 6.19713 45.2651 13.0516 44.255 17.2365C43.7499 19.2207 44.255 20.303 46.2392 20.303C47.8987 20.303 48.7285 19.365 49.3057 17.2365C50.3158 13.0516 51.9393 6.19713 53.0576 1.50719ZM71.8554 28.5645H60.347C61.4293 24.7043 62.4034 20.772 63.8104 15.0358C65.2534 9.2997 66.2636 5.36737 67.0933 1.50719H78.6017C77.5555 5.33129 76.5814 9.26362 75.1744 14.9998C73.7314 20.7359 72.7573 24.6683 71.8554 28.5645ZM81.6437 1.50719H93.4046C92.8634 3.45532 91.3482 9.22755 89.8691 15.0719C89.5805 16.2264 89.2919 17.3808 89.0393 18.4992C90.9514 18.4992 93.2603 18.4631 95.497 18.391C95.0641 20.0505 94.5951 21.7821 94.1983 23.4417C93.7654 25.1733 93.3324 26.8689 92.9356 28.5645H74.8974C75.4746 26.436 76.9898 20.8081 78.3968 15.0358C79.912 9.08324 81.1386 4.1047 81.6437 1.50719ZM98.0359 1.50719H119.682C119.321 2.76987 118.816 4.75407 118.383 6.52182C117.914 8.25348 117.409 10.382 117.12 11.7529C115.461 11.7168 113.837 11.6807 112.25 11.6807C110.338 19.5093 108.57 26.8328 108.209 28.6006C106.622 28.4924 103.989 28.4924 102.113 28.4924C100.237 28.4924 97.6751 28.4924 96.0156 28.6006C96.5568 26.8328 98.4327 19.5093 100.381 11.6807C98.7935 11.7168 97.134 11.7168 95.4745 11.7529C95.8713 10.382 96.3764 8.25348 96.8454 6.52182C97.2783 4.75407 97.7834 2.76987 98.0359 1.50719ZM117.41 15.8295L118.42 11.5004C119.935 11.6447 123.038 11.6447 125.094 11.6447C127.259 11.6447 130.289 11.6447 131.912 11.5004C131.48 12.9073 131.119 14.2782 130.758 15.8295C130.361 17.3447 130.037 18.7517 129.712 20.2669C128.161 20.1948 125.13 20.1587 122.966 20.1587C120.945 20.1587 117.807 20.1948 116.219 20.2669C116.652 18.7517 117.013 17.3447 117.41 15.8295ZM141.401 28.5645H129.893C130.975 24.7043 131.949 20.772 133.356 15.0358C134.799 9.2997 135.809 5.36737 136.639 1.50719H148.147C147.101 5.33129 146.127 9.26362 144.72 14.9998C143.277 20.7359 142.303 24.6683 141.401 28.5645ZM168.65 1.50719H178.138C177.453 3.85216 176.046 9.26362 174.639 14.9998C173.124 21.0245 172.078 25.1372 171.356 28.5645H159.92C159.559 26.3638 158.657 23.1891 157.864 20.2669C157.575 18.427 157.358 16.5511 157.286 14.6751L157.142 14.7112C156.745 16.984 156.312 19.0043 155.843 21.1328C154.977 24.8847 154.328 27.4461 154.148 28.5645H144.479C145.417 24.8847 146.499 20.8081 147.906 15.0358C149.35 9.2997 150.396 5.22306 151.225 1.50719H163.419C163.491 3.0224 164.538 7.42373 165.115 10.7428C165.331 12.1137 165.512 13.6649 165.584 15.3245L165.728 15.2523C166.089 13.3403 166.45 11.5364 166.774 10.0934C167.532 6.91866 168.29 3.52747 168.65 1.50719ZM202.537 1.0382C213.396 1.0382 215.814 5.15091 214.515 10.4181C214.443 10.7428 214.298 11.0674 214.19 11.4282C212.567 11.3921 210.51 11.3561 208.454 11.3561C206.506 11.3561 204.594 11.3561 203.187 11.4282C203.331 11.0674 203.403 10.6706 203.475 10.3459C203.944 8.54209 203.259 7.67626 201.599 7.67626C199.543 7.67626 198.28 9.37185 197.054 14.3865C195.683 19.9422 195.972 21.8904 198.641 21.8904C200.229 21.8904 201.167 21.0967 201.96 18.9321C200.842 18.9682 199.687 18.9682 198.713 19.0043C198.894 18.3549 199.327 16.5871 199.471 15.9378C199.76 14.8915 200.012 13.9175 200.156 13.196C202.429 13.2681 204.774 13.2681 206.47 13.2681C208.454 13.2681 211.051 13.2681 213.721 13.196C211.52 24.6683 208.923 29.0335 197.415 29.0335C187.097 29.0335 183.2 24.56 185.87 14.0257C188.359 4.10469 193.23 1.0382 202.537 1.0382ZM230.232 17.5612C230.521 15.108 230.773 12.5466 230.954 10.2738C230.99 8.79463 231.134 7.02689 231.278 5.65598H231.098C230.521 7.02689 229.835 8.75855 229.114 10.3098C228.14 12.5827 227.129 15.108 226.228 17.5612H230.232ZM222.908 1.50719H241.488C241.271 5.11483 240.406 21.71 240.514 28.5645H228.5C228.753 27.5183 229.078 25.7866 229.402 23.6942H223.955C223.233 25.7505 222.656 27.4822 222.367 28.5645H210.715C214.106 21.7461 221.501 5.04268 222.908 1.50719ZM268.546 1.50719H281.534C280.596 5.04268 279.55 9.08324 278.07 14.9998C276.627 20.7359 275.653 24.6683 274.824 28.5645H264.614C265.588 25.3176 266.273 22.8644 267.211 19.365C267.608 17.7777 268.186 15.9378 268.763 14.0618L268.546 14.0257C267.536 16.046 266.562 17.9941 265.804 19.3289L260.501 28.5645H255.739L254.909 19.1486C254.837 17.8137 254.837 15.8656 254.801 13.9175L254.621 13.9536C254.296 15.7935 253.971 17.5251 253.538 19.365C252.673 22.9005 252.095 25.4259 251.41 28.5645H242.21C243.293 24.6683 244.303 20.7359 245.746 14.9998C247.225 9.08324 248.199 5.04268 248.957 1.50719H262.413C262.341 3.85216 262.305 6.8465 262.377 10.2016C262.341 11.4282 262.197 13.1238 262.089 14.7472H262.233C262.954 13.0877 263.676 11.4282 264.253 10.2016C265.913 6.95473 267.5 3.81608 268.546 1.50719ZM284.644 1.50719H306.723C306.47 2.37303 306.073 3.88824 305.749 5.11483C305.424 6.41359 305.027 8.03702 304.847 8.93893C301.095 8.86678 297.09 8.86678 293.952 8.86678L293.302 11.5364C296.982 11.5364 300.842 11.5004 303.945 11.3921C303.548 12.9073 302.718 16.1181 302.321 17.8137C299.327 17.7055 295.431 17.6334 291.787 17.6334L291.102 20.4112C294.312 20.4112 298.569 20.3752 302.033 20.3391C301.708 21.3853 301.275 23.0809 300.95 24.5239C300.59 25.8948 300.193 27.4822 299.976 28.5645H277.898C278.944 24.7765 279.99 20.8081 281.397 15.0358C282.84 9.2997 283.814 5.22306 284.644 1.50719ZM315.47 22.684C317.13 22.684 317.779 22.3233 318.068 21.1688C318.465 19.5815 317.996 18.6796 314.28 18.0302C307.029 16.7314 305.802 13.7371 306.992 9.08324C308.399 3.31101 311.935 1.00212 320.485 1.00212C330.334 1.00212 332.895 3.81608 331.741 8.46994C331.597 9.01109 331.416 9.62439 331.236 10.2738C329.829 10.1295 327.412 10.0212 325.464 10.0212C324.237 10.0212 323.119 10.0212 322.397 10.0934C322.505 9.80477 322.541 9.55223 322.614 9.37185C322.938 8.10918 322.577 7.35157 320.485 7.35157C318.862 7.35157 318.14 7.82057 317.888 8.79463C317.527 10.2016 317.815 11.0314 321.964 11.8611C328.566 13.2681 330.298 15.6852 328.963 21.0606C327.556 26.6885 324.67 29.0696 315.651 29.0696C305.585 29.0696 302.772 26.3278 303.998 21.4214C304.142 20.8442 304.323 20.1587 304.539 19.4732C306.163 19.5815 308.508 19.7619 310.744 19.7619C311.827 19.7619 312.837 19.7258 313.522 19.6897C313.45 19.9422 313.378 20.1948 313.306 20.4112C312.945 21.8904 313.378 22.684 315.47 22.684Z" stroke="white" stroke-width="2" mask="url(#path-1-outside-1_41_42)"/>
</svg>
